<svg width="32" height="32" viewBox="0 0 32 32" fill="none" xmlns="http://www.w3.org/2000/svg">
<path d="M13.512 14.0482L15.66 12.0802C16.2473 11.541 16.6601 10.8386 16.8455 10.0632C17.0308 9.28774 16.9801 8.47462 16.7 7.72816L15.784 5.28216C15.4418 4.369 14.7643 3.62066 13.8895 3.18961C13.0148 2.75855 12.0086 2.67722 11.076 2.96216C7.644 4.01216 5.006 7.20216 5.818 10.9902C6.352 13.4822 7.374 16.6102 9.31 19.9382C11.25 23.2742 13.466 25.7382 15.366 27.4702C18.234 30.0802 22.334 29.4282 24.972 26.9682C25.6791 26.3088 26.1082 25.4047 26.1718 24.4399C26.2353 23.4752 25.9285 22.5225 25.314 21.7762L23.634 19.7362C23.1273 19.1193 22.4476 18.6681 21.6824 18.4407C20.9171 18.2133 20.1014 18.2201 19.34 18.4602L16.564 19.3342C15.8471 18.5943 15.2189 17.7734 14.692 16.8882C14.1835 15.9929 13.7871 15.0384 13.512 14.0462V14.0482Z" fill="#FAFAFA"/>
</svg>
