<svg width="46" height="47" viewBox="0 0 46 47" fill="none" xmlns="http://www.w3.org/2000/svg">
<circle cx="23" cy="23.6821" r="23" fill="#FAFAFA"/>
<g clip-path="url(#clip0_319_3173)">
<path d="M23.0001 10.6821C19.4666 10.6821 19.0262 10.6992 17.6433 10.7577C16.2547 10.8259 15.3155 11.0413 14.4867 11.363C13.6194 11.6905 12.8338 12.2031 12.1849 12.8653C11.5209 13.5127 11.0079 14.2987 10.6826 15.1671C10.3609 15.9959 10.1456 16.9351 10.0773 18.3237C10.0147 19.7074 10.0017 20.1469 10.0017 23.6805C10.0017 27.2141 10.0188 27.6544 10.0773 29.0373C10.1456 30.4218 10.3609 31.3651 10.6826 32.1939C11.0101 33.0613 11.5228 33.8468 12.1849 34.4957C12.8323 35.1597 13.6183 35.6727 14.4867 35.998C15.3155 36.3157 16.2588 36.5351 17.6433 36.6033C19.027 36.6659 19.4666 36.6789 23.0001 36.6789C26.5337 36.6789 26.9741 36.6618 28.3569 36.6033C29.7414 36.5351 30.6847 36.3149 31.5135 35.998C32.3809 35.6706 33.1664 35.1579 33.8153 34.4957C34.4802 33.849 34.9933 33.0628 35.3176 32.1939C35.6353 31.3651 35.8547 30.4218 35.9229 29.0373C35.9855 27.6536 35.9985 27.2141 35.9985 23.6805C35.9985 20.1469 35.9814 19.7066 35.9229 18.3237C35.8547 16.9392 35.6345 15.991 35.3176 15.1671C34.9902 14.2998 34.4775 13.5142 33.8153 12.8653C33.1686 12.2004 32.3824 11.6873 31.5135 11.363C30.6847 11.0413 29.7414 10.8259 28.3569 10.7577C26.9732 10.6951 26.5337 10.6821 23.0001 10.6821ZM23.0001 13.0221C26.4703 13.0221 26.8847 13.0392 28.2562 13.0977C29.5212 13.157 30.2102 13.3683 30.6677 13.547C31.2332 13.7558 31.745 14.088 32.1659 14.5196C32.5968 14.9387 32.9278 15.4493 33.1344 16.0138C33.3132 16.4712 33.5244 17.1602 33.5837 18.4253C33.6422 19.7968 33.6593 20.2119 33.6593 23.6813C33.6593 27.1507 33.6422 27.5659 33.5789 28.9374C33.5106 30.2024 33.2994 30.8914 33.1214 31.3489C32.8752 31.9591 32.6006 32.3856 32.1472 32.8471C31.7249 33.276 31.2134 33.6066 30.649 33.8156C30.1972 33.9944 29.4985 34.2056 28.2285 34.2649C26.8497 34.3234 26.4435 34.3405 22.9644 34.3405C19.4852 34.3405 19.0798 34.3234 17.6994 34.2601C16.4343 34.1918 15.7364 33.9806 15.2789 33.8026C14.6614 33.5564 14.2381 33.2818 13.7847 32.8284C13.3273 32.371 13.0364 31.9355 12.8122 31.3302C12.6302 30.8784 12.4222 30.1797 12.3547 28.9098C12.3084 27.5472 12.2865 27.1247 12.2865 23.6618C12.2865 20.2006 12.3084 19.7773 12.3547 18.3976C12.4222 17.1277 12.6302 16.4306 12.8122 15.9772C13.0364 15.3589 13.3281 14.9364 13.7847 14.4789C14.2373 14.0264 14.6614 13.7339 15.2789 13.5048C15.7364 13.3268 16.4172 13.1156 17.6872 13.0522C19.066 13.0026 19.4722 12.9848 22.9465 12.9848L23.0001 13.0221ZM23.0001 17.0091C22.1237 17.0087 21.2558 17.1811 20.4461 17.5164C19.6363 17.8516 18.9005 18.3431 18.2808 18.9628C17.6611 19.5826 17.1696 20.3183 16.8344 21.1281C16.4991 21.9378 16.3267 22.8057 16.3271 23.6821C16.3267 24.5585 16.4991 25.4264 16.8344 26.2362C17.1696 27.0459 17.6611 27.7817 18.2808 28.4014C18.9005 29.0211 19.6363 29.5126 20.4461 29.8479C21.2558 30.1831 22.1237 30.3555 23.0001 30.3552C23.8765 30.3555 24.7444 30.1831 25.5542 29.8479C26.3639 29.5126 27.0997 29.0211 27.7194 28.4014C28.3391 27.7817 28.8306 27.0459 29.1659 26.2362C29.5011 25.4264 29.6735 24.5585 29.6732 23.6821C29.6735 22.8057 29.5011 21.9378 29.1659 21.1281C28.8306 20.3183 28.3391 19.5826 27.7194 18.9628C27.0997 18.3431 26.3639 17.8516 25.5542 17.5164C24.7444 17.1811 23.8765 17.0087 23.0001 17.0091ZM23.0001 28.0152C20.6049 28.0152 18.6671 26.0774 18.6671 23.6821C18.6671 21.2869 20.6049 19.3491 23.0001 19.3491C25.3954 19.3491 27.3332 21.2869 27.3332 23.6821C27.3332 26.0774 25.3954 28.0152 23.0001 28.0152ZM31.5021 16.7426C31.5017 17.1567 31.3369 17.5537 31.0439 17.8463C30.7509 18.139 30.3538 18.3034 29.9397 18.3034C29.7349 18.3034 29.5322 18.263 29.343 18.1847C29.1538 18.1063 28.9819 17.9915 28.8372 17.8467C28.6924 17.7019 28.5775 17.53 28.4992 17.3409C28.4208 17.1517 28.3805 16.9489 28.3805 16.7442C28.3805 16.5394 28.4208 16.3367 28.4992 16.1475C28.5775 15.9583 28.6924 15.7865 28.8372 15.6417C28.9819 15.4969 29.1538 15.382 29.343 15.3037C29.5322 15.2253 29.7349 15.185 29.9397 15.185C30.7985 15.185 31.5021 15.8838 31.5021 16.7426Z" fill="#005640"/>
</g>
<defs>
<clipPath id="clip0_319_3173">
<rect width="26" height="26" fill="white" transform="translate(10 10.6821)"/>
</clipPath>
</defs>
</svg>
