<svg width="396" height="44" viewBox="0 0 396 44" fill="none" xmlns="http://www.w3.org/2000/svg">
<rect x="0.5" width="203" height="44" rx="22" fill="#63B995" fill-opacity="0.5"/>
<path d="M17.032 16.94C18.2267 16.94 19.1653 17.228 19.848 17.804C20.5307 18.38 20.872 19.1533 20.872 20.124C20.872 21.1587 20.5307 21.9533 19.848 22.508C19.1653 23.052 18.232 23.324 17.048 23.324L16.824 23.452H14.552V27.5H12.376V16.94H17.032ZM16.776 21.772C17.3947 21.772 17.8533 21.6493 18.152 21.404C18.4613 21.148 18.616 20.7587 18.616 20.236C18.616 19.7133 18.4613 19.3293 18.152 19.084C17.8533 18.828 17.3947 18.7 16.776 18.7H14.552V21.772H16.776ZM18.072 22.236L21.496 27.5H19.016L16.184 22.876L18.072 22.236ZM26.5188 19.34C27.3294 19.34 28.0388 19.5053 28.6468 19.836C29.2654 20.1667 29.7454 20.6413 30.0868 21.26C30.4388 21.8787 30.6148 22.6253 30.6148 23.5C30.6148 24.364 30.4388 25.1107 30.0868 25.74C29.7454 26.3587 29.2654 26.8333 28.6468 27.164C28.0388 27.4947 27.3294 27.66 26.5188 27.66C25.7188 27.66 25.0094 27.4947 24.3908 27.164C23.7721 26.8333 23.2868 26.3587 22.9348 25.74C22.5934 25.1107 22.4228 24.364 22.4228 23.5C22.4228 22.6253 22.5934 21.8787 22.9348 21.26C23.2868 20.6413 23.7721 20.1667 24.3908 19.836C25.0094 19.5053 25.7188 19.34 26.5188 19.34ZM26.5188 20.972C26.1134 20.972 25.7668 21.068 25.4788 21.26C25.2014 21.4413 24.9881 21.7187 24.8388 22.092C24.6894 22.4653 24.6148 22.9347 24.6148 23.5C24.6148 24.0653 24.6894 24.5347 24.8388 24.908C24.9881 25.2813 25.2014 25.564 25.4788 25.756C25.7668 25.9373 26.1134 26.028 26.5188 26.028C26.9134 26.028 27.2494 25.9373 27.5268 25.756C27.8148 25.564 28.0334 25.2813 28.1828 24.908C28.3321 24.5347 28.4068 24.0653 28.4068 23.5C28.4068 22.9347 28.3321 22.4653 28.1828 22.092C28.0334 21.7187 27.8148 21.4413 27.5268 21.26C27.2494 21.068 26.9134 20.972 26.5188 20.972ZM32.4489 27.5V15.996H34.6409V20.86C34.8969 20.348 35.2489 19.9693 35.6969 19.724C36.1449 19.468 36.6515 19.34 37.2169 19.34C37.7715 19.34 38.2622 19.4467 38.6889 19.66C39.1262 19.8733 39.4675 20.1987 39.7129 20.636C39.9689 21.0627 40.0969 21.6013 40.0969 22.252V27.5H37.9049V22.892C37.9049 22.1987 37.7715 21.724 37.5049 21.468C37.2382 21.2013 36.8969 21.068 36.4809 21.068C36.1715 21.068 35.8729 21.1427 35.5849 21.292C35.3075 21.4307 35.0782 21.6653 34.8969 21.996C34.7262 22.316 34.6409 22.7427 34.6409 23.276V27.5H32.4489ZM42.3551 27.5V19.5H44.3231L44.4031 20.94C44.6698 20.4067 45.0325 20.0067 45.4911 19.74C45.9605 19.4733 46.4778 19.34 47.0431 19.34C47.6191 19.34 48.1365 19.4733 48.5951 19.74C49.0645 20.0067 49.4165 20.4013 49.6511 20.924C49.8218 20.572 50.0511 20.2787 50.3391 20.044C50.6271 19.8093 50.9471 19.6333 51.2991 19.516C51.6511 19.3987 52.0085 19.34 52.3711 19.34C52.8938 19.34 53.3685 19.4467 53.7951 19.66C54.2325 19.8733 54.5791 20.1933 54.8351 20.62C55.0911 21.0467 55.2191 21.5907 55.2191 22.252V27.5H53.0271V22.684C53.0271 22.0973 52.8991 21.6813 52.6431 21.436C52.3871 21.1907 52.0565 21.068 51.6511 21.068C51.3311 21.068 51.0325 21.148 50.7551 21.308C50.4885 21.468 50.2751 21.708 50.1151 22.028C49.9658 22.3373 49.8911 22.7267 49.8911 23.196V27.5H47.6991V22.684C47.6991 22.0973 47.5658 21.6813 47.2991 21.436C47.0431 21.1907 46.7125 21.068 46.3071 21.068C46.0298 21.068 45.7525 21.1427 45.4751 21.292C45.2085 21.4413 44.9845 21.676 44.8031 21.996C44.6325 22.316 44.5471 22.7373 44.5471 23.26V27.5H42.3551ZM62.0401 22.396C62.0401 21.9373 61.9068 21.58 61.6401 21.324C61.3841 21.068 61.0428 20.94 60.6161 20.94C60.2215 20.94 59.8748 21.0413 59.5761 21.244C59.2775 21.4467 59.0588 21.7827 58.9201 22.252L57.0481 21.676C57.2295 20.972 57.6241 20.4067 58.2321 19.98C58.8508 19.5533 59.6775 19.34 60.7121 19.34C61.4161 19.34 62.0295 19.452 62.5521 19.676C63.0748 19.8893 63.4801 20.2147 63.7681 20.652C64.0668 21.0893 64.2161 21.6387 64.2161 22.3V25.548C64.2161 25.9533 64.4081 26.156 64.7921 26.156C64.9735 26.156 65.1441 26.1293 65.3041 26.076L65.1761 27.436C64.8988 27.5747 64.5521 27.644 64.1361 27.644C63.7628 27.644 63.4268 27.58 63.1281 27.452C62.8295 27.324 62.5948 27.132 62.4241 26.876C62.2535 26.6093 62.1681 26.2787 62.1681 25.884V25.82L62.5521 25.756C62.4881 26.1613 62.3121 26.508 62.0241 26.796C61.7361 27.0733 61.3841 27.2867 60.9681 27.436C60.5628 27.5853 60.1415 27.66 59.7041 27.66C59.1601 27.66 58.6908 27.58 58.2961 27.42C57.9015 27.2493 57.5975 27.004 57.3841 26.684C57.1708 26.364 57.0641 25.9693 57.0641 25.5C57.0641 24.9027 57.2561 24.4173 57.6401 24.044C58.0241 23.66 58.5735 23.3987 59.2881 23.26L62.2961 22.652L62.2801 24.012L60.3601 24.396C59.9975 24.4707 59.7201 24.572 59.5281 24.7C59.3468 24.8173 59.2561 25.0147 59.2561 25.292C59.2561 25.5587 59.3521 25.7613 59.5441 25.9C59.7468 26.0387 59.9868 26.108 60.2641 26.108C60.4881 26.108 60.7068 26.0813 60.9201 26.028C61.1335 25.9747 61.3255 25.8893 61.4961 25.772C61.6668 25.6547 61.8001 25.4947 61.8961 25.292C61.9921 25.0893 62.0401 24.844 62.0401 24.556V22.396ZM69.1871 17.052V24.892C69.1871 25.276 69.2831 25.5587 69.4751 25.74C69.6778 25.9107 69.9498 25.996 70.2911 25.996C70.5578 25.996 70.7925 25.9587 70.9951 25.884C71.1978 25.7987 71.3791 25.6867 71.5391 25.548L71.8911 27.004C71.6351 27.2067 71.3151 27.3667 70.9311 27.484C70.5471 27.6013 70.1418 27.66 69.7151 27.66C69.1818 27.66 68.7071 27.58 68.2911 27.42C67.8858 27.26 67.5658 27.004 67.3311 26.652C67.1071 26.3 66.9951 25.8307 66.9951 25.244V17.66L69.1871 17.052ZM71.7471 19.5V21.132H65.5231V19.5H71.7471Z" fill="#212121"/>
<path d="M93.976 27.66C92.7813 27.66 91.8267 27.196 91.112 26.268C90.3973 25.34 90.04 23.9907 90.04 22.22C90.04 20.4493 90.3973 19.1 91.112 18.172C91.8267 17.244 92.7813 16.78 93.976 16.78C95.1813 16.78 96.136 17.244 96.84 18.172C97.5547 19.1 97.912 20.4493 97.912 22.22C97.912 23.9907 97.5547 25.34 96.84 26.268C96.136 27.196 95.1813 27.66 93.976 27.66ZM93.976 26.508C94.5413 26.508 95.016 26.348 95.4 26.028C95.7947 25.6973 96.088 25.212 96.28 24.572C96.4827 23.932 96.584 23.148 96.584 22.22C96.584 21.292 96.4827 20.508 96.28 19.868C96.088 19.228 95.7947 18.748 95.4 18.428C95.016 18.0973 94.5413 17.932 93.976 17.932C93.4107 17.932 92.9307 18.0973 92.536 18.428C92.152 18.748 91.8587 19.228 91.656 19.868C91.464 20.508 91.368 21.292 91.368 22.22C91.368 23.148 91.464 23.932 91.656 24.572C91.8587 25.212 92.152 25.6973 92.536 26.028C92.9307 26.348 93.4107 26.508 93.976 26.508ZM103.881 16.796C104.564 16.796 105.156 16.908 105.657 17.132C106.158 17.356 106.548 17.676 106.825 18.092C107.102 18.4973 107.241 18.988 107.241 19.564C107.241 20.108 107.108 20.588 106.841 21.004C106.585 21.4093 106.222 21.7187 105.753 21.932V21.948C106.35 22.172 106.825 22.5133 107.177 22.972C107.54 23.4307 107.721 23.9907 107.721 24.652C107.721 25.2707 107.561 25.804 107.241 26.252C106.921 26.7 106.473 27.0467 105.897 27.292C105.332 27.5373 104.66 27.66 103.881 27.66C103.113 27.66 102.441 27.5373 101.865 27.292C101.289 27.0467 100.841 26.7 100.521 26.252C100.201 25.804 100.041 25.2707 100.041 24.652C100.041 24.0013 100.217 23.4467 100.569 22.988C100.921 22.5187 101.406 22.172 102.025 21.948V21.932C101.566 21.7293 101.198 21.4253 100.921 21.02C100.654 20.604 100.521 20.1187 100.521 19.564C100.521 18.988 100.66 18.4973 100.937 18.092C101.214 17.676 101.604 17.356 102.105 17.132C102.617 16.908 103.209 16.796 103.881 16.796ZM103.881 17.996C103.262 17.996 102.766 18.1453 102.393 18.444C102.03 18.7427 101.849 19.1587 101.849 19.692C101.849 20.2147 102.036 20.6253 102.409 20.924C102.782 21.2227 103.273 21.372 103.881 21.372C104.489 21.372 104.98 21.2227 105.353 20.924C105.726 20.6253 105.913 20.2147 105.913 19.692C105.913 19.1587 105.732 18.7427 105.369 18.444C105.006 18.1453 104.51 17.996 103.881 17.996ZM103.881 26.46C104.404 26.46 104.852 26.3853 105.225 26.236C105.598 26.076 105.886 25.852 106.089 25.564C106.292 25.2653 106.393 24.9187 106.393 24.524C106.393 24.1187 106.286 23.772 106.073 23.484C105.87 23.1853 105.582 22.9613 105.209 22.812C104.836 22.652 104.393 22.572 103.881 22.572C103.38 22.572 102.937 22.652 102.553 22.812C102.18 22.9613 101.886 23.1853 101.673 23.484C101.47 23.772 101.369 24.1187 101.369 24.524C101.369 24.9187 101.47 25.2653 101.673 25.564C101.876 25.852 102.164 26.076 102.537 26.236C102.921 26.3853 103.369 26.46 103.881 26.46ZM112.141 27.5V19.756C112.141 19.5747 112.141 19.3827 112.141 19.18C112.151 18.9667 112.162 18.748 112.173 18.524C111.81 18.876 111.389 19.1853 110.909 19.452C110.429 19.708 109.938 19.8947 109.437 20.012L109.101 18.844C109.293 18.8227 109.533 18.7533 109.821 18.636C110.119 18.508 110.429 18.3533 110.749 18.172C111.079 17.98 111.383 17.7773 111.661 17.564C111.938 17.3507 112.151 17.1427 112.301 16.94H113.421V27.5H112.141ZM119.687 27.66C118.748 27.66 117.916 27.4413 117.191 27.004C116.476 26.556 115.991 25.9427 115.735 25.164L117.015 24.508C117.143 24.9027 117.319 25.2493 117.543 25.548C117.767 25.836 118.06 26.06 118.423 26.22C118.796 26.38 119.26 26.46 119.815 26.46C120.284 26.46 120.679 26.3747 120.999 26.204C121.319 26.0333 121.564 25.804 121.735 25.516C121.906 25.2173 121.991 24.876 121.991 24.492C121.991 24.108 121.916 23.788 121.767 23.532C121.628 23.276 121.404 23.0893 121.095 22.972C120.786 22.844 120.38 22.78 119.879 22.78C119.762 22.78 119.634 22.7853 119.495 22.796C119.356 22.796 119.212 22.8067 119.063 22.828V21.548C119.159 21.5587 119.25 21.564 119.335 21.564C119.431 21.564 119.516 21.564 119.591 21.564C120.37 21.564 120.924 21.4147 121.255 21.116C121.586 20.8067 121.751 20.3267 121.751 19.676C121.751 19.1213 121.58 18.7 121.239 18.412C120.898 18.124 120.412 17.98 119.783 17.98C119.111 17.98 118.599 18.1293 118.247 18.428C117.895 18.716 117.618 19.1107 117.415 19.612L116.199 19.036C116.37 18.588 116.626 18.1933 116.967 17.852C117.308 17.5107 117.719 17.244 118.199 17.052C118.69 16.86 119.228 16.764 119.815 16.764C120.551 16.764 121.159 16.892 121.639 17.148C122.119 17.3933 122.476 17.724 122.711 18.14C122.956 18.556 123.079 19.0147 123.079 19.516C123.079 19.9 123.026 20.2467 122.919 20.556C122.812 20.8547 122.663 21.116 122.471 21.34C122.29 21.564 122.082 21.7453 121.847 21.884C121.612 22.012 121.362 22.0973 121.095 22.14V22.172C121.447 22.1827 121.756 22.252 122.023 22.38C122.3 22.508 122.535 22.6787 122.727 22.892C122.919 23.1053 123.063 23.3507 123.159 23.628C123.266 23.8947 123.319 24.1773 123.319 24.476C123.319 25.0947 123.164 25.644 122.855 26.124C122.556 26.604 122.135 26.9827 121.591 27.26C121.047 27.5267 120.412 27.66 119.687 27.66ZM124.374 16.94H132.15V18.14C131.265 19.0787 130.54 20.044 129.974 21.036C129.42 22.0173 129.014 23.0413 128.758 24.108C128.502 25.1747 128.374 26.3053 128.374 27.5H127.062C127.062 26.316 127.206 25.1587 127.494 24.028C127.793 22.8867 128.241 21.7933 128.838 20.748C129.436 19.7027 130.177 18.7267 131.062 17.82L131.27 18.14H124.374V16.94ZM136.031 27.5V19.756C136.031 19.5747 136.031 19.3827 136.031 19.18C136.042 18.9667 136.052 18.748 136.063 18.524C135.7 18.876 135.279 19.1853 134.799 19.452C134.319 19.708 133.828 19.8947 133.327 20.012L132.991 18.844C133.183 18.8227 133.423 18.7533 133.711 18.636C134.01 18.508 134.319 18.3533 134.639 18.172C134.97 17.98 135.274 17.7773 135.551 17.564C135.828 17.3507 136.042 17.1427 136.191 16.94H137.311V27.5H136.031ZM143.914 27.66C142.719 27.66 141.764 27.196 141.049 26.268C140.335 25.34 139.978 23.9907 139.978 22.22C139.978 20.4493 140.335 19.1 141.049 18.172C141.764 17.244 142.719 16.78 143.914 16.78C145.119 16.78 146.074 17.244 146.778 18.172C147.492 19.1 147.85 20.4493 147.85 22.22C147.85 23.9907 147.492 25.34 146.778 26.268C146.074 27.196 145.119 27.66 143.914 27.66ZM143.914 26.508C144.479 26.508 144.954 26.348 145.338 26.028C145.732 25.6973 146.026 25.212 146.218 24.572C146.42 23.932 146.522 23.148 146.522 22.22C146.522 21.292 146.42 20.508 146.218 19.868C146.026 19.228 145.732 18.748 145.338 18.428C144.954 18.0973 144.479 17.932 143.914 17.932C143.348 17.932 142.868 18.0973 142.474 18.428C142.09 18.748 141.796 19.228 141.594 19.868C141.402 20.508 141.306 21.292 141.306 22.22C141.306 23.148 141.402 23.932 141.594 24.572C141.796 25.212 142.09 25.6973 142.474 26.028C142.868 26.348 143.348 26.508 143.914 26.508ZM152.219 27.5V19.756C152.219 19.5747 152.219 19.3827 152.219 19.18C152.229 18.9667 152.24 18.748 152.251 18.524C151.888 18.876 151.467 19.1853 150.987 19.452C150.507 19.708 150.016 19.8947 149.515 20.012L149.179 18.844C149.371 18.8227 149.611 18.7533 149.899 18.636C150.197 18.508 150.507 18.3533 150.827 18.172C151.157 17.98 151.461 17.7773 151.739 17.564C152.016 17.3507 152.229 17.1427 152.379 16.94H153.499V27.5H152.219ZM160.101 27.66C158.906 27.66 157.952 27.196 157.237 26.268C156.522 25.34 156.165 23.9907 156.165 22.22C156.165 20.4493 156.522 19.1 157.237 18.172C157.952 17.244 158.906 16.78 160.101 16.78C161.306 16.78 162.261 17.244 162.965 18.172C163.68 19.1 164.037 20.4493 164.037 22.22C164.037 23.9907 163.68 25.34 162.965 26.268C162.261 27.196 161.306 27.66 160.101 27.66ZM160.101 26.508C160.666 26.508 161.141 26.348 161.525 26.028C161.92 25.6973 162.213 25.212 162.405 24.572C162.608 23.932 162.709 23.148 162.709 22.22C162.709 21.292 162.608 20.508 162.405 19.868C162.213 19.228 161.92 18.748 161.525 18.428C161.141 18.0973 160.666 17.932 160.101 17.932C159.536 17.932 159.056 18.0973 158.661 18.428C158.277 18.748 157.984 19.228 157.781 19.868C157.589 20.508 157.493 21.292 157.493 22.22C157.493 23.148 157.589 23.932 157.781 24.572C157.984 25.212 158.277 25.6973 158.661 26.028C159.056 26.348 159.536 26.508 160.101 26.508ZM169.406 27.66C168.467 27.66 167.635 27.4413 166.91 27.004C166.195 26.556 165.71 25.9427 165.454 25.164L166.734 24.508C166.862 24.9027 167.038 25.2493 167.262 25.548C167.486 25.836 167.779 26.06 168.142 26.22C168.515 26.38 168.979 26.46 169.534 26.46C170.003 26.46 170.398 26.3747 170.718 26.204C171.038 26.0333 171.283 25.804 171.454 25.516C171.624 25.2173 171.71 24.876 171.71 24.492C171.71 24.108 171.635 23.788 171.486 23.532C171.347 23.276 171.123 23.0893 170.814 22.972C170.504 22.844 170.099 22.78 169.598 22.78C169.48 22.78 169.352 22.7853 169.214 22.796C169.075 22.796 168.931 22.8067 168.782 22.828V21.548C168.878 21.5587 168.968 21.564 169.054 21.564C169.15 21.564 169.235 21.564 169.31 21.564C170.088 21.564 170.643 21.4147 170.974 21.116C171.304 20.8067 171.47 20.3267 171.47 19.676C171.47 19.1213 171.299 18.7 170.958 18.412C170.616 18.124 170.131 17.98 169.502 17.98C168.83 17.98 168.318 18.1293 167.966 18.428C167.614 18.716 167.336 19.1107 167.134 19.612L165.918 19.036C166.088 18.588 166.344 18.1933 166.686 17.852C167.027 17.5107 167.438 17.244 167.918 17.052C168.408 16.86 168.947 16.764 169.534 16.764C170.27 16.764 170.878 16.892 171.358 17.148C171.838 17.3933 172.195 17.724 172.43 18.14C172.675 18.556 172.798 19.0147 172.798 19.516C172.798 19.9 172.744 20.2467 172.638 20.556C172.531 20.8547 172.382 21.116 172.19 21.34C172.008 21.564 171.8 21.7453 171.566 21.884C171.331 22.012 171.08 22.0973 170.814 22.14V22.172C171.166 22.1827 171.475 22.252 171.742 22.38C172.019 22.508 172.254 22.6787 172.446 22.892C172.638 23.1053 172.782 23.3507 172.878 23.628C172.984 23.8947 173.038 24.1773 173.038 24.476C173.038 25.0947 172.883 25.644 172.574 26.124C172.275 26.604 171.854 26.9827 171.31 27.26C170.766 27.5267 170.131 27.66 169.406 27.66ZM178.686 27.66C177.747 27.66 176.99 27.4467 176.414 27.02C175.848 26.5933 175.411 26.0013 175.102 25.244L176.35 24.588C176.52 25.1427 176.782 25.596 177.134 25.948C177.496 26.2893 178.024 26.46 178.718 26.46C179.208 26.46 179.624 26.3693 179.966 26.188C180.318 26.0067 180.59 25.7507 180.782 25.42C180.974 25.0787 181.07 24.6733 181.07 24.204C181.07 23.7027 180.979 23.2867 180.798 22.956C180.627 22.6147 180.376 22.3587 180.046 22.188C179.715 22.0173 179.31 21.932 178.83 21.932C178.488 21.932 178.168 21.9693 177.87 22.044C177.582 22.108 177.32 22.2147 177.086 22.364C176.851 22.5133 176.648 22.7107 176.478 22.956L175.358 22.748L175.982 16.94H181.918V18.14H177.07L176.654 21.468L176.622 21.612H176.654C176.91 21.3453 177.235 21.132 177.63 20.972C178.035 20.812 178.515 20.732 179.07 20.732C179.742 20.732 180.323 20.876 180.814 21.164C181.315 21.4413 181.704 21.836 181.982 22.348C182.259 22.86 182.398 23.4573 182.398 24.14C182.398 24.684 182.307 25.1747 182.126 25.612C181.944 26.0493 181.688 26.4227 181.358 26.732C181.027 27.0307 180.632 27.26 180.174 27.42C179.726 27.58 179.23 27.66 178.686 27.66ZM184.59 27.5V26.46C185.646 25.6813 186.526 24.9987 187.23 24.412C187.945 23.8253 188.516 23.292 188.942 22.812C189.369 22.332 189.673 21.8787 189.854 21.452C190.036 21.0147 190.126 20.5613 190.126 20.092C190.126 19.4627 189.924 18.956 189.518 18.572C189.124 18.1773 188.58 17.98 187.886 17.98C187.161 17.98 186.58 18.22 186.142 18.7C185.705 19.1693 185.449 19.7987 185.374 20.588L184.254 19.916C184.35 19.2973 184.548 18.7533 184.846 18.284C185.156 17.8147 185.566 17.4467 186.078 17.18C186.601 16.9133 187.22 16.78 187.934 16.78C188.478 16.78 188.964 16.86 189.39 17.02C189.828 17.18 190.201 17.4093 190.51 17.708C190.82 17.996 191.054 18.3427 191.214 18.748C191.385 19.1533 191.47 19.6013 191.47 20.092C191.47 20.7533 191.31 21.404 190.99 22.044C190.67 22.6733 190.142 23.3347 189.406 24.028C188.67 24.7213 187.673 25.4893 186.414 26.332V26.348C186.532 26.3373 186.692 26.332 186.894 26.332C187.108 26.3213 187.316 26.316 187.518 26.316C187.732 26.3053 187.892 26.3 187.998 26.3H191.694V27.5H184.59Z" fill="#212121"/>
<rect x="209.5" width="186" height="44" rx="22" fill="#63B995" fill-opacity="0.5"/>
<path d="M227.948 16.94V27.5H225.74V16.94H227.948ZM221.084 16.94V27.5H218.876V16.94H221.084ZM226.892 21.276V23.052H219.98V21.276H226.892ZM231.584 25.052C232.011 25.052 232.347 25.1693 232.592 25.404C232.848 25.6387 232.976 25.9533 232.976 26.348C232.976 26.7533 232.848 27.0733 232.592 27.308C232.347 27.532 232.011 27.644 231.584 27.644C231.157 27.644 230.816 27.532 230.56 27.308C230.315 27.0733 230.192 26.7533 230.192 26.348C230.192 25.9533 230.315 25.6387 230.56 25.404C230.816 25.1693 231.157 25.052 231.584 25.052ZM249.167 16.94V27.5H246.959V16.94H249.167ZM242.303 16.94V27.5H240.095V16.94H242.303ZM248.111 21.276V23.052H241.199V21.276H248.111ZM255.333 27.66C254.49 27.66 253.754 27.4947 253.125 27.164C252.506 26.8333 252.026 26.3587 251.685 25.74C251.343 25.1213 251.173 24.3747 251.173 23.5C251.173 22.6253 251.343 21.8787 251.685 21.26C252.026 20.6413 252.501 20.1667 253.109 19.836C253.727 19.5053 254.431 19.34 255.221 19.34C256.031 19.34 256.719 19.5053 257.285 19.836C257.85 20.156 258.282 20.5987 258.581 21.164C258.879 21.7187 259.029 22.3533 259.029 23.068C259.029 23.2813 259.023 23.484 259.013 23.676C259.002 23.868 258.986 24.0387 258.965 24.188H252.581V22.668H258.005L256.949 23.052C256.949 22.38 256.794 21.8627 256.485 21.5C256.186 21.1373 255.759 20.956 255.205 20.956C254.799 20.956 254.447 21.052 254.149 21.244C253.861 21.436 253.642 21.724 253.493 22.108C253.343 22.4813 253.269 22.956 253.269 23.532C253.269 24.0973 253.349 24.5667 253.509 24.94C253.679 25.3027 253.914 25.5747 254.213 25.756C254.522 25.9373 254.89 26.028 255.317 26.028C255.786 26.028 256.165 25.9373 256.453 25.756C256.741 25.5747 256.965 25.324 257.125 25.004L258.869 25.676C258.698 26.092 258.437 26.4493 258.085 26.748C257.743 27.0467 257.333 27.276 256.853 27.436C256.383 27.5853 255.877 27.66 255.333 27.66ZM260.886 27.5V19.5H262.79L262.934 21.068C263.148 20.5133 263.457 20.0867 263.862 19.788C264.278 19.4893 264.796 19.34 265.414 19.34C265.596 19.34 265.761 19.356 265.91 19.388C266.06 19.42 266.182 19.4627 266.278 19.516L266.022 21.356C265.916 21.3133 265.782 21.2813 265.622 21.26C265.473 21.2387 265.276 21.228 265.03 21.228C264.71 21.228 264.401 21.308 264.102 21.468C263.804 21.6173 263.558 21.852 263.366 22.172C263.174 22.4813 263.078 22.876 263.078 23.356V27.5H260.886ZM275.156 19.5L271.924 27.996C271.668 28.7213 271.38 29.2973 271.06 29.724C270.751 30.1507 270.388 30.46 269.972 30.652C269.567 30.844 269.082 30.94 268.516 30.94C268.1 30.94 267.716 30.8867 267.364 30.78C267.023 30.684 266.724 30.556 266.468 30.396L266.932 28.812C267.135 28.972 267.348 29.084 267.572 29.148C267.796 29.2227 268.052 29.26 268.34 29.26C268.639 29.26 268.895 29.196 269.108 29.068C269.332 28.94 269.519 28.684 269.668 28.3L269.94 27.612L269.06 25.532L266.612 19.5H269.044L270.564 24.3L270.98 25.9L271.476 24.204L272.932 19.5H275.156Z" fill="#212121"/>
<path d="M296.476 27.66C295.281 27.66 294.327 27.196 293.612 26.268C292.897 25.34 292.54 23.9907 292.54 22.22C292.54 20.4493 292.897 19.1 293.612 18.172C294.327 17.244 295.281 16.78 296.476 16.78C297.681 16.78 298.636 17.244 299.34 18.172C300.055 19.1 300.412 20.4493 300.412 22.22C300.412 23.9907 300.055 25.34 299.34 26.268C298.636 27.196 297.681 27.66 296.476 27.66ZM296.476 26.508C297.041 26.508 297.516 26.348 297.9 26.028C298.295 25.6973 298.588 25.212 298.78 24.572C298.983 23.932 299.084 23.148 299.084 22.22C299.084 21.292 298.983 20.508 298.78 19.868C298.588 19.228 298.295 18.748 297.9 18.428C297.516 18.0973 297.041 17.932 296.476 17.932C295.911 17.932 295.431 18.0973 295.036 18.428C294.652 18.748 294.359 19.228 294.156 19.868C293.964 20.508 293.868 21.292 293.868 22.22C293.868 23.148 293.964 23.932 294.156 24.572C294.359 25.212 294.652 25.6973 295.036 26.028C295.431 26.348 295.911 26.508 296.476 26.508ZM306.381 16.796C307.064 16.796 307.656 16.908 308.157 17.132C308.658 17.356 309.048 17.676 309.325 18.092C309.602 18.4973 309.741 18.988 309.741 19.564C309.741 20.108 309.608 20.588 309.341 21.004C309.085 21.4093 308.722 21.7187 308.253 21.932V21.948C308.85 22.172 309.325 22.5133 309.677 22.972C310.04 23.4307 310.221 23.9907 310.221 24.652C310.221 25.2707 310.061 25.804 309.741 26.252C309.421 26.7 308.973 27.0467 308.397 27.292C307.832 27.5373 307.16 27.66 306.381 27.66C305.613 27.66 304.941 27.5373 304.365 27.292C303.789 27.0467 303.341 26.7 303.021 26.252C302.701 25.804 302.541 25.2707 302.541 24.652C302.541 24.0013 302.717 23.4467 303.069 22.988C303.421 22.5187 303.906 22.172 304.525 21.948V21.932C304.066 21.7293 303.698 21.4253 303.421 21.02C303.154 20.604 303.021 20.1187 303.021 19.564C303.021 18.988 303.16 18.4973 303.437 18.092C303.714 17.676 304.104 17.356 304.605 17.132C305.117 16.908 305.709 16.796 306.381 16.796ZM306.381 17.996C305.762 17.996 305.266 18.1453 304.893 18.444C304.53 18.7427 304.349 19.1587 304.349 19.692C304.349 20.2147 304.536 20.6253 304.909 20.924C305.282 21.2227 305.773 21.372 306.381 21.372C306.989 21.372 307.48 21.2227 307.853 20.924C308.226 20.6253 308.413 20.2147 308.413 19.692C308.413 19.1587 308.232 18.7427 307.869 18.444C307.506 18.1453 307.01 17.996 306.381 17.996ZM306.381 26.46C306.904 26.46 307.352 26.3853 307.725 26.236C308.098 26.076 308.386 25.852 308.589 25.564C308.792 25.2653 308.893 24.9187 308.893 24.524C308.893 24.1187 308.786 23.772 308.573 23.484C308.37 23.1853 308.082 22.9613 307.709 22.812C307.336 22.652 306.893 22.572 306.381 22.572C305.88 22.572 305.437 22.652 305.053 22.812C304.68 22.9613 304.386 23.1853 304.173 23.484C303.97 23.772 303.869 24.1187 303.869 24.524C303.869 24.9187 303.97 25.2653 304.173 25.564C304.376 25.852 304.664 26.076 305.037 26.236C305.421 26.3853 305.869 26.46 306.381 26.46ZM314.641 27.5V19.756C314.641 19.5747 314.641 19.3827 314.641 19.18C314.651 18.9667 314.662 18.748 314.673 18.524C314.31 18.876 313.889 19.1853 313.409 19.452C312.929 19.708 312.438 19.8947 311.937 20.012L311.601 18.844C311.793 18.8227 312.033 18.7533 312.321 18.636C312.619 18.508 312.929 18.3533 313.249 18.172C313.579 17.98 313.883 17.7773 314.161 17.564C314.438 17.3507 314.651 17.1427 314.801 16.94H315.921V27.5H314.641ZM320.875 27.5V19.756C320.875 19.5747 320.875 19.3827 320.875 19.18C320.886 18.9667 320.896 18.748 320.907 18.524C320.544 18.876 320.123 19.1853 319.643 19.452C319.163 19.708 318.672 19.8947 318.171 20.012L317.835 18.844C318.027 18.8227 318.267 18.7533 318.555 18.636C318.854 18.508 319.163 18.3533 319.483 18.172C319.814 17.98 320.118 17.7773 320.395 17.564C320.672 17.3507 320.886 17.1427 321.035 16.94H322.155V27.5H320.875ZM328.949 16.78C329.515 16.78 330.005 16.86 330.421 17.02C330.848 17.1693 331.216 17.4093 331.525 17.74C331.835 18.06 332.096 18.4813 332.309 19.004L331.125 19.564C330.965 19.0733 330.704 18.6893 330.341 18.412C329.989 18.124 329.499 17.98 328.869 17.98C328.411 17.98 328.005 18.0973 327.653 18.332C327.301 18.556 327.003 18.8707 326.757 19.276C326.512 19.6813 326.325 20.156 326.197 20.7C326.08 21.244 326.021 21.8307 326.021 22.46C326.021 22.4813 326.021 22.5133 326.021 22.556C326.021 22.5987 326.021 22.6627 326.021 22.748H326.085C326.203 22.2893 326.416 21.9213 326.725 21.644C327.045 21.356 327.403 21.148 327.797 21.02C328.203 20.8813 328.597 20.812 328.981 20.812C329.696 20.812 330.32 20.9507 330.853 21.228C331.387 21.5053 331.797 21.9 332.085 22.412C332.384 22.924 332.533 23.532 332.533 24.236C332.533 24.9293 332.384 25.5373 332.085 26.06C331.787 26.572 331.365 26.9667 330.821 27.244C330.288 27.5213 329.648 27.66 328.901 27.66C328.016 27.66 327.269 27.4253 326.661 26.956C326.053 26.4867 325.595 25.8467 325.285 25.036C324.976 24.2147 324.821 23.276 324.821 22.22C324.821 21.036 325.003 20.044 325.365 19.244C325.728 18.4333 326.219 17.82 326.837 17.404C327.467 16.988 328.171 16.78 328.949 16.78ZM328.885 22.044C328.427 22.044 328.021 22.14 327.669 22.332C327.328 22.5133 327.061 22.7693 326.869 23.1C326.677 23.42 326.581 23.7933 326.581 24.22C326.581 24.6253 326.683 24.9987 326.885 25.34C327.088 25.6707 327.36 25.9373 327.701 26.14C328.053 26.332 328.448 26.428 328.885 26.428C329.611 26.428 330.176 26.236 330.581 25.852C330.987 25.4573 331.189 24.9133 331.189 24.22C331.189 23.772 331.099 23.388 330.917 23.068C330.736 22.7373 330.475 22.4867 330.133 22.316C329.792 22.1347 329.376 22.044 328.885 22.044ZM338.684 16.78C339.249 16.78 339.74 16.86 340.156 17.02C340.582 17.1693 340.95 17.4093 341.26 17.74C341.569 18.06 341.83 18.4813 342.044 19.004L340.86 19.564C340.7 19.0733 340.438 18.6893 340.076 18.412C339.724 18.124 339.233 17.98 338.604 17.98C338.145 17.98 337.74 18.0973 337.388 18.332C337.036 18.556 336.737 18.8707 336.492 19.276C336.246 19.6813 336.06 20.156 335.932 20.7C335.814 21.244 335.756 21.8307 335.756 22.46C335.756 22.4813 335.756 22.5133 335.756 22.556C335.756 22.5987 335.756 22.6627 335.756 22.748H335.82C335.937 22.2893 336.15 21.9213 336.46 21.644C336.78 21.356 337.137 21.148 337.532 21.02C337.937 20.8813 338.332 20.812 338.716 20.812C339.43 20.812 340.054 20.9507 340.588 21.228C341.121 21.5053 341.532 21.9 341.82 22.412C342.118 22.924 342.268 23.532 342.268 24.236C342.268 24.9293 342.118 25.5373 341.82 26.06C341.521 26.572 341.1 26.9667 340.556 27.244C340.022 27.5213 339.382 27.66 338.636 27.66C337.75 27.66 337.004 27.4253 336.396 26.956C335.788 26.4867 335.329 25.8467 335.02 25.036C334.71 24.2147 334.556 23.276 334.556 22.22C334.556 21.036 334.737 20.044 335.1 19.244C335.462 18.4333 335.953 17.82 336.572 17.404C337.201 16.988 337.905 16.78 338.684 16.78ZM338.62 22.044C338.161 22.044 337.756 22.14 337.404 22.332C337.062 22.5133 336.796 22.7693 336.604 23.1C336.412 23.42 336.316 23.7933 336.316 24.22C336.316 24.6253 336.417 24.9987 336.62 25.34C336.822 25.6707 337.094 25.9373 337.436 26.14C337.788 26.332 338.182 26.428 338.62 26.428C339.345 26.428 339.91 26.236 340.316 25.852C340.721 25.4573 340.924 24.9133 340.924 24.22C340.924 23.772 340.833 23.388 340.652 23.068C340.47 22.7373 340.209 22.4867 339.868 22.316C339.526 22.1347 339.11 22.044 338.62 22.044ZM348.418 16.78C348.983 16.78 349.474 16.86 349.89 17.02C350.317 17.1693 350.685 17.4093 350.994 17.74C351.303 18.06 351.565 18.4813 351.778 19.004L350.594 19.564C350.434 19.0733 350.173 18.6893 349.81 18.412C349.458 18.124 348.967 17.98 348.338 17.98C347.879 17.98 347.474 18.0973 347.122 18.332C346.77 18.556 346.471 18.8707 346.226 19.276C345.981 19.6813 345.794 20.156 345.666 20.7C345.549 21.244 345.49 21.8307 345.49 22.46C345.49 22.4813 345.49 22.5133 345.49 22.556C345.49 22.5987 345.49 22.6627 345.49 22.748H345.554C345.671 22.2893 345.885 21.9213 346.194 21.644C346.514 21.356 346.871 21.148 347.266 21.02C347.671 20.8813 348.066 20.812 348.45 20.812C349.165 20.812 349.789 20.9507 350.322 21.228C350.855 21.5053 351.266 21.9 351.554 22.412C351.853 22.924 352.002 23.532 352.002 24.236C352.002 24.9293 351.853 25.5373 351.554 26.06C351.255 26.572 350.834 26.9667 350.29 27.244C349.757 27.5213 349.117 27.66 348.37 27.66C347.485 27.66 346.738 27.4253 346.13 26.956C345.522 26.4867 345.063 25.8467 344.754 25.036C344.445 24.2147 344.29 23.276 344.29 22.22C344.29 21.036 344.471 20.044 344.834 19.244C345.197 18.4333 345.687 17.82 346.306 17.404C346.935 16.988 347.639 16.78 348.418 16.78ZM348.354 22.044C347.895 22.044 347.49 22.14 347.138 22.332C346.797 22.5133 346.53 22.7693 346.338 23.1C346.146 23.42 346.05 23.7933 346.05 24.22C346.05 24.6253 346.151 24.9987 346.354 25.34C346.557 25.6707 346.829 25.9373 347.17 26.14C347.522 26.332 347.917 26.428 348.354 26.428C349.079 26.428 349.645 26.236 350.05 25.852C350.455 25.4573 350.658 24.9133 350.658 24.22C350.658 23.772 350.567 23.388 350.386 23.068C350.205 22.7373 349.943 22.4867 349.602 22.316C349.261 22.1347 348.845 22.044 348.354 22.044ZM357.624 27.66C356.686 27.66 355.854 27.4413 355.128 27.004C354.414 26.556 353.928 25.9427 353.672 25.164L354.952 24.508C355.08 24.9027 355.256 25.2493 355.48 25.548C355.704 25.836 355.998 26.06 356.36 26.22C356.734 26.38 357.198 26.46 357.752 26.46C358.222 26.46 358.616 26.3747 358.936 26.204C359.256 26.0333 359.502 25.804 359.672 25.516C359.843 25.2173 359.928 24.876 359.928 24.492C359.928 24.108 359.854 23.788 359.704 23.532C359.566 23.276 359.342 23.0893 359.032 22.972C358.723 22.844 358.318 22.78 357.816 22.78C357.699 22.78 357.571 22.7853 357.432 22.796C357.294 22.796 357.15 22.8067 357 22.828V21.548C357.096 21.5587 357.187 21.564 357.272 21.564C357.368 21.564 357.454 21.564 357.528 21.564C358.307 21.564 358.862 21.4147 359.192 21.116C359.523 20.8067 359.688 20.3267 359.688 19.676C359.688 19.1213 359.518 18.7 359.176 18.412C358.835 18.124 358.35 17.98 357.72 17.98C357.048 17.98 356.536 18.1293 356.184 18.428C355.832 18.716 355.555 19.1107 355.352 19.612L354.136 19.036C354.307 18.588 354.563 18.1933 354.904 17.852C355.246 17.5107 355.656 17.244 356.136 17.052C356.627 16.86 357.166 16.764 357.752 16.764C358.488 16.764 359.096 16.892 359.576 17.148C360.056 17.3933 360.414 17.724 360.648 18.14C360.894 18.556 361.016 19.0147 361.016 19.516C361.016 19.9 360.963 20.2467 360.856 20.556C360.75 20.8547 360.6 21.116 360.408 21.34C360.227 21.564 360.019 21.7453 359.784 21.884C359.55 22.012 359.299 22.0973 359.032 22.14V22.172C359.384 22.1827 359.694 22.252 359.96 22.38C360.238 22.508 360.472 22.6787 360.664 22.892C360.856 23.1053 361 23.3507 361.096 23.628C361.203 23.8947 361.256 24.1773 361.256 24.476C361.256 25.0947 361.102 25.644 360.792 26.124C360.494 26.604 360.072 26.9827 359.528 27.26C358.984 27.5267 358.35 27.66 357.624 27.66ZM366.953 27.66C366.014 27.66 365.182 27.4413 364.457 27.004C363.742 26.556 363.257 25.9427 363.001 25.164L364.281 24.508C364.409 24.9027 364.585 25.2493 364.809 25.548C365.033 25.836 365.326 26.06 365.689 26.22C366.062 26.38 366.526 26.46 367.081 26.46C367.55 26.46 367.945 26.3747 368.265 26.204C368.585 26.0333 368.83 25.804 369.001 25.516C369.171 25.2173 369.257 24.876 369.257 24.492C369.257 24.108 369.182 23.788 369.033 23.532C368.894 23.276 368.67 23.0893 368.361 22.972C368.051 22.844 367.646 22.78 367.145 22.78C367.027 22.78 366.899 22.7853 366.761 22.796C366.622 22.796 366.478 22.8067 366.329 22.828V21.548C366.425 21.5587 366.515 21.564 366.601 21.564C366.697 21.564 366.782 21.564 366.857 21.564C367.635 21.564 368.19 21.4147 368.521 21.116C368.851 20.8067 369.017 20.3267 369.017 19.676C369.017 19.1213 368.846 18.7 368.505 18.412C368.163 18.124 367.678 17.98 367.049 17.98C366.377 17.98 365.865 18.1293 365.513 18.428C365.161 18.716 364.883 19.1107 364.681 19.612L363.465 19.036C363.635 18.588 363.891 18.1933 364.233 17.852C364.574 17.5107 364.985 17.244 365.465 17.052C365.955 16.86 366.494 16.764 367.081 16.764C367.817 16.764 368.425 16.892 368.905 17.148C369.385 17.3933 369.742 17.724 369.977 18.14C370.222 18.556 370.345 19.0147 370.345 19.516C370.345 19.9 370.291 20.2467 370.185 20.556C370.078 20.8547 369.929 21.116 369.737 21.34C369.555 21.564 369.347 21.7453 369.113 21.884C368.878 22.012 368.627 22.0973 368.361 22.14V22.172C368.713 22.1827 369.022 22.252 369.289 22.38C369.566 22.508 369.801 22.6787 369.993 22.892C370.185 23.1053 370.329 23.3507 370.425 23.628C370.531 23.8947 370.585 24.1773 370.585 24.476C370.585 25.0947 370.43 25.644 370.121 26.124C369.822 26.604 369.401 26.9827 368.857 27.26C368.313 27.5267 367.678 27.66 366.953 27.66ZM374.969 27.5V19.756C374.969 19.5747 374.969 19.3827 374.969 19.18C374.979 18.9667 374.99 18.748 375.001 18.524C374.638 18.876 374.217 19.1853 373.737 19.452C373.257 19.708 372.766 19.8947 372.265 20.012L371.929 18.844C372.121 18.8227 372.361 18.7533 372.649 18.636C372.947 18.508 373.257 18.3533 373.577 18.172C373.907 17.98 374.211 17.7773 374.489 17.564C374.766 17.3507 374.979 17.1427 375.129 16.94H376.249V27.5H374.969ZM382.515 27.66C381.576 27.66 380.744 27.4413 380.019 27.004C379.304 26.556 378.819 25.9427 378.563 25.164L379.843 24.508C379.971 24.9027 380.147 25.2493 380.371 25.548C380.595 25.836 380.888 26.06 381.251 26.22C381.624 26.38 382.088 26.46 382.643 26.46C383.112 26.46 383.507 26.3747 383.827 26.204C384.147 26.0333 384.392 25.804 384.563 25.516C384.734 25.2173 384.819 24.876 384.819 24.492C384.819 24.108 384.744 23.788 384.595 23.532C384.456 23.276 384.232 23.0893 383.923 22.972C383.614 22.844 383.208 22.78 382.707 22.78C382.59 22.78 382.462 22.7853 382.323 22.796C382.184 22.796 382.04 22.8067 381.891 22.828V21.548C381.987 21.5587 382.078 21.564 382.163 21.564C382.259 21.564 382.344 21.564 382.419 21.564C383.198 21.564 383.752 21.4147 384.083 21.116C384.414 20.8067 384.579 20.3267 384.579 19.676C384.579 19.1213 384.408 18.7 384.067 18.412C383.726 18.124 383.24 17.98 382.611 17.98C381.939 17.98 381.427 18.1293 381.075 18.428C380.723 18.716 380.446 19.1107 380.243 19.612L379.027 19.036C379.198 18.588 379.454 18.1933 379.795 17.852C380.136 17.5107 380.547 17.244 381.027 17.052C381.518 16.86 382.056 16.764 382.643 16.764C383.379 16.764 383.987 16.892 384.467 17.148C384.947 17.3933 385.304 17.724 385.539 18.14C385.784 18.556 385.907 19.0147 385.907 19.516C385.907 19.9 385.854 20.2467 385.747 20.556C385.64 20.8547 385.491 21.116 385.299 21.34C385.118 21.564 384.91 21.7453 384.675 21.884C384.44 22.012 384.19 22.0973 383.923 22.14V22.172C384.275 22.1827 384.584 22.252 384.851 22.38C385.128 22.508 385.363 22.6787 385.555 22.892C385.747 23.1053 385.891 23.3507 385.987 23.628C386.094 23.8947 386.147 24.1773 386.147 24.476C386.147 25.0947 385.992 25.644 385.683 26.124C385.384 26.604 384.963 26.9827 384.419 27.26C383.875 27.5267 383.24 27.66 382.515 27.66Z" fill="#212121"/>
</svg>
