<svg width="116" height="116" viewBox="0 0 116 116" fill="none" xmlns="http://www.w3.org/2000/svg">
<path d="M31.4166 48.3333C30.3388 48.3333 29.3045 48.4977 28.275 48.6475C28.6085 47.5262 28.9516 46.3855 29.5026 45.3608C30.0536 43.8722 30.914 42.5817 31.7695 41.2815C32.4848 39.875 33.7463 38.9228 34.6743 37.7193C35.6458 36.5497 36.9701 35.7715 38.019 34.8C39.0485 33.785 40.397 33.2775 41.47 32.5622C42.5913 31.9193 43.5676 31.2088 44.6116 30.8705L47.2168 29.7975L49.5078 28.8453L47.1636 19.4783L44.2781 20.1743C43.355 20.4063 42.2288 20.677 40.948 21.0008C39.6381 21.2425 38.2413 21.9047 36.685 22.5088C35.148 23.1952 33.3693 23.6592 31.7163 24.7612C30.0536 25.8148 28.1348 26.6945 26.4431 28.1058C24.8046 29.5607 22.8278 30.8222 21.3681 32.6733C19.7731 34.4037 18.1975 36.221 16.9746 38.2897C15.5585 40.2617 14.5966 42.427 13.5816 44.5682C12.6633 46.7093 11.9238 48.8988 11.3196 51.0255C10.1741 55.2885 9.6618 59.3388 9.46364 62.8043C9.2993 66.2747 9.39597 69.1602 9.59897 71.2482C9.67147 72.2342 9.8068 73.1912 9.90347 73.8533L10.0243 74.6653L10.15 74.6363C11.0096 78.652 12.9886 82.3423 15.858 85.2802C18.7273 88.2181 22.3698 90.2837 26.3641 91.238C30.3583 92.1922 34.5411 91.9962 38.4286 90.6725C42.3161 89.3489 45.7494 86.9516 48.3314 83.7582C50.9134 80.5648 52.5385 76.7056 53.0188 72.6271C53.4991 68.5486 52.8149 64.4175 51.0454 60.7116C49.2759 57.0057 46.4934 53.8765 43.0198 51.686C39.5461 49.4954 35.5233 48.3331 31.4166 48.3333ZM84.5833 48.3333C83.5055 48.3333 82.4711 48.4977 81.4416 48.6475C81.7751 47.5262 82.1183 46.3855 82.6693 45.3608C83.2203 43.8722 84.0806 42.5817 84.9361 41.2815C85.6515 39.875 86.913 38.9228 87.841 37.7193C88.8125 36.5497 90.1368 35.7715 91.1856 34.8C92.2151 33.785 93.5636 33.2775 94.6366 32.5622C95.758 31.9193 96.7343 31.2088 97.7783 30.8705L100.383 29.7975L102.674 28.8453L100.33 19.4783L97.4448 20.1743C96.5216 20.4063 95.3955 20.677 94.1146 21.0008C92.8048 21.2425 91.408 21.9047 89.8516 22.5088C88.3195 23.2 86.536 23.6592 84.883 24.766C83.2203 25.8197 81.3015 26.6993 79.6098 28.1107C77.9713 29.5655 75.9945 30.827 74.5348 32.6733C72.9398 34.4037 71.3641 36.221 70.1413 38.2897C68.7251 40.2617 67.7633 42.427 66.7483 44.5682C65.83 46.7093 65.0905 48.8988 64.4863 51.0255C63.3408 55.2885 62.8285 59.3388 62.6303 62.8043C62.466 66.2747 62.5626 69.1602 62.7656 71.2482C62.8381 72.2342 62.9735 73.1912 63.0701 73.8533L63.191 74.6653L63.3166 74.6363C64.1763 78.652 66.1553 82.3423 69.0246 85.2802C71.894 88.2181 75.5365 90.2837 79.5307 91.238C83.525 92.1922 87.7078 91.9962 91.5953 90.6725C95.4828 89.3489 98.9161 86.9516 101.498 83.7582C104.08 80.5648 105.705 76.7056 106.185 72.6271C106.666 68.5486 105.982 64.4175 104.212 60.7116C102.443 57.0057 99.6601 53.8765 96.1864 51.686C92.7128 49.4954 88.69 48.3331 84.5833 48.3333Z" fill="#63B995"/>
</svg>
