<svg width="154" height="32" viewBox="0 0 154 32" fill="none" xmlns="http://www.w3.org/2000/svg">
<g clip-path="url(#clip0_821_1745)">
<path d="M19.25 12.5C19.25 13.8924 18.6969 15.2277 17.7123 16.2123C16.7277 17.1969 15.3924 17.75 14 17.75C12.6076 17.75 11.2723 17.1969 10.2877 16.2123C9.30312 15.2277 8.75 13.8924 8.75 12.5C8.75 11.1076 9.30312 9.77226 10.2877 8.78769C11.2723 7.80312 12.6076 7.25 14 7.25C15.3924 7.25 16.7277 7.80312 17.7123 8.78769C18.6969 9.77226 19.25 11.1076 19.25 12.5V12.5Z" fill="#AEAEAE"/>
<path fill-rule="evenodd" clip-rule="evenodd" d="M0 16C0 12.287 1.475 8.72601 4.10051 6.10051C6.72601 3.475 10.287 2 14 2C17.713 2 21.274 3.475 23.8995 6.10051C26.525 8.72601 28 12.287 28 16C28 19.713 26.525 23.274 23.8995 25.8995C21.274 28.525 17.713 30 14 30C10.287 30 6.72601 28.525 4.10051 25.8995C1.475 23.274 0 19.713 0 16V16ZM14 3.75C11.6931 3.75012 9.43314 4.40163 7.4802 5.62955C5.52727 6.85746 3.96074 8.61187 2.96094 10.6908C1.96113 12.7698 1.56868 15.0888 1.82875 17.381C2.08882 19.6732 2.99084 21.8454 4.431 23.6475C5.6735 21.6455 8.40875 19.5 14 19.5C19.5912 19.5 22.3248 21.6437 23.569 23.6475C25.0092 21.8454 25.9112 19.6732 26.1713 17.381C26.4313 15.0888 26.0389 12.7698 25.0391 10.6908C24.0393 8.61187 22.4727 6.85746 20.5198 5.62955C18.5669 4.40163 16.3069 3.75012 14 3.75V3.75Z" fill="#AEAEAE"/>
</g>
<path d="M44.398 12H42.929L42.11 9.751H38.509L37.69 12H36.26L39.497 3.42H41.161L44.398 12ZM38.899 8.62H41.72L40.316 4.616L38.899 8.62ZM48.0809 12.13C47.5435 12.13 47.0539 11.9957 46.6119 11.727C46.1785 11.4583 45.8362 11.0727 45.5849 10.57C45.3335 10.0673 45.2079 9.465 45.2079 8.763C45.2079 8.035 45.3422 7.41967 45.6109 6.917C45.8795 6.41433 46.2392 6.033 46.6899 5.773C47.1405 5.50433 47.6345 5.37 48.1719 5.37C48.7265 5.37 49.1945 5.52167 49.5759 5.825C49.9572 6.12833 50.2129 6.52267 50.3429 7.008L50.1869 7.151V2.575H51.5779V12H50.3429L50.2389 10.232L50.4209 10.245C50.3602 10.635 50.2172 10.973 49.9919 11.259C49.7665 11.5363 49.4849 11.753 49.1469 11.909C48.8175 12.0563 48.4622 12.13 48.0809 12.13ZM48.3799 11.012C48.7525 11.012 49.0732 10.9167 49.3419 10.726C49.6105 10.5353 49.8185 10.2667 49.9659 9.92C50.1132 9.57333 50.1869 9.15733 50.1869 8.672C50.1869 8.22133 50.1132 7.83567 49.9659 7.515C49.8185 7.18567 49.6105 6.93433 49.3419 6.761C49.0819 6.58767 48.7785 6.501 48.4319 6.501C47.8512 6.501 47.4005 6.70033 47.0799 7.099C46.7592 7.49767 46.5989 8.048 46.5989 8.75C46.5989 9.452 46.7549 10.0067 47.0669 10.414C47.3789 10.8127 47.8165 11.012 48.3799 11.012ZM53.7353 12V5.5H54.9703L55.0353 6.592C55.2606 6.176 55.5596 5.86833 55.9323 5.669C56.3136 5.46967 56.7166 5.37 57.1413 5.37C57.6093 5.37 58.0383 5.47833 58.4283 5.695C58.8269 5.903 59.1259 6.21933 59.3253 6.644C59.4639 6.358 59.6546 6.11967 59.8973 5.929C60.1399 5.73833 60.4086 5.59967 60.7033 5.513C60.9979 5.41767 61.2883 5.37 61.5743 5.37C61.9903 5.37 62.3803 5.45667 62.7443 5.63C63.1083 5.80333 63.4029 6.06767 63.6283 6.423C63.8536 6.77833 63.9663 7.23333 63.9663 7.788V12H62.5753V8.009C62.5753 7.48033 62.4496 7.099 62.1983 6.865C61.9469 6.631 61.6263 6.514 61.2363 6.514C60.9329 6.514 60.6513 6.58767 60.3913 6.735C60.1399 6.88233 59.9363 7.10333 59.7803 7.398C59.6243 7.684 59.5463 8.03933 59.5463 8.464V12H58.1553V8.009C58.1553 7.48033 58.0296 7.099 57.7783 6.865C57.5269 6.631 57.2063 6.514 56.8163 6.514C56.5563 6.514 56.2963 6.58333 56.0363 6.722C55.7763 6.86067 55.5596 7.07733 55.3863 7.372C55.2129 7.66667 55.1263 8.05667 55.1263 8.542V12H53.7353ZM66.7771 4.408C66.4738 4.408 66.2398 4.33433 66.0751 4.187C65.9191 4.031 65.8411 3.81433 65.8411 3.537C65.8411 3.25967 65.9191 3.04733 66.0751 2.9C66.2398 2.75267 66.4738 2.679 66.7771 2.679C67.0718 2.679 67.2971 2.75267 67.4531 2.9C67.6178 3.04733 67.7001 3.25967 67.7001 3.537C67.7001 3.81433 67.6178 4.031 67.4531 4.187C67.2971 4.33433 67.0718 4.408 66.7771 4.408ZM67.4661 5.5V12H66.0751V5.5H67.4661ZM69.6425 12V5.5H70.8775L70.9685 7.19L70.7865 7.008C70.9078 6.63533 71.0811 6.32767 71.3065 6.085C71.5405 5.83367 71.8135 5.65167 72.1255 5.539C72.4461 5.42633 72.7841 5.37 73.1395 5.37C73.5988 5.37 74.0105 5.461 74.3745 5.643C74.7471 5.81633 75.0418 6.08067 75.2585 6.436C75.4751 6.79133 75.5835 7.242 75.5835 7.788V12H74.1925V8.217C74.1925 7.57567 74.0581 7.13367 73.7895 6.891C73.5295 6.63967 73.2001 6.514 72.8015 6.514C72.5155 6.514 72.2381 6.58333 71.9695 6.722C71.7008 6.852 71.4755 7.06433 71.2935 7.359C71.1201 7.65367 71.0335 8.048 71.0335 8.542V12H69.6425Z" fill="#212121"/>
<path d="M39.77 28.13C39.0073 28.13 38.3313 27.9523 37.742 27.597C37.1613 27.233 36.767 26.7347 36.559 26.102L37.599 25.569C37.703 25.8897 37.846 26.1713 38.028 26.414C38.21 26.648 38.4483 26.83 38.743 26.96C39.0463 27.09 39.4233 27.155 39.874 27.155C40.2553 27.155 40.576 27.0857 40.836 26.947C41.096 26.8083 41.2953 26.622 41.434 26.388C41.5727 26.1453 41.642 25.868 41.642 25.556C41.642 25.244 41.5813 24.984 41.46 24.776C41.3473 24.568 41.1653 24.4163 40.914 24.321C40.6627 24.217 40.3333 24.165 39.926 24.165C39.8307 24.165 39.7267 24.1693 39.614 24.178C39.5013 24.178 39.3843 24.1867 39.263 24.204V23.164C39.341 23.1727 39.4147 23.177 39.484 23.177C39.562 23.177 39.6313 23.177 39.692 23.177C40.3247 23.177 40.7753 23.0557 41.044 22.813C41.3127 22.5617 41.447 22.1717 41.447 21.643C41.447 21.1923 41.3083 20.85 41.031 20.616C40.7537 20.382 40.3593 20.265 39.848 20.265C39.302 20.265 38.886 20.3863 38.6 20.629C38.314 20.863 38.0887 21.1837 37.924 21.591L36.936 21.123C37.0747 20.759 37.2827 20.4383 37.56 20.161C37.8373 19.8837 38.171 19.667 38.561 19.511C38.9597 19.355 39.3973 19.277 39.874 19.277C40.472 19.277 40.966 19.381 41.356 19.589C41.746 19.7883 42.0363 20.057 42.227 20.395C42.4263 20.733 42.526 21.1057 42.526 21.513C42.526 21.825 42.4827 22.1067 42.396 22.358C42.3093 22.6007 42.188 22.813 42.032 22.995C41.8847 23.177 41.7157 23.3243 41.525 23.437C41.3343 23.541 41.1307 23.6103 40.914 23.645V23.671C41.2 23.6797 41.4513 23.736 41.668 23.84C41.8933 23.944 42.084 24.0827 42.24 24.256C42.396 24.4293 42.513 24.6287 42.591 24.854C42.6777 25.0707 42.721 25.3003 42.721 25.543C42.721 26.0457 42.5953 26.492 42.344 26.882C42.1013 27.272 41.759 27.5797 41.317 27.805C40.875 28.0217 40.3593 28.13 39.77 28.13ZM47.6221 28.13C46.6514 28.13 45.8758 27.753 45.2951 26.999C44.7144 26.245 44.4241 25.1487 44.4241 23.71C44.4241 22.2713 44.7144 21.175 45.2951 20.421C45.8758 19.667 46.6514 19.29 47.6221 19.29C48.6014 19.29 49.3771 19.667 49.9491 20.421C50.5298 21.175 50.8201 22.2713 50.8201 23.71C50.8201 25.1487 50.5298 26.245 49.9491 26.999C49.3771 27.753 48.6014 28.13 47.6221 28.13ZM47.6221 27.194C48.0814 27.194 48.4671 27.064 48.7791 26.804C49.0998 26.5353 49.3381 26.141 49.4941 25.621C49.6588 25.101 49.7411 24.464 49.7411 23.71C49.7411 22.956 49.6588 22.319 49.4941 21.799C49.3381 21.279 49.0998 20.889 48.7791 20.629C48.4671 20.3603 48.0814 20.226 47.6221 20.226C47.1628 20.226 46.7728 20.3603 46.4521 20.629C46.1401 20.889 45.9018 21.279 45.7371 21.799C45.5811 22.319 45.5031 22.956 45.5031 23.71C45.5031 24.464 45.5811 25.101 45.7371 25.621C45.9018 26.141 46.1401 26.5353 46.4521 26.804C46.7728 27.064 47.1628 27.194 47.6221 27.194ZM64.2347 19.42V28H62.9477L59.3597 22.254L58.4497 20.642H58.4367L58.4887 21.942V28H57.5007V19.42H58.7877L62.3627 25.14L63.2857 26.791H63.2987L63.2467 25.478V19.42H64.2347ZM69.442 21.37C70.0573 21.37 70.599 21.5043 71.067 21.773C71.5437 22.0417 71.9163 22.4317 72.185 22.943C72.4537 23.4457 72.588 24.048 72.588 24.75C72.588 25.452 72.4537 26.0587 72.185 26.57C71.9163 27.0727 71.5437 27.4583 71.067 27.727C70.599 27.9957 70.0573 28.13 69.442 28.13C68.8353 28.13 68.2937 27.9957 67.817 27.727C67.3403 27.4583 66.9677 27.0727 66.699 26.57C66.4303 26.0587 66.296 25.452 66.296 24.75C66.296 24.048 66.4303 23.4457 66.699 22.943C66.9677 22.4317 67.3403 22.0417 67.817 21.773C68.2937 21.5043 68.8353 21.37 69.442 21.37ZM69.442 22.267C69 22.267 68.623 22.3667 68.311 22.566C67.999 22.7653 67.7563 23.0513 67.583 23.424C67.4183 23.788 67.336 24.23 67.336 24.75C67.336 25.2613 67.4183 25.7033 67.583 26.076C67.7563 26.4487 67.999 26.7347 68.311 26.934C68.623 27.1333 69 27.233 69.442 27.233C69.884 27.233 70.261 27.1333 70.573 26.934C70.885 26.7347 71.1233 26.4487 71.288 26.076C71.4613 25.7033 71.548 25.2613 71.548 24.75C71.548 24.23 71.4613 23.788 71.288 23.424C71.1233 23.0513 70.885 22.7653 70.573 22.566C70.261 22.3667 69.884 22.267 69.442 22.267ZM78.8489 21.5H79.9409L77.2369 28H76.1969L73.4929 21.5H74.6759L76.7299 26.947L78.8489 21.5ZM84.0168 28.13C83.4015 28.13 82.8512 27.9957 82.3658 27.727C81.8892 27.4583 81.5165 27.0727 81.2478 26.57C80.9792 26.0587 80.8448 25.452 80.8448 24.75C80.8448 24.048 80.9792 23.4457 81.2478 22.943C81.5165 22.4317 81.8848 22.0417 82.3528 21.773C82.8208 21.5043 83.3538 21.37 83.9518 21.37C84.5585 21.37 85.0742 21.5 85.4988 21.76C85.9322 22.02 86.2615 22.3753 86.4868 22.826C86.7122 23.268 86.8248 23.7663 86.8248 24.321C86.8248 24.4683 86.8205 24.6027 86.8118 24.724C86.8032 24.8453 86.7902 24.9537 86.7728 25.049H81.5208V24.126H86.3178L85.7848 24.23C85.7848 23.606 85.6115 23.125 85.2648 22.787C84.9268 22.449 84.4805 22.28 83.9258 22.28C83.5012 22.28 83.1328 22.3797 82.8208 22.579C82.5175 22.7697 82.2792 23.0513 82.1058 23.424C81.9412 23.788 81.8588 24.23 81.8588 24.75C81.8588 25.2613 81.9455 25.7033 82.1188 26.076C82.2922 26.4487 82.5348 26.7347 82.8468 26.934C83.1675 27.1247 83.5488 27.22 83.9908 27.22C84.4675 27.22 84.8532 27.129 85.1478 26.947C85.4512 26.765 85.6938 26.518 85.8758 26.206L86.6948 26.687C86.5302 26.9817 86.3178 27.2373 86.0578 27.454C85.8065 27.6707 85.5075 27.8397 85.1608 27.961C84.8228 28.0737 84.4415 28.13 84.0168 28.13ZM88.8028 28V21.5H89.7128L89.7778 22.514C90.0118 22.1153 90.3151 21.825 90.6878 21.643C91.0691 21.461 91.4591 21.37 91.8578 21.37C92.3171 21.37 92.7504 21.474 93.1578 21.682C93.5651 21.89 93.8771 22.2107 94.0938 22.644C94.2324 22.3493 94.4274 22.111 94.6788 21.929C94.9301 21.7383 95.2031 21.5997 95.4978 21.513C95.8011 21.4177 96.0871 21.37 96.3558 21.37C96.7718 21.37 97.1661 21.4567 97.5388 21.63C97.9201 21.8033 98.2321 22.072 98.4748 22.436C98.7174 22.8 98.8388 23.268 98.8388 23.84V28H97.7988V23.944C97.7988 23.3547 97.6514 22.93 97.3568 22.67C97.0621 22.41 96.6981 22.28 96.2648 22.28C95.9268 22.28 95.6104 22.3623 95.3158 22.527C95.0211 22.6917 94.7828 22.9343 94.6008 23.255C94.4274 23.5757 94.3408 23.97 94.3408 24.438V28H93.3008V23.944C93.3008 23.3547 93.1534 22.93 92.8588 22.67C92.5641 22.41 92.2001 22.28 91.7668 22.28C91.4808 22.28 91.1861 22.358 90.8828 22.514C90.5881 22.6613 90.3411 22.8997 90.1418 23.229C89.9424 23.5583 89.8428 23.9917 89.8428 24.529V28H88.8028ZM104.378 28.13C104.014 28.13 103.676 28.065 103.364 27.935C103.052 27.805 102.784 27.623 102.558 27.389C102.333 27.155 102.164 26.8907 102.051 26.596L102.194 26.414L102.103 28H101.193V18.51H102.233V22.969L102.103 22.774C102.277 22.3667 102.567 22.033 102.974 21.773C103.39 21.5043 103.863 21.37 104.391 21.37C104.929 21.37 105.423 21.5043 105.873 21.773C106.324 22.0417 106.684 22.4273 106.952 22.93C107.221 23.4327 107.355 24.0393 107.355 24.75C107.355 25.452 107.217 26.0587 106.939 26.57C106.671 27.0727 106.311 27.4583 105.86 27.727C105.41 27.9957 104.916 28.13 104.378 28.13ZM104.274 27.22C104.916 27.22 105.414 26.9947 105.769 26.544C106.133 26.0933 106.315 25.4953 106.315 24.75C106.315 24.0047 106.138 23.4067 105.782 22.956C105.427 22.5053 104.929 22.28 104.287 22.28C103.88 22.28 103.52 22.384 103.208 22.592C102.905 22.8 102.667 23.0903 102.493 23.463C102.32 23.8357 102.233 24.2733 102.233 24.776C102.233 25.27 102.316 25.7033 102.48 26.076C102.654 26.44 102.892 26.7217 103.195 26.921C103.507 27.1203 103.867 27.22 104.274 27.22ZM112.061 28.13C111.445 28.13 110.895 27.9957 110.41 27.727C109.933 27.4583 109.56 27.0727 109.292 26.57C109.023 26.0587 108.889 25.452 108.889 24.75C108.889 24.048 109.023 23.4457 109.292 22.943C109.56 22.4317 109.929 22.0417 110.397 21.773C110.865 21.5043 111.398 21.37 111.996 21.37C112.602 21.37 113.118 21.5 113.543 21.76C113.976 22.02 114.305 22.3753 114.531 22.826C114.756 23.268 114.869 23.7663 114.869 24.321C114.869 24.4683 114.864 24.6027 114.856 24.724C114.847 24.8453 114.834 24.9537 114.817 25.049H109.565V24.126H114.362L113.829 24.23C113.829 23.606 113.655 23.125 113.309 22.787C112.971 22.449 112.524 22.28 111.97 22.28C111.545 22.28 111.177 22.3797 110.865 22.579C110.561 22.7697 110.323 23.0513 110.15 23.424C109.985 23.788 109.903 24.23 109.903 24.75C109.903 25.2613 109.989 25.7033 110.163 26.076C110.336 26.4487 110.579 26.7347 110.891 26.934C111.211 27.1247 111.593 27.22 112.035 27.22C112.511 27.22 112.897 27.129 113.192 26.947C113.495 26.765 113.738 26.518 113.92 26.206L114.739 26.687C114.574 26.9817 114.362 27.2373 114.102 27.454C113.85 27.6707 113.551 27.8397 113.205 27.961C112.867 28.0737 112.485 28.13 112.061 28.13ZM116.847 28V21.5H117.692L117.835 22.566C118.017 22.1673 118.281 21.8683 118.628 21.669C118.983 21.4697 119.412 21.37 119.915 21.37C120.027 21.37 120.149 21.3787 120.279 21.396C120.417 21.4133 120.534 21.448 120.63 21.5L120.448 22.449C120.352 22.4143 120.248 22.3883 120.136 22.371C120.023 22.3537 119.863 22.345 119.655 22.345C119.386 22.345 119.113 22.423 118.836 22.579C118.567 22.735 118.342 22.9733 118.16 23.294C117.978 23.606 117.887 24.0047 117.887 24.49V28H116.847ZM126.032 28V27.155C126.89 26.5223 127.605 25.9677 128.177 25.491C128.758 25.0143 129.222 24.581 129.568 24.191C129.915 23.801 130.162 23.4327 130.309 23.086C130.457 22.7307 130.53 22.3623 130.53 21.981C130.53 21.4697 130.366 21.058 130.036 20.746C129.716 20.4253 129.274 20.265 128.71 20.265C128.121 20.265 127.649 20.46 127.293 20.85C126.938 21.2313 126.73 21.7427 126.669 22.384L125.759 21.838C125.837 21.3353 125.998 20.8933 126.24 20.512C126.492 20.1307 126.825 19.8317 127.241 19.615C127.666 19.3983 128.169 19.29 128.749 19.29C129.191 19.29 129.586 19.355 129.932 19.485C130.288 19.615 130.591 19.8013 130.842 20.044C131.094 20.278 131.284 20.5597 131.414 20.889C131.553 21.2183 131.622 21.5823 131.622 21.981C131.622 22.5183 131.492 23.047 131.232 23.567C130.972 24.0783 130.543 24.6157 129.945 25.179C129.347 25.7423 128.537 26.3663 127.514 27.051V27.064C127.61 27.0553 127.74 27.051 127.904 27.051C128.078 27.0423 128.247 27.038 128.411 27.038C128.585 27.0293 128.715 27.025 128.801 27.025H131.804V28H126.032ZM136.692 28.13C135.722 28.13 134.946 27.753 134.365 26.999C133.785 26.245 133.494 25.1487 133.494 23.71C133.494 22.2713 133.785 21.175 134.365 20.421C134.946 19.667 135.722 19.29 136.692 19.29C137.672 19.29 138.447 19.667 139.019 20.421C139.6 21.175 139.89 22.2713 139.89 23.71C139.89 25.1487 139.6 26.245 139.019 26.999C138.447 27.753 137.672 28.13 136.692 28.13ZM136.692 27.194C137.152 27.194 137.537 27.064 137.849 26.804C138.17 26.5353 138.408 26.141 138.564 25.621C138.729 25.101 138.811 24.464 138.811 23.71C138.811 22.956 138.729 22.319 138.564 21.799C138.408 21.279 138.17 20.889 137.849 20.629C137.537 20.3603 137.152 20.226 136.692 20.226C136.233 20.226 135.843 20.3603 135.522 20.629C135.21 20.889 134.972 21.279 134.807 21.799C134.651 22.319 134.573 22.956 134.573 23.71C134.573 24.464 134.651 25.101 134.807 25.621C134.972 26.141 135.21 26.5353 135.522 26.804C135.843 27.064 136.233 27.194 136.692 27.194ZM141.698 28V27.155C142.556 26.5223 143.271 25.9677 143.843 25.491C144.424 25.0143 144.888 24.581 145.234 24.191C145.581 23.801 145.828 23.4327 145.975 23.086C146.123 22.7307 146.196 22.3623 146.196 21.981C146.196 21.4697 146.032 21.058 145.702 20.746C145.382 20.4253 144.94 20.265 144.376 20.265C143.787 20.265 143.315 20.46 142.959 20.85C142.604 21.2313 142.396 21.7427 142.335 22.384L141.425 21.838C141.503 21.3353 141.664 20.8933 141.906 20.512C142.158 20.1307 142.491 19.8317 142.907 19.615C143.332 19.3983 143.835 19.29 144.415 19.29C144.857 19.29 145.252 19.355 145.598 19.485C145.954 19.615 146.257 19.8013 146.508 20.044C146.76 20.278 146.95 20.5597 147.08 20.889C147.219 21.2183 147.288 21.5823 147.288 21.981C147.288 22.5183 147.158 23.047 146.898 23.567C146.638 24.0783 146.209 24.6157 145.611 25.179C145.013 25.7423 144.203 26.3663 143.18 27.051V27.064C143.276 27.0553 143.406 27.051 143.57 27.051C143.744 27.0423 143.913 27.038 144.077 27.038C144.251 27.0293 144.381 27.025 144.467 27.025H147.47V28H141.698ZM151.019 28V21.708C151.019 21.5607 151.019 21.4047 151.019 21.24C151.028 21.0667 151.037 20.889 151.045 20.707C150.751 20.993 150.408 21.2443 150.018 21.461C149.628 21.669 149.23 21.8207 148.822 21.916L148.549 20.967C148.705 20.9497 148.9 20.8933 149.134 20.798C149.377 20.694 149.628 20.5683 149.888 20.421C150.157 20.265 150.404 20.1003 150.629 19.927C150.855 19.7537 151.028 19.5847 151.149 19.42H152.059V28H151.019Z" fill="#AEAEAE"/>
<defs>
<clipPath id="clip0_821_1745">
<rect width="28" height="28" fill="white" transform="translate(0 2)"/>
</clipPath>
</defs>
</svg>
