<svg width="105" height="29" viewBox="0 0 105 29" fill="none" xmlns="http://www.w3.org/2000/svg">
<g clip-path="url(#clip0_821_1745)">
<path d="M19.25 11C19.25 12.3924 18.6969 13.7277 17.7123 14.7123C16.7277 15.6969 15.3924 16.25 14 16.25C12.6076 16.25 11.2723 15.6969 10.2877 14.7123C9.30312 13.7277 8.75 12.3924 8.75 11C8.75 9.60761 9.30312 8.27226 10.2877 7.28769C11.2723 6.30312 12.6076 5.75 14 5.75C15.3924 5.75 16.7277 6.30312 17.7123 7.28769C18.6969 8.27226 19.25 9.60761 19.25 11Z" fill="#AEAEAE"/>
<path fill-rule="evenodd" clip-rule="evenodd" d="M0 14.5C0 10.787 1.475 7.22601 4.10051 4.60051C6.72601 1.975 10.287 0.5 14 0.5C17.713 0.5 21.274 1.975 23.8995 4.60051C26.525 7.22601 28 10.787 28 14.5C28 18.213 26.525 21.774 23.8995 24.3995C21.274 27.025 17.713 28.5 14 28.5C10.287 28.5 6.72601 27.025 4.10051 24.3995C1.475 21.774 0 18.213 0 14.5ZM14 2.25C11.6931 2.25012 9.43314 2.90163 7.4802 4.12955C5.52727 5.35746 3.96074 7.11187 2.96094 9.19084C1.96113 11.2698 1.56868 13.5888 1.82875 15.881C2.08882 18.1732 2.99084 20.3454 4.431 22.1475C5.6735 20.1455 8.40875 18 14 18C19.5912 18 22.3248 20.1437 23.569 22.1475C25.0092 20.3454 25.9112 18.1732 26.1713 15.881C26.4313 13.5888 26.0389 11.2698 25.0391 9.19084C24.0393 7.11187 22.4727 5.35746 20.5198 4.12955C18.5669 2.90163 16.3069 2.25012 14 2.25Z" fill="#AEAEAE"/>
</g>
<path d="M44.398 12H42.929L42.11 9.751H38.509L37.69 12H36.26L39.497 3.42H41.161L44.398 12ZM38.899 8.62H41.72L40.316 4.616L38.899 8.62ZM48.0809 12.13C47.5435 12.13 47.0539 11.9957 46.6119 11.727C46.1785 11.4583 45.8362 11.0727 45.5849 10.57C45.3335 10.0673 45.2079 9.465 45.2079 8.763C45.2079 8.035 45.3422 7.41967 45.6109 6.917C45.8795 6.41433 46.2392 6.033 46.6899 5.773C47.1405 5.50433 47.6345 5.37 48.1719 5.37C48.7265 5.37 49.1945 5.52167 49.5759 5.825C49.9572 6.12833 50.2129 6.52267 50.3429 7.008L50.1869 7.151V2.575H51.5779V12H50.3429L50.2389 10.232L50.4209 10.245C50.3602 10.635 50.2172 10.973 49.9919 11.259C49.7665 11.5363 49.4849 11.753 49.1469 11.909C48.8175 12.0563 48.4622 12.13 48.0809 12.13ZM48.3799 11.012C48.7525 11.012 49.0732 10.9167 49.3419 10.726C49.6105 10.5353 49.8185 10.2667 49.9659 9.92C50.1132 9.57333 50.1869 9.15733 50.1869 8.672C50.1869 8.22133 50.1132 7.83567 49.9659 7.515C49.8185 7.18567 49.6105 6.93433 49.3419 6.761C49.0819 6.58767 48.7785 6.501 48.4319 6.501C47.8512 6.501 47.4005 6.70033 47.0799 7.099C46.7592 7.49767 46.5989 8.048 46.5989 8.75C46.5989 9.452 46.7549 10.0067 47.0669 10.414C47.3789 10.8127 47.8165 11.012 48.3799 11.012ZM53.7353 12V5.5H54.9703L55.0353 6.592C55.2606 6.176 55.5596 5.86833 55.9323 5.669C56.3136 5.46967 56.7166 5.37 57.1413 5.37C57.6093 5.37 58.0383 5.47833 58.4283 5.695C58.8269 5.903 59.1259 6.21933 59.3253 6.644C59.4639 6.358 59.6546 6.11967 59.8973 5.929C60.1399 5.73833 60.4086 5.59967 60.7033 5.513C60.9979 5.41767 61.2883 5.37 61.5743 5.37C61.9903 5.37 62.3803 5.45667 62.7443 5.63C63.1083 5.80333 63.4029 6.06767 63.6283 6.423C63.8536 6.77833 63.9663 7.23333 63.9663 7.788V12H62.5753V8.009C62.5753 7.48033 62.4496 7.099 62.1983 6.865C61.9469 6.631 61.6263 6.514 61.2363 6.514C60.9329 6.514 60.6513 6.58767 60.3913 6.735C60.1399 6.88233 59.9363 7.10333 59.7803 7.398C59.6243 7.684 59.5463 8.03933 59.5463 8.464V12H58.1553V8.009C58.1553 7.48033 58.0296 7.099 57.7783 6.865C57.5269 6.631 57.2063 6.514 56.8163 6.514C56.5563 6.514 56.2963 6.58333 56.0363 6.722C55.7763 6.86067 55.5596 7.07733 55.3863 7.372C55.2129 7.66667 55.1263 8.05667 55.1263 8.542V12H53.7353ZM66.7771 4.408C66.4738 4.408 66.2398 4.33433 66.0751 4.187C65.9191 4.031 65.8411 3.81433 65.8411 3.537C65.8411 3.25967 65.9191 3.04733 66.0751 2.9C66.2398 2.75267 66.4738 2.679 66.7771 2.679C67.0718 2.679 67.2971 2.75267 67.4531 2.9C67.6178 3.04733 67.7001 3.25967 67.7001 3.537C67.7001 3.81433 67.6178 4.031 67.4531 4.187C67.2971 4.33433 67.0718 4.408 66.7771 4.408ZM67.4661 5.5V12H66.0751V5.5H67.4661ZM69.6425 12V5.5H70.8775L70.9685 7.19L70.7865 7.008C70.9078 6.63533 71.0811 6.32767 71.3065 6.085C71.5405 5.83367 71.8135 5.65167 72.1255 5.539C72.4461 5.42633 72.7841 5.37 73.1395 5.37C73.5988 5.37 74.0105 5.461 74.3745 5.643C74.7471 5.81633 75.0418 6.08067 75.2585 6.436C75.4751 6.79133 75.5835 7.242 75.5835 7.788V12H74.1925V8.217C74.1925 7.57567 74.0581 7.13367 73.7895 6.891C73.5295 6.63967 73.2001 6.514 72.8015 6.514C72.5155 6.514 72.2381 6.58333 71.9695 6.722C71.7008 6.852 71.4755 7.06433 71.2935 7.359C71.1201 7.65367 71.0335 8.048 71.0335 8.542V12H69.6425Z" fill="#212121"/>
<path d="M38.288 26V20.676C38.288 20.5513 38.288 20.4193 38.288 20.28C38.2953 20.1333 38.3027 19.983 38.31 19.829C38.0607 20.071 37.771 20.2837 37.441 20.467C37.111 20.643 36.7737 20.7713 36.429 20.852L36.198 20.049C36.33 20.0343 36.495 19.9867 36.693 19.906C36.8983 19.818 37.111 19.7117 37.331 19.587C37.5583 19.455 37.7673 19.3157 37.958 19.169C38.1487 19.0223 38.2953 18.8793 38.398 18.74H39.168V26H38.288ZM43.5531 18.63C44.1618 18.63 44.6751 18.7913 45.0931 19.114C45.5111 19.4293 45.8265 19.8693 46.0391 20.434C46.2518 20.9913 46.3581 21.6367 46.3581 22.37C46.3581 23.184 46.2518 23.8697 46.0391 24.427C45.8265 24.977 45.5111 25.395 45.0931 25.681C44.6825 25.967 44.1728 26.11 43.5641 26.11C42.9628 26.11 42.4458 25.9707 42.0131 25.692C41.5805 25.4133 41.2578 25.0063 41.0451 24.471L41.9141 24.009C42.0315 24.3903 42.2221 24.6983 42.4861 24.933C42.7575 25.1677 43.1278 25.285 43.5971 25.285C43.9785 25.285 44.2938 25.2117 44.5431 25.065C44.7998 24.911 45.0015 24.6947 45.1481 24.416C45.2948 24.13 45.3975 23.789 45.4561 23.393C45.5221 22.997 45.5551 22.557 45.5551 22.073C45.5551 22.0583 45.5551 22.0437 45.5551 22.029C45.5551 22.007 45.5551 21.9887 45.5551 21.974H45.5111C45.4231 22.304 45.2691 22.5717 45.0491 22.777C44.8291 22.975 44.5798 23.118 44.3011 23.206C44.0298 23.294 43.7585 23.338 43.4871 23.338C43.0105 23.338 42.5888 23.2463 42.2221 23.063C41.8555 22.8723 41.5695 22.6083 41.3641 22.271C41.1588 21.9337 41.0561 21.534 41.0561 21.072C41.0561 20.5733 41.1551 20.1443 41.3531 19.785C41.5511 19.4183 41.8371 19.136 42.2111 18.938C42.5851 18.7327 43.0325 18.63 43.5531 18.63ZM43.5641 19.477C43.0508 19.477 42.6585 19.62 42.3871 19.906C42.1158 20.1847 41.9801 20.577 41.9801 21.083C41.9801 21.5157 42.1231 21.8603 42.4091 22.117C42.6951 22.3663 43.0801 22.491 43.5641 22.491C43.8795 22.491 44.1545 22.4287 44.3891 22.304C44.6311 22.172 44.8181 21.996 44.9501 21.776C45.0821 21.5487 45.1481 21.2883 45.1481 20.995C45.1481 20.687 45.0821 20.4193 44.9501 20.192C44.8181 19.9647 44.6311 19.7887 44.3891 19.664C44.1545 19.5393 43.8795 19.477 43.5641 19.477ZM57.3578 26H56.4228L55.6528 23.987H52.3638L51.5938 26H50.6698L53.4968 18.74H54.5418L57.3578 26ZM52.6828 23.162H55.3338L54.0028 19.587L52.6828 23.162ZM58.6685 28.31V20.5H59.4385L59.5155 21.842L59.3945 21.688C59.4898 21.4313 59.6328 21.2077 59.8235 21.017C60.0142 20.819 60.2452 20.665 60.5165 20.555C60.7878 20.445 61.0812 20.39 61.3965 20.39C61.8438 20.39 62.2545 20.5037 62.6285 20.731C63.0098 20.9583 63.3142 21.2847 63.5415 21.71C63.7688 22.1353 63.8825 22.6487 63.8825 23.25C63.8825 23.844 63.7652 24.3573 63.5305 24.79C63.3032 25.2153 62.9988 25.5417 62.6175 25.769C62.2362 25.9963 61.8182 26.11 61.3635 26.11C60.9088 26.11 60.5092 26 60.1645 25.78C59.8272 25.5527 59.5852 25.2667 59.4385 24.922L59.5485 24.757V28.31H58.6685ZM61.2755 25.34C61.8182 25.34 62.2398 25.1493 62.5405 24.768C62.8485 24.3867 63.0025 23.8807 63.0025 23.25C63.0025 22.6193 62.8522 22.1133 62.5515 21.732C62.2582 21.3507 61.8438 21.16 61.3085 21.16C60.9565 21.16 60.6485 21.248 60.3845 21.424C60.1205 21.5927 59.9152 21.8347 59.7685 22.15C59.6218 22.458 59.5485 22.8247 59.5485 23.25C59.5485 23.668 59.6182 24.0347 59.7575 24.35C59.9042 24.6653 60.1058 24.911 60.3625 25.087C60.6265 25.2557 60.9308 25.34 61.2755 25.34ZM65.565 26V20.5H66.28L66.401 21.402C66.555 21.0647 66.7787 20.8117 67.072 20.643C67.3727 20.4743 67.7357 20.39 68.161 20.39C68.2563 20.39 68.359 20.3973 68.469 20.412C68.5863 20.4267 68.6853 20.456 68.766 20.5L68.612 21.303C68.5313 21.2737 68.4433 21.2517 68.348 21.237C68.2527 21.2223 68.117 21.215 67.941 21.215C67.7137 21.215 67.4827 21.281 67.248 21.413C67.0207 21.545 66.83 21.7467 66.676 22.018C66.522 22.282 66.445 22.6193 66.445 23.03V26H65.565ZM70.4952 19.444C70.2972 19.444 70.1359 19.3853 70.0112 19.268C69.8939 19.1433 69.8352 18.982 69.8352 18.784C69.8352 18.586 69.8939 18.4283 70.0112 18.311C70.1359 18.1863 70.2972 18.124 70.4952 18.124C70.6932 18.124 70.8509 18.1863 70.9682 18.311C71.0929 18.4283 71.1552 18.586 71.1552 18.784C71.1552 18.982 71.0929 19.1433 70.9682 19.268C70.8509 19.3853 70.6932 19.444 70.4952 19.444ZM70.9352 20.5V26H70.0552V20.5H70.9352ZM73.8131 17.97V24.603C73.8131 24.8817 73.8644 25.076 73.9671 25.186C74.0698 25.2887 74.2348 25.34 74.4621 25.34C74.6088 25.34 74.7298 25.329 74.8251 25.307C74.9204 25.285 75.0488 25.2447 75.2101 25.186L75.0671 25.956C74.9498 26.0073 74.8214 26.044 74.6821 26.066C74.5428 26.0953 74.3998 26.11 74.2531 26.11C73.8058 26.11 73.4721 25.989 73.2521 25.747C73.0394 25.505 72.9331 25.1347 72.9331 24.636V17.97H73.8131ZM79.4927 26V25.285C80.2187 24.7497 80.8237 24.2803 81.3077 23.877C81.799 23.4737 82.1914 23.107 82.4847 22.777C82.778 22.447 82.987 22.1353 83.1117 21.842C83.2364 21.5413 83.2987 21.2297 83.2987 20.907C83.2987 20.4743 83.1594 20.126 82.8807 19.862C82.6094 19.5907 82.2354 19.455 81.7587 19.455C81.26 19.455 80.8604 19.62 80.5597 19.95C80.259 20.2727 80.083 20.7053 80.0317 21.248L79.2617 20.786C79.3277 20.3607 79.4634 19.9867 79.6687 19.664C79.8814 19.3413 80.1637 19.0883 80.5157 18.905C80.875 18.7217 81.3004 18.63 81.7917 18.63C82.1657 18.63 82.4994 18.685 82.7927 18.795C83.0934 18.905 83.35 19.0627 83.5627 19.268C83.7754 19.466 83.9367 19.7043 84.0467 19.983C84.164 20.2617 84.2227 20.5697 84.2227 20.907C84.2227 21.3617 84.1127 21.809 83.8927 22.249C83.6727 22.6817 83.3097 23.1363 82.8037 23.613C82.2977 24.0897 81.612 24.6177 80.7467 25.197V25.208C80.8274 25.2007 80.9374 25.197 81.0767 25.197C81.2234 25.1897 81.3664 25.186 81.5057 25.186C81.6524 25.1787 81.7624 25.175 81.8357 25.175H84.3767V26H79.4927ZM88.5128 26.11C87.6915 26.11 87.0351 25.791 86.5438 25.153C86.0525 24.515 85.8068 23.5873 85.8068 22.37C85.8068 21.1527 86.0525 20.225 86.5438 19.587C87.0351 18.949 87.6915 18.63 88.5128 18.63C89.3415 18.63 89.9978 18.949 90.4818 19.587C90.9731 20.225 91.2188 21.1527 91.2188 22.37C91.2188 23.5873 90.9731 24.515 90.4818 25.153C89.9978 25.791 89.3415 26.11 88.5128 26.11ZM88.5128 25.318C88.9015 25.318 89.2278 25.208 89.4918 24.988C89.7631 24.7607 89.9648 24.427 90.0968 23.987C90.2361 23.547 90.3058 23.008 90.3058 22.37C90.3058 21.732 90.2361 21.193 90.0968 20.753C89.9648 20.313 89.7631 19.983 89.4918 19.763C89.2278 19.5357 88.9015 19.422 88.5128 19.422C88.1241 19.422 87.7941 19.5357 87.5228 19.763C87.2588 19.983 87.0571 20.313 86.9178 20.753C86.7858 21.193 86.7198 21.732 86.7198 22.37C86.7198 23.008 86.7858 23.547 86.9178 23.987C87.0571 24.427 87.2588 24.7607 87.5228 24.988C87.7941 25.208 88.1241 25.318 88.5128 25.318ZM92.7486 26V25.285C93.4746 24.7497 94.0796 24.2803 94.5636 23.877C95.0549 23.4737 95.4472 23.107 95.7406 22.777C96.0339 22.447 96.2429 22.1353 96.3676 21.842C96.4922 21.5413 96.5546 21.2297 96.5546 20.907C96.5546 20.4743 96.4152 20.126 96.1366 19.862C95.8652 19.5907 95.4912 19.455 95.0146 19.455C94.5159 19.455 94.1162 19.62 93.8156 19.95C93.5149 20.2727 93.3389 20.7053 93.2876 21.248L92.5176 20.786C92.5836 20.3607 92.7192 19.9867 92.9246 19.664C93.1372 19.3413 93.4196 19.0883 93.7716 18.905C94.1309 18.7217 94.5562 18.63 95.0476 18.63C95.4216 18.63 95.7552 18.685 96.0486 18.795C96.3492 18.905 96.6059 19.0627 96.8186 19.268C97.0312 19.466 97.1926 19.7043 97.3026 19.983C97.4199 20.2617 97.4786 20.5697 97.4786 20.907C97.4786 21.3617 97.3686 21.809 97.1486 22.249C96.9286 22.6817 96.5656 23.1363 96.0596 23.613C95.5536 24.0897 94.8679 24.6177 94.0026 25.197V25.208C94.0832 25.2007 94.1932 25.197 94.3326 25.197C94.4792 25.1897 94.6222 25.186 94.7616 25.186C94.9082 25.1787 95.0182 25.175 95.0916 25.175H97.6326V26H92.7486ZM99.1617 26V25.285C99.8877 24.7497 100.493 24.2803 100.977 23.877C101.468 23.4737 101.86 23.107 102.154 22.777C102.447 22.447 102.656 22.1353 102.781 21.842C102.905 21.5413 102.968 21.2297 102.968 20.907C102.968 20.4743 102.828 20.126 102.55 19.862C102.278 19.5907 101.904 19.455 101.428 19.455C100.929 19.455 100.529 19.62 100.229 19.95C99.928 20.2727 99.752 20.7053 99.7007 21.248L98.9307 20.786C98.9967 20.3607 99.1323 19.9867 99.3377 19.664C99.5503 19.3413 99.8327 19.0883 100.185 18.905C100.544 18.7217 100.969 18.63 101.461 18.63C101.835 18.63 102.168 18.685 102.462 18.795C102.762 18.905 103.019 19.0627 103.232 19.268C103.444 19.466 103.606 19.7043 103.716 19.983C103.833 20.2617 103.892 20.5697 103.892 20.907C103.892 21.3617 103.782 21.809 103.562 22.249C103.342 22.6817 102.979 23.1363 102.473 23.613C101.967 24.0897 101.281 24.6177 100.416 25.197V25.208C100.496 25.2007 100.606 25.197 100.746 25.197C100.892 25.1897 101.035 25.186 101.175 25.186C101.321 25.1787 101.431 25.175 101.505 25.175H104.046V26H99.1617Z" fill="#AEAEAE"/>
<defs>
<clipPath id="clip0_821_1745">
<rect width="28" height="28" fill="white" transform="translate(0 0.5)"/>
</clipPath>
</defs>
</svg>
