<svg width="121" height="29" viewBox="0 0 121 29" fill="none" xmlns="http://www.w3.org/2000/svg">
<g clip-path="url(#clip0_821_1745)">
<path d="M19.25 11C19.25 12.3924 18.6969 13.7277 17.7123 14.7123C16.7277 15.6969 15.3924 16.25 14 16.25C12.6076 16.25 11.2723 15.6969 10.2877 14.7123C9.30312 13.7277 8.75 12.3924 8.75 11C8.75 9.60761 9.30312 8.27226 10.2877 7.28769C11.2723 6.30312 12.6076 5.75 14 5.75C15.3924 5.75 16.7277 6.30312 17.7123 7.28769C18.6969 8.27226 19.25 9.60761 19.25 11V11Z" fill="#AEAEAE"/>
<path fill-rule="evenodd" clip-rule="evenodd" d="M0 14.5C0 10.787 1.475 7.22601 4.10051 4.60051C6.72601 1.975 10.287 0.5 14 0.5C17.713 0.5 21.274 1.975 23.8995 4.60051C26.525 7.22601 28 10.787 28 14.5C28 18.213 26.525 21.774 23.8995 24.3995C21.274 27.025 17.713 28.5 14 28.5C10.287 28.5 6.72601 27.025 4.10051 24.3995C1.475 21.774 0 18.213 0 14.5V14.5ZM14 2.25C11.6931 2.25012 9.43314 2.90163 7.4802 4.12955C5.52727 5.35746 3.96074 7.11187 2.96094 9.19084C1.96113 11.2698 1.56868 13.5888 1.82875 15.881C2.08882 18.1732 2.99084 20.3454 4.431 22.1475C5.6735 20.1455 8.40875 18 14 18C19.5912 18 22.3248 20.1437 23.569 22.1475C25.0092 20.3454 25.9112 18.1732 26.1713 15.881C26.4313 13.5888 26.0389 11.2698 25.0391 9.19084C24.0393 7.11187 22.4727 5.35746 20.5198 4.12955C18.5669 2.90163 16.3069 2.25012 14 2.25V2.25Z" fill="#AEAEAE"/>
</g>
<path d="M44.398 12H42.929L42.11 9.751H38.509L37.69 12H36.26L39.497 3.42H41.161L44.398 12ZM38.899 8.62H41.72L40.316 4.616L38.899 8.62ZM48.0809 12.13C47.5435 12.13 47.0539 11.9957 46.6119 11.727C46.1785 11.4583 45.8362 11.0727 45.5849 10.57C45.3335 10.0673 45.2079 9.465 45.2079 8.763C45.2079 8.035 45.3422 7.41967 45.6109 6.917C45.8795 6.41433 46.2392 6.033 46.6899 5.773C47.1405 5.50433 47.6345 5.37 48.1719 5.37C48.7265 5.37 49.1945 5.52167 49.5759 5.825C49.9572 6.12833 50.2129 6.52267 50.3429 7.008L50.1869 7.151V2.575H51.5779V12H50.3429L50.2389 10.232L50.4209 10.245C50.3602 10.635 50.2172 10.973 49.9919 11.259C49.7665 11.5363 49.4849 11.753 49.1469 11.909C48.8175 12.0563 48.4622 12.13 48.0809 12.13ZM48.3799 11.012C48.7525 11.012 49.0732 10.9167 49.3419 10.726C49.6105 10.5353 49.8185 10.2667 49.9659 9.92C50.1132 9.57333 50.1869 9.15733 50.1869 8.672C50.1869 8.22133 50.1132 7.83567 49.9659 7.515C49.8185 7.18567 49.6105 6.93433 49.3419 6.761C49.0819 6.58767 48.7785 6.501 48.4319 6.501C47.8512 6.501 47.4005 6.70033 47.0799 7.099C46.7592 7.49767 46.5989 8.048 46.5989 8.75C46.5989 9.452 46.7549 10.0067 47.0669 10.414C47.3789 10.8127 47.8165 11.012 48.3799 11.012ZM53.7353 12V5.5H54.9703L55.0353 6.592C55.2606 6.176 55.5596 5.86833 55.9323 5.669C56.3136 5.46967 56.7166 5.37 57.1413 5.37C57.6093 5.37 58.0383 5.47833 58.4283 5.695C58.8269 5.903 59.1259 6.21933 59.3253 6.644C59.4639 6.358 59.6546 6.11967 59.8973 5.929C60.1399 5.73833 60.4086 5.59967 60.7033 5.513C60.9979 5.41767 61.2883 5.37 61.5743 5.37C61.9903 5.37 62.3803 5.45667 62.7443 5.63C63.1083 5.80333 63.4029 6.06767 63.6283 6.423C63.8536 6.77833 63.9663 7.23333 63.9663 7.788V12H62.5753V8.009C62.5753 7.48033 62.4496 7.099 62.1983 6.865C61.9469 6.631 61.6263 6.514 61.2363 6.514C60.9329 6.514 60.6513 6.58767 60.3913 6.735C60.1399 6.88233 59.9363 7.10333 59.7803 7.398C59.6243 7.684 59.5463 8.03933 59.5463 8.464V12H58.1553V8.009C58.1553 7.48033 58.0296 7.099 57.7783 6.865C57.5269 6.631 57.2063 6.514 56.8163 6.514C56.5563 6.514 56.2963 6.58333 56.0363 6.722C55.7763 6.86067 55.5596 7.07733 55.3863 7.372C55.2129 7.66667 55.1263 8.05667 55.1263 8.542V12H53.7353ZM66.7771 4.408C66.4738 4.408 66.2398 4.33433 66.0751 4.187C65.9191 4.031 65.8411 3.81433 65.8411 3.537C65.8411 3.25967 65.9191 3.04733 66.0751 2.9C66.2398 2.75267 66.4738 2.679 66.7771 2.679C67.0718 2.679 67.2971 2.75267 67.4531 2.9C67.6178 3.04733 67.7001 3.25967 67.7001 3.537C67.7001 3.81433 67.6178 4.031 67.4531 4.187C67.2971 4.33433 67.0718 4.408 66.7771 4.408ZM67.4661 5.5V12H66.0751V5.5H67.4661ZM69.6425 12V5.5H70.8775L70.9685 7.19L70.7865 7.008C70.9078 6.63533 71.0811 6.32767 71.3065 6.085C71.5405 5.83367 71.8135 5.65167 72.1255 5.539C72.4461 5.42633 72.7841 5.37 73.1395 5.37C73.5988 5.37 74.0105 5.461 74.3745 5.643C74.7471 5.81633 75.0418 6.08067 75.2585 6.436C75.4751 6.79133 75.5835 7.242 75.5835 7.788V12H74.1925V8.217C74.1925 7.57567 74.0581 7.13367 73.7895 6.891C73.5295 6.63967 73.2001 6.514 72.8015 6.514C72.5155 6.514 72.2381 6.58333 71.9695 6.722C71.7008 6.852 71.4755 7.06433 71.2935 7.359C71.1201 7.65367 71.0335 8.048 71.0335 8.542V12H69.6425Z" fill="#212121"/>
<path d="M38.288 26V20.676C38.288 20.5513 38.288 20.4193 38.288 20.28C38.2953 20.1333 38.3027 19.983 38.31 19.829C38.0607 20.071 37.771 20.2837 37.441 20.467C37.111 20.643 36.7737 20.7713 36.429 20.852L36.198 20.049C36.33 20.0343 36.495 19.9867 36.693 19.906C36.8983 19.818 37.111 19.7117 37.331 19.587C37.5583 19.455 37.7673 19.3157 37.958 19.169C38.1487 19.0223 38.2953 18.8793 38.398 18.74H39.168V26H38.288ZM43.4761 26.11C42.8308 26.11 42.2588 25.9597 41.7601 25.659C41.2688 25.351 40.9351 24.9293 40.7591 24.394L41.6391 23.943C41.7271 24.2143 41.8481 24.4527 42.0021 24.658C42.1561 24.856 42.3578 25.01 42.6071 25.12C42.8638 25.23 43.1828 25.285 43.5641 25.285C43.8868 25.285 44.1581 25.2263 44.3781 25.109C44.5981 24.9917 44.7668 24.834 44.8841 24.636C45.0015 24.4307 45.0601 24.196 45.0601 23.932C45.0601 23.668 45.0088 23.448 44.9061 23.272C44.8108 23.096 44.6568 22.9677 44.4441 22.887C44.2315 22.799 43.9528 22.755 43.6081 22.755C43.5275 22.755 43.4395 22.7587 43.3441 22.766C43.2488 22.766 43.1498 22.7733 43.0471 22.788V21.908C43.1131 21.9153 43.1755 21.919 43.2341 21.919C43.3001 21.919 43.3588 21.919 43.4101 21.919C43.9455 21.919 44.3268 21.8163 44.5541 21.611C44.7815 21.3983 44.8951 21.0683 44.8951 20.621C44.8951 20.2397 44.7778 19.95 44.5431 19.752C44.3085 19.554 43.9748 19.455 43.5421 19.455C43.0801 19.455 42.7281 19.5577 42.4861 19.763C42.2441 19.961 42.0535 20.2323 41.9141 20.577L41.0781 20.181C41.1955 19.873 41.3715 19.6017 41.6061 19.367C41.8408 19.1323 42.1231 18.949 42.4531 18.817C42.7905 18.685 43.1608 18.619 43.5641 18.619C44.0701 18.619 44.4881 18.707 44.8181 18.883C45.1481 19.0517 45.3938 19.279 45.5551 19.565C45.7238 19.851 45.8081 20.1663 45.8081 20.511C45.8081 20.775 45.7715 21.0133 45.6981 21.226C45.6248 21.4313 45.5221 21.611 45.3901 21.765C45.2655 21.919 45.1225 22.0437 44.9611 22.139C44.7998 22.227 44.6275 22.2857 44.4441 22.315V22.337C44.6861 22.3443 44.8988 22.392 45.0821 22.48C45.2728 22.568 45.4341 22.6853 45.5661 22.832C45.6981 22.9787 45.7971 23.1473 45.8631 23.338C45.9365 23.5213 45.9731 23.7157 45.9731 23.921C45.9731 24.3463 45.8668 24.724 45.6541 25.054C45.4488 25.384 45.1591 25.6443 44.7851 25.835C44.4111 26.0183 43.9748 26.11 43.4761 26.11ZM56.9818 26H56.0468L55.2768 23.987H51.9878L51.2178 26H50.2938L53.1208 18.74H54.1658L56.9818 26ZM52.3068 23.162H54.9578L53.6268 19.587L52.3068 23.162ZM62.9235 19.488L63.1215 20.269C63.1142 20.269 63.1032 20.269 63.0885 20.269C63.0739 20.269 63.0592 20.269 63.0445 20.269C62.6852 20.269 62.4065 20.3423 62.2085 20.489C62.0179 20.6283 61.9225 20.8557 61.9225 21.171L61.3835 20.896C61.3835 20.61 61.4495 20.3607 61.5815 20.148C61.7135 19.9353 61.8932 19.774 62.1205 19.664C62.3479 19.5467 62.5972 19.488 62.8685 19.488C62.8759 19.488 62.8832 19.488 62.8905 19.488C62.9052 19.488 62.9162 19.488 62.9235 19.488ZM61.2515 25.296C61.7722 25.296 62.1792 25.417 62.4725 25.659C62.7659 25.8937 62.9125 26.209 62.9125 26.605C62.9125 26.9643 62.7915 27.276 62.5495 27.54C62.3149 27.804 61.9959 28.0057 61.5925 28.145C61.1965 28.2917 60.7492 28.365 60.2505 28.365C59.3852 28.365 58.7362 28.2183 58.3035 27.925C57.8782 27.6317 57.6655 27.2797 57.6655 26.869C57.6655 26.5757 57.7609 26.3117 57.9515 26.077C58.1495 25.8497 58.4795 25.7213 58.9415 25.692L58.8645 25.857C58.6152 25.791 58.4025 25.681 58.2265 25.527C58.0579 25.3657 57.9735 25.1347 57.9735 24.834C57.9735 24.5333 58.0835 24.2767 58.3035 24.064C58.5309 23.844 58.8645 23.7083 59.3045 23.657L59.8875 23.954H59.7775C59.4182 23.9907 59.1615 24.0823 59.0075 24.229C58.8609 24.3683 58.7875 24.5223 58.7875 24.691C58.7875 24.8963 58.8609 25.0503 59.0075 25.153C59.1615 25.2483 59.3742 25.296 59.6455 25.296H61.2515ZM60.2395 27.628C60.6649 27.628 61.0132 27.584 61.2845 27.496C61.5632 27.408 61.7685 27.2943 61.9005 27.155C62.0325 27.0157 62.0985 26.8653 62.0985 26.704C62.0985 26.506 62.0179 26.3483 61.8565 26.231C61.7025 26.1137 61.4202 26.055 61.0095 26.055H59.3155C59.0809 26.055 58.8829 26.1137 58.7215 26.231C58.5602 26.3557 58.4795 26.5243 58.4795 26.737C58.4795 27.0083 58.6335 27.2247 58.9415 27.386C59.2569 27.5473 59.6895 27.628 60.2395 27.628ZM60.1625 20.39C60.6025 20.39 60.9912 20.4707 61.3285 20.632C61.6732 20.786 61.9409 21.0023 62.1315 21.281C62.3222 21.5597 62.4175 21.8823 62.4175 22.249C62.4175 22.6083 62.3222 22.931 62.1315 23.217C61.9409 23.4957 61.6732 23.7157 61.3285 23.877C60.9912 24.031 60.6025 24.108 60.1625 24.108C59.4365 24.108 58.8792 23.9357 58.4905 23.591C58.1019 23.239 57.9075 22.7917 57.9075 22.249C57.9075 21.8823 58.0029 21.5597 58.1935 21.281C58.3915 21.0023 58.6592 20.786 58.9965 20.632C59.3339 20.4707 59.7225 20.39 60.1625 20.39ZM60.1625 21.105C59.7812 21.105 59.4622 21.2113 59.2055 21.424C58.9489 21.6293 58.8205 21.9043 58.8205 22.249C58.8205 22.5863 58.9489 22.8613 59.2055 23.074C59.4622 23.2867 59.7812 23.393 60.1625 23.393C60.5439 23.393 60.8629 23.2867 61.1195 23.074C61.3762 22.8613 61.5045 22.5863 61.5045 22.249C61.5045 21.9043 61.3762 21.6293 61.1195 21.424C60.8629 21.2113 60.5439 21.105 60.1625 21.105ZM66.138 26.11C65.786 26.11 65.4524 26.044 65.137 25.912C64.829 25.78 64.576 25.5673 64.378 25.274C64.1874 24.9733 64.092 24.5847 64.092 24.108V20.5H64.972V23.877C64.972 24.4343 65.093 24.8193 65.335 25.032C65.577 25.2373 65.918 25.34 66.358 25.34C66.5634 25.34 66.765 25.307 66.963 25.241C67.161 25.1677 67.337 25.0577 67.491 24.911C67.6524 24.757 67.777 24.5627 67.865 24.328C67.9604 24.0933 68.008 23.8147 68.008 23.492V20.5H68.888V26H68.118L68.063 25.164C67.8724 25.494 67.612 25.736 67.282 25.89C66.9594 26.0367 66.578 26.11 66.138 26.11ZM72.9161 26.11C72.3808 26.11 71.8858 25.9963 71.4311 25.769C70.9838 25.5417 70.6391 25.219 70.3971 24.801L71.1451 24.262C71.3064 24.5993 71.5411 24.8633 71.8491 25.054C72.1644 25.2447 72.5421 25.34 72.9821 25.34C73.3708 25.34 73.6751 25.2667 73.8951 25.12C74.1151 24.966 74.2251 24.768 74.2251 24.526C74.2251 24.372 74.1738 24.2327 74.0711 24.108C73.9758 23.976 73.7888 23.8807 73.5101 23.822L72.1901 23.547C71.6548 23.437 71.2698 23.2537 71.0351 22.997C70.8078 22.7403 70.6941 22.4213 70.6941 22.04C70.6941 21.7393 70.7784 21.4643 70.9471 21.215C71.1231 20.9657 71.3688 20.7677 71.6841 20.621C72.0068 20.467 72.3844 20.39 72.8171 20.39C73.3598 20.39 73.8181 20.4963 74.1921 20.709C74.5661 20.9217 74.8448 21.2223 75.0281 21.611L74.2911 22.095C74.1664 21.7723 73.9648 21.5377 73.6861 21.391C73.4074 21.237 73.1178 21.16 72.8171 21.16C72.5531 21.16 72.3258 21.1967 72.1351 21.27C71.9518 21.3433 71.8088 21.446 71.7061 21.578C71.6108 21.7027 71.5631 21.8457 71.5631 22.007C71.5631 22.1683 71.6181 22.3187 71.7281 22.458C71.8381 22.59 72.0434 22.6853 72.3441 22.744L73.7191 23.03C74.2324 23.1327 74.5918 23.3013 74.7971 23.536C75.0024 23.7707 75.1051 24.0567 75.1051 24.394C75.1051 24.7387 75.0134 25.043 74.8301 25.307C74.6468 25.5637 74.3901 25.7617 74.0601 25.901C73.7301 26.0403 73.3488 26.11 72.9161 26.11ZM78.0349 18.938V24.482C78.0349 24.7533 78.1119 24.955 78.2659 25.087C78.4199 25.219 78.6179 25.285 78.8599 25.285C79.0725 25.285 79.2559 25.2483 79.4099 25.175C79.5639 25.1017 79.7032 25.0027 79.8279 24.878L80.1359 25.615C79.9672 25.769 79.7655 25.89 79.5309 25.978C79.3035 26.066 79.0395 26.11 78.7389 26.11C78.4602 26.11 78.1999 26.0623 77.9579 25.967C77.7159 25.8643 77.5215 25.7067 77.3749 25.494C77.2355 25.274 77.1622 24.988 77.1549 24.636V19.18L78.0349 18.938ZM80.0369 20.5V21.259H76.0549V20.5H80.0369ZM83.3363 26.11C82.9843 26.11 82.6506 26.044 82.3353 25.912C82.0273 25.78 81.7743 25.5673 81.5763 25.274C81.3856 24.9733 81.2903 24.5847 81.2903 24.108V20.5H82.1703V23.877C82.1703 24.4343 82.2913 24.8193 82.5333 25.032C82.7753 25.2373 83.1163 25.34 83.5563 25.34C83.7616 25.34 83.9633 25.307 84.1613 25.241C84.3593 25.1677 84.5353 25.0577 84.6893 24.911C84.8506 24.757 84.9753 24.5627 85.0633 24.328C85.1586 24.0933 85.2063 23.8147 85.2063 23.492V20.5H86.0863V26H85.3163L85.2613 25.164C85.0706 25.494 84.8103 25.736 84.4803 25.89C84.1576 26.0367 83.7763 26.11 83.3363 26.11ZM90.1143 26.11C89.579 26.11 89.084 25.9963 88.6293 25.769C88.182 25.5417 87.8373 25.219 87.5953 24.801L88.3433 24.262C88.5047 24.5993 88.7393 24.8633 89.0473 25.054C89.3627 25.2447 89.7403 25.34 90.1803 25.34C90.569 25.34 90.8733 25.2667 91.0933 25.12C91.3133 24.966 91.4233 24.768 91.4233 24.526C91.4233 24.372 91.372 24.2327 91.2693 24.108C91.174 23.976 90.987 23.8807 90.7083 23.822L89.3883 23.547C88.853 23.437 88.468 23.2537 88.2333 22.997C88.006 22.7403 87.8923 22.4213 87.8923 22.04C87.8923 21.7393 87.9767 21.4643 88.1453 21.215C88.3213 20.9657 88.567 20.7677 88.8823 20.621C89.205 20.467 89.5827 20.39 90.0153 20.39C90.558 20.39 91.0163 20.4963 91.3903 20.709C91.7643 20.9217 92.043 21.2223 92.2263 21.611L91.4893 22.095C91.3647 21.7723 91.163 21.5377 90.8843 21.391C90.6057 21.237 90.316 21.16 90.0153 21.16C89.7513 21.16 89.524 21.1967 89.3333 21.27C89.15 21.3433 89.007 21.446 88.9043 21.578C88.809 21.7027 88.7613 21.8457 88.7613 22.007C88.7613 22.1683 88.8163 22.3187 88.9263 22.458C89.0363 22.59 89.2417 22.6853 89.5423 22.744L90.9173 23.03C91.4307 23.1327 91.79 23.3013 91.9953 23.536C92.2007 23.7707 92.3033 24.0567 92.3033 24.394C92.3033 24.7387 92.2117 25.043 92.0283 25.307C91.845 25.5637 91.5883 25.7617 91.2583 25.901C90.9283 26.0403 90.547 26.11 90.1143 26.11ZM97.4751 26V25.285C98.2011 24.7497 98.8061 24.2803 99.2901 23.877C99.7815 23.4737 100.174 23.107 100.467 22.777C100.76 22.447 100.969 22.1353 101.094 21.842C101.219 21.5413 101.281 21.2297 101.281 20.907C101.281 20.4743 101.142 20.126 100.863 19.862C100.592 19.5907 100.218 19.455 99.7411 19.455C99.2425 19.455 98.8428 19.62 98.5421 19.95C98.2415 20.2727 98.0655 20.7053 98.0141 21.248L97.2441 20.786C97.3101 20.3607 97.4458 19.9867 97.6511 19.664C97.8638 19.3413 98.1461 19.0883 98.4981 18.905C98.8575 18.7217 99.2828 18.63 99.7741 18.63C100.148 18.63 100.482 18.685 100.775 18.795C101.076 18.905 101.332 19.0627 101.545 19.268C101.758 19.466 101.919 19.7043 102.029 19.983C102.146 20.2617 102.205 20.5697 102.205 20.907C102.205 21.3617 102.095 21.809 101.875 22.249C101.655 22.6817 101.292 23.1363 100.786 23.613C100.28 24.0897 99.5945 24.6177 98.7291 25.197V25.208C98.8098 25.2007 98.9198 25.197 99.0591 25.197C99.2058 25.1897 99.3488 25.186 99.4881 25.186C99.6348 25.1787 99.7448 25.175 99.8181 25.175H102.359V26H97.4751ZM106.495 26.11C105.674 26.11 105.018 25.791 104.526 25.153C104.035 24.515 103.789 23.5873 103.789 22.37C103.789 21.1527 104.035 20.225 104.526 19.587C105.018 18.949 105.674 18.63 106.495 18.63C107.324 18.63 107.98 18.949 108.464 19.587C108.956 20.225 109.201 21.1527 109.201 22.37C109.201 23.5873 108.956 24.515 108.464 25.153C107.98 25.791 107.324 26.11 106.495 26.11ZM106.495 25.318C106.884 25.318 107.21 25.208 107.474 24.988C107.746 24.7607 107.947 24.427 108.079 23.987C108.219 23.547 108.288 23.008 108.288 22.37C108.288 21.732 108.219 21.193 108.079 20.753C107.947 20.313 107.746 19.983 107.474 19.763C107.21 19.5357 106.884 19.422 106.495 19.422C106.107 19.422 105.777 19.5357 105.505 19.763C105.241 19.983 105.04 20.313 104.9 20.753C104.768 21.193 104.702 21.732 104.702 22.37C104.702 23.008 104.768 23.547 104.9 23.987C105.04 24.427 105.241 24.7607 105.505 24.988C105.777 25.208 106.107 25.318 106.495 25.318ZM110.731 26V25.285C111.457 24.7497 112.062 24.2803 112.546 23.877C113.037 23.4737 113.43 23.107 113.723 22.777C114.016 22.447 114.225 22.1353 114.35 21.842C114.475 21.5413 114.537 21.2297 114.537 20.907C114.537 20.4743 114.398 20.126 114.119 19.862C113.848 19.5907 113.474 19.455 112.997 19.455C112.498 19.455 112.099 19.62 111.798 19.95C111.497 20.2727 111.321 20.7053 111.27 21.248L110.5 20.786C110.566 20.3607 110.702 19.9867 110.907 19.664C111.12 19.3413 111.402 19.0883 111.754 18.905C112.113 18.7217 112.539 18.63 113.03 18.63C113.404 18.63 113.738 18.685 114.031 18.795C114.332 18.905 114.588 19.0627 114.801 19.268C115.014 19.466 115.175 19.7043 115.285 19.983C115.402 20.2617 115.461 20.5697 115.461 20.907C115.461 21.3617 115.351 21.809 115.131 22.249C114.911 22.6817 114.548 23.1363 114.042 23.613C113.536 24.0897 112.85 24.6177 111.985 25.197V25.208C112.066 25.2007 112.176 25.197 112.315 25.197C112.462 25.1897 112.605 25.186 112.744 25.186C112.891 25.1787 113.001 25.175 113.074 25.175H115.615V26H110.731ZM118.618 26V20.676C118.618 20.5513 118.618 20.4193 118.618 20.28C118.625 20.1333 118.633 19.983 118.64 19.829C118.391 20.071 118.101 20.2837 117.771 20.467C117.441 20.643 117.104 20.7713 116.759 20.852L116.528 20.049C116.66 20.0343 116.825 19.9867 117.023 19.906C117.228 19.818 117.441 19.7117 117.661 19.587C117.888 19.455 118.097 19.3157 118.288 19.169C118.479 19.0223 118.625 18.8793 118.728 18.74H119.498V26H118.618Z" fill="#AEAEAE"/>
<defs>
<clipPath id="clip0_821_1745">
<rect width="28" height="28" fill="white" transform="translate(0 0.5)"/>
</clipPath>
</defs>
</svg>
