<svg width="143" height="32" viewBox="0 0 143 32" fill="none" xmlns="http://www.w3.org/2000/svg">
<g clip-path="url(#clip0_821_1745)">
<path d="M19.25 12.5C19.25 13.8924 18.6969 15.2277 17.7123 16.2123C16.7277 17.1969 15.3924 17.75 14 17.75C12.6076 17.75 11.2723 17.1969 10.2877 16.2123C9.30312 15.2277 8.75 13.8924 8.75 12.5C8.75 11.1076 9.30312 9.77226 10.2877 8.78769C11.2723 7.80312 12.6076 7.25 14 7.25C15.3924 7.25 16.7277 7.80312 17.7123 8.78769C18.6969 9.77226 19.25 11.1076 19.25 12.5V12.5Z" fill="#AEAEAE"/>
<path fill-rule="evenodd" clip-rule="evenodd" d="M0 16C0 12.287 1.475 8.72601 4.10051 6.10051C6.72601 3.475 10.287 2 14 2C17.713 2 21.274 3.475 23.8995 6.10051C26.525 8.72601 28 12.287 28 16C28 19.713 26.525 23.274 23.8995 25.8995C21.274 28.525 17.713 30 14 30C10.287 30 6.72601 28.525 4.10051 25.8995C1.475 23.274 0 19.713 0 16V16ZM14 3.75C11.6931 3.75012 9.43314 4.40163 7.4802 5.62955C5.52727 6.85746 3.96074 8.61187 2.96094 10.6908C1.96113 12.7698 1.56868 15.0888 1.82875 17.381C2.08882 19.6732 2.99084 21.8454 4.431 23.6475C5.6735 21.6455 8.40875 19.5 14 19.5C19.5912 19.5 22.3248 21.6437 23.569 23.6475C25.0092 21.8454 25.9112 19.6732 26.1713 17.381C26.4313 15.0888 26.0389 12.7698 25.0391 10.6908C24.0393 8.61187 22.4727 6.85746 20.5198 5.62955C18.5669 4.40163 16.3069 3.75012 14 3.75V3.75Z" fill="#AEAEAE"/>
</g>
<path d="M44.398 12H42.929L42.11 9.751H38.509L37.69 12H36.26L39.497 3.42H41.161L44.398 12ZM38.899 8.62H41.72L40.316 4.616L38.899 8.62ZM48.0809 12.13C47.5435 12.13 47.0539 11.9957 46.6119 11.727C46.1785 11.4583 45.8362 11.0727 45.5849 10.57C45.3335 10.0673 45.2079 9.465 45.2079 8.763C45.2079 8.035 45.3422 7.41967 45.6109 6.917C45.8795 6.41433 46.2392 6.033 46.6899 5.773C47.1405 5.50433 47.6345 5.37 48.1719 5.37C48.7265 5.37 49.1945 5.52167 49.5759 5.825C49.9572 6.12833 50.2129 6.52267 50.3429 7.008L50.1869 7.151V2.575H51.5779V12H50.3429L50.2389 10.232L50.4209 10.245C50.3602 10.635 50.2172 10.973 49.9919 11.259C49.7665 11.5363 49.4849 11.753 49.1469 11.909C48.8175 12.0563 48.4622 12.13 48.0809 12.13ZM48.3799 11.012C48.7525 11.012 49.0732 10.9167 49.3419 10.726C49.6105 10.5353 49.8185 10.2667 49.9659 9.92C50.1132 9.57333 50.1869 9.15733 50.1869 8.672C50.1869 8.22133 50.1132 7.83567 49.9659 7.515C49.8185 7.18567 49.6105 6.93433 49.3419 6.761C49.0819 6.58767 48.7785 6.501 48.4319 6.501C47.8512 6.501 47.4005 6.70033 47.0799 7.099C46.7592 7.49767 46.5989 8.048 46.5989 8.75C46.5989 9.452 46.7549 10.0067 47.0669 10.414C47.3789 10.8127 47.8165 11.012 48.3799 11.012ZM53.7353 12V5.5H54.9703L55.0353 6.592C55.2606 6.176 55.5596 5.86833 55.9323 5.669C56.3136 5.46967 56.7166 5.37 57.1413 5.37C57.6093 5.37 58.0383 5.47833 58.4283 5.695C58.8269 5.903 59.1259 6.21933 59.3253 6.644C59.4639 6.358 59.6546 6.11967 59.8973 5.929C60.1399 5.73833 60.4086 5.59967 60.7033 5.513C60.9979 5.41767 61.2883 5.37 61.5743 5.37C61.9903 5.37 62.3803 5.45667 62.7443 5.63C63.1083 5.80333 63.4029 6.06767 63.6283 6.423C63.8536 6.77833 63.9663 7.23333 63.9663 7.788V12H62.5753V8.009C62.5753 7.48033 62.4496 7.099 62.1983 6.865C61.9469 6.631 61.6263 6.514 61.2363 6.514C60.9329 6.514 60.6513 6.58767 60.3913 6.735C60.1399 6.88233 59.9363 7.10333 59.7803 7.398C59.6243 7.684 59.5463 8.03933 59.5463 8.464V12H58.1553V8.009C58.1553 7.48033 58.0296 7.099 57.7783 6.865C57.5269 6.631 57.2063 6.514 56.8163 6.514C56.5563 6.514 56.2963 6.58333 56.0363 6.722C55.7763 6.86067 55.5596 7.07733 55.3863 7.372C55.2129 7.66667 55.1263 8.05667 55.1263 8.542V12H53.7353ZM66.7771 4.408C66.4738 4.408 66.2398 4.33433 66.0751 4.187C65.9191 4.031 65.8411 3.81433 65.8411 3.537C65.8411 3.25967 65.9191 3.04733 66.0751 2.9C66.2398 2.75267 66.4738 2.679 66.7771 2.679C67.0718 2.679 67.2971 2.75267 67.4531 2.9C67.6178 3.04733 67.7001 3.25967 67.7001 3.537C67.7001 3.81433 67.6178 4.031 67.4531 4.187C67.2971 4.33433 67.0718 4.408 66.7771 4.408ZM67.4661 5.5V12H66.0751V5.5H67.4661ZM69.6425 12V5.5H70.8775L70.9685 7.19L70.7865 7.008C70.9078 6.63533 71.0811 6.32767 71.3065 6.085C71.5405 5.83367 71.8135 5.65167 72.1255 5.539C72.4461 5.42633 72.7841 5.37 73.1395 5.37C73.5988 5.37 74.0105 5.461 74.3745 5.643C74.7471 5.81633 75.0418 6.08067 75.2585 6.436C75.4751 6.79133 75.5835 7.242 75.5835 7.788V12H74.1925V8.217C74.1925 7.57567 74.0581 7.13367 73.7895 6.891C73.5295 6.63967 73.2001 6.514 72.8015 6.514C72.5155 6.514 72.2381 6.58333 71.9695 6.722C71.7008 6.852 71.4755 7.06433 71.2935 7.359C71.1201 7.65367 71.0335 8.048 71.0335 8.542V12H69.6425Z" fill="#212121"/>
<path d="M36.962 28V27.155C37.82 26.5223 38.535 25.9677 39.107 25.491C39.6877 25.0143 40.1513 24.581 40.498 24.191C40.8447 23.801 41.0917 23.4327 41.239 23.086C41.3863 22.7307 41.46 22.3623 41.46 21.981C41.46 21.4697 41.2953 21.058 40.966 20.746C40.6453 20.4253 40.2033 20.265 39.64 20.265C39.0507 20.265 38.5783 20.46 38.223 20.85C37.8677 21.2313 37.6597 21.7427 37.599 22.384L36.689 21.838C36.767 21.3353 36.9273 20.8933 37.17 20.512C37.4213 20.1307 37.755 19.8317 38.171 19.615C38.5957 19.3983 39.0983 19.29 39.679 19.29C40.121 19.29 40.5153 19.355 40.862 19.485C41.2173 19.615 41.5207 19.8013 41.772 20.044C42.0233 20.278 42.214 20.5597 42.344 20.889C42.4827 21.2183 42.552 21.5823 42.552 21.981C42.552 22.5183 42.422 23.047 42.162 23.567C41.902 24.0783 41.473 24.6157 40.875 25.179C40.277 25.7423 39.4667 26.3663 38.444 27.051V27.064C38.5393 27.0553 38.6693 27.051 38.834 27.051C39.0073 27.0423 39.1763 27.038 39.341 27.038C39.5143 27.0293 39.6443 27.025 39.731 27.025H42.734V28H36.962ZM43.8452 19.42H50.1632V20.395C49.4439 21.1577 48.8545 21.942 48.3952 22.748C47.9445 23.5453 47.6152 24.3773 47.4072 25.244C47.1992 26.1107 47.0952 27.0293 47.0952 28H46.0292C46.0292 27.038 46.1462 26.0977 46.3802 25.179C46.6229 24.2517 46.9869 23.3633 47.4722 22.514C47.9575 21.6647 48.5599 20.8717 49.2792 20.135L49.4482 20.395H43.8452V19.42ZM62.0594 20.395H57.0934V23.164H60.9674V24.139H57.0934V28H56.0534V19.42H62.0594V20.395ZM65.799 28.13C65.1837 28.13 64.6334 27.9957 64.148 27.727C63.6714 27.4583 63.2987 27.0727 63.03 26.57C62.7614 26.0587 62.627 25.452 62.627 24.75C62.627 24.048 62.7614 23.4457 63.03 22.943C63.2987 22.4317 63.667 22.0417 64.135 21.773C64.603 21.5043 65.136 21.37 65.734 21.37C66.3407 21.37 66.8564 21.5 67.281 21.76C67.7144 22.02 68.0437 22.3753 68.269 22.826C68.4944 23.268 68.607 23.7663 68.607 24.321C68.607 24.4683 68.6027 24.6027 68.594 24.724C68.5854 24.8453 68.5724 24.9537 68.555 25.049H63.303V24.126H68.1L67.567 24.23C67.567 23.606 67.3937 23.125 67.047 22.787C66.709 22.449 66.2627 22.28 65.708 22.28C65.2834 22.28 64.915 22.3797 64.603 22.579C64.2997 22.7697 64.0614 23.0513 63.888 23.424C63.7234 23.788 63.641 24.23 63.641 24.75C63.641 25.2613 63.7277 25.7033 63.901 26.076C64.0744 26.4487 64.317 26.7347 64.629 26.934C64.9497 27.1247 65.331 27.22 65.773 27.22C66.2497 27.22 66.6354 27.129 66.93 26.947C67.2334 26.765 67.476 26.518 67.658 26.206L68.477 26.687C68.3124 26.9817 68.1 27.2373 67.84 27.454C67.5887 27.6707 67.2897 27.8397 66.943 27.961C66.605 28.0737 66.2237 28.13 65.799 28.13ZM73.77 28.13C73.406 28.13 73.068 28.065 72.756 27.935C72.444 27.805 72.1753 27.623 71.95 27.389C71.7246 27.155 71.5556 26.8907 71.443 26.596L71.586 26.414L71.495 28H70.585V18.51H71.625V22.969L71.495 22.774C71.6683 22.3667 71.9586 22.033 72.366 21.773C72.782 21.5043 73.2543 21.37 73.783 21.37C74.3203 21.37 74.8143 21.5043 75.265 21.773C75.7156 22.0417 76.0753 22.4273 76.344 22.93C76.6126 23.4327 76.747 24.0393 76.747 24.75C76.747 25.452 76.6083 26.0587 76.331 26.57C76.0623 27.0727 75.7026 27.4583 75.252 27.727C74.8013 27.9957 74.3073 28.13 73.77 28.13ZM73.666 27.22C74.3073 27.22 74.8056 26.9947 75.161 26.544C75.525 26.0933 75.707 25.4953 75.707 24.75C75.707 24.0047 75.5293 23.4067 75.174 22.956C74.8186 22.5053 74.3203 22.28 73.679 22.28C73.2716 22.28 72.912 22.384 72.6 22.592C72.2966 22.8 72.0583 23.0903 71.885 23.463C71.7116 23.8357 71.625 24.2733 71.625 24.776C71.625 25.27 71.7073 25.7033 71.872 26.076C72.0453 26.44 72.2836 26.7217 72.587 26.921C72.899 27.1203 73.2586 27.22 73.666 27.22ZM78.7354 28V21.5H79.5804L79.7234 22.566C79.9054 22.1673 80.1697 21.8683 80.5164 21.669C80.8717 21.4697 81.3007 21.37 81.8034 21.37C81.916 21.37 82.0374 21.3787 82.1674 21.396C82.306 21.4133 82.423 21.448 82.5184 21.5L82.3364 22.449C82.241 22.4143 82.137 22.3883 82.0244 22.371C81.9117 22.3537 81.7514 22.345 81.5434 22.345C81.2747 22.345 81.0017 22.423 80.7244 22.579C80.4557 22.735 80.2304 22.9733 80.0484 23.294C79.8664 23.606 79.7754 24.0047 79.7754 24.49V28H78.7354ZM86.395 28.13C85.979 28.13 85.5847 28.052 85.212 27.896C84.848 27.74 84.549 27.4887 84.315 27.142C84.0897 26.7867 83.977 26.3273 83.977 25.764V21.5H85.017V25.491C85.017 26.1497 85.16 26.6047 85.446 26.856C85.732 27.0987 86.135 27.22 86.655 27.22C86.8977 27.22 87.136 27.181 87.37 27.103C87.604 27.0163 87.812 26.8863 87.994 26.713C88.1847 26.531 88.332 26.3013 88.436 26.024C88.5487 25.7467 88.605 25.4173 88.605 25.036V21.5H89.645V28H88.735L88.67 27.012C88.4447 27.402 88.137 27.688 87.747 27.87C87.3657 28.0433 86.915 28.13 86.395 28.13ZM95.8614 23.801C95.8614 23.3157 95.7314 22.943 95.4714 22.683C95.2114 22.4143 94.8431 22.28 94.3664 22.28C93.9158 22.28 93.5344 22.3797 93.2224 22.579C92.9104 22.7697 92.6808 23.0817 92.5334 23.515L91.6884 22.995C91.8618 22.5097 92.1824 22.1197 92.6504 21.825C93.1184 21.5217 93.6991 21.37 94.3924 21.37C94.8604 21.37 95.2851 21.4523 95.6664 21.617C96.0478 21.773 96.3468 22.0157 96.5634 22.345C96.7888 22.6657 96.9014 23.0817 96.9014 23.593V26.739C96.9014 27.051 97.0661 27.207 97.3954 27.207C97.5601 27.207 97.7204 27.1853 97.8764 27.142L97.8244 27.961C97.6511 28.0477 97.4258 28.091 97.1484 28.091C96.8971 28.091 96.6718 28.0433 96.4724 27.948C96.2731 27.8527 96.1171 27.7097 96.0044 27.519C95.8918 27.3197 95.8354 27.0727 95.8354 26.778V26.648L96.0954 26.687C95.9914 27.025 95.8138 27.3023 95.5624 27.519C95.3111 27.727 95.0294 27.883 94.7174 27.987C94.4054 28.0823 94.0978 28.13 93.7944 28.13C93.4131 28.13 93.0578 28.065 92.7284 27.935C92.3991 27.805 92.1348 27.61 91.9354 27.35C91.7448 27.0813 91.6494 26.752 91.6494 26.362C91.6494 25.8767 91.8098 25.478 92.1304 25.166C92.4598 24.8453 92.9148 24.6287 93.4954 24.516L96.0694 24.009V24.867L93.9764 25.296C93.5518 25.3827 93.2354 25.504 93.0274 25.66C92.8194 25.816 92.7154 26.0327 92.7154 26.31C92.7154 26.5787 92.8194 26.7997 93.0274 26.973C93.2441 27.1377 93.5474 27.22 93.9374 27.22C94.1888 27.22 94.4271 27.1897 94.6524 27.129C94.8864 27.0597 95.0944 26.96 95.2764 26.83C95.4584 26.6913 95.6014 26.5223 95.7054 26.323C95.8094 26.115 95.8614 25.8723 95.8614 25.595V23.801ZM99.4287 28V21.5H100.274L100.417 22.566C100.599 22.1673 100.863 21.8683 101.21 21.669C101.565 21.4697 101.994 21.37 102.497 21.37C102.609 21.37 102.731 21.3787 102.861 21.396C102.999 21.4133 103.116 21.448 103.212 21.5L103.03 22.449C102.934 22.4143 102.83 22.3883 102.718 22.371C102.605 22.3537 102.445 22.345 102.237 22.345C101.968 22.345 101.695 22.423 101.418 22.579C101.149 22.735 100.924 22.9733 100.742 23.294C100.56 23.606 100.469 24.0047 100.469 24.49V28H99.4287ZM105.255 20.252C105.021 20.252 104.831 20.1827 104.683 20.044C104.545 19.8967 104.475 19.706 104.475 19.472C104.475 19.238 104.545 19.0517 104.683 18.913C104.831 18.7657 105.021 18.692 105.255 18.692C105.489 18.692 105.676 18.7657 105.814 18.913C105.962 19.0517 106.035 19.238 106.035 19.472C106.035 19.706 105.962 19.8967 105.814 20.044C105.676 20.1827 105.489 20.252 105.255 20.252ZM105.775 21.5V28H104.735V21.5H105.775ZM112.372 28V27.155C113.23 26.5223 113.945 25.9677 114.517 25.491C115.098 25.0143 115.561 24.581 115.908 24.191C116.255 23.801 116.502 23.4327 116.649 23.086C116.796 22.7307 116.87 22.3623 116.87 21.981C116.87 21.4697 116.705 21.058 116.376 20.746C116.055 20.4253 115.613 20.265 115.05 20.265C114.461 20.265 113.988 20.46 113.633 20.85C113.278 21.2313 113.07 21.7427 113.009 22.384L112.099 21.838C112.177 21.3353 112.337 20.8933 112.58 20.512C112.831 20.1307 113.165 19.8317 113.581 19.615C114.006 19.3983 114.508 19.29 115.089 19.29C115.531 19.29 115.925 19.355 116.272 19.485C116.627 19.615 116.931 19.8013 117.182 20.044C117.433 20.278 117.624 20.5597 117.754 20.889C117.893 21.2183 117.962 21.5823 117.962 21.981C117.962 22.5183 117.832 23.047 117.572 23.567C117.312 24.0783 116.883 24.6157 116.285 25.179C115.687 25.7423 114.877 26.3663 113.854 27.051V27.064C113.949 27.0553 114.079 27.051 114.244 27.051C114.417 27.0423 114.586 27.038 114.751 27.038C114.924 27.0293 115.054 27.025 115.141 27.025H118.144V28H112.372ZM123.032 28.13C122.062 28.13 121.286 27.753 120.705 26.999C120.125 26.245 119.834 25.1487 119.834 23.71C119.834 22.2713 120.125 21.175 120.705 20.421C121.286 19.667 122.062 19.29 123.032 19.29C124.012 19.29 124.787 19.667 125.359 20.421C125.94 21.175 126.23 22.2713 126.23 23.71C126.23 25.1487 125.94 26.245 125.359 26.999C124.787 27.753 124.012 28.13 123.032 28.13ZM123.032 27.194C123.492 27.194 123.877 27.064 124.189 26.804C124.51 26.5353 124.748 26.141 124.904 25.621C125.069 25.101 125.151 24.464 125.151 23.71C125.151 22.956 125.069 22.319 124.904 21.799C124.748 21.279 124.51 20.889 124.189 20.629C123.877 20.3603 123.492 20.226 123.032 20.226C122.573 20.226 122.183 20.3603 121.862 20.629C121.55 20.889 121.312 21.279 121.147 21.799C120.991 22.319 120.913 22.956 120.913 23.71C120.913 24.464 120.991 25.101 121.147 25.621C121.312 26.141 121.55 26.5353 121.862 26.804C122.183 27.064 122.573 27.194 123.032 27.194ZM128.038 28V27.155C128.896 26.5223 129.611 25.9677 130.183 25.491C130.764 25.0143 131.228 24.581 131.574 24.191C131.921 23.801 132.168 23.4327 132.315 23.086C132.463 22.7307 132.536 22.3623 132.536 21.981C132.536 21.4697 132.372 21.058 132.042 20.746C131.722 20.4253 131.28 20.265 130.716 20.265C130.127 20.265 129.655 20.46 129.299 20.85C128.944 21.2313 128.736 21.7427 128.675 22.384L127.765 21.838C127.843 21.3353 128.004 20.8933 128.246 20.512C128.498 20.1307 128.831 19.8317 129.247 19.615C129.672 19.3983 130.175 19.29 130.755 19.29C131.197 19.29 131.592 19.355 131.938 19.485C132.294 19.615 132.597 19.8013 132.848 20.044C133.1 20.278 133.29 20.5597 133.42 20.889C133.559 21.2183 133.628 21.5823 133.628 21.981C133.628 22.5183 133.498 23.047 133.238 23.567C132.978 24.0783 132.549 24.6157 131.951 25.179C131.353 25.7423 130.543 26.3663 129.52 27.051V27.064C129.616 27.0553 129.746 27.051 129.91 27.051C130.084 27.0423 130.253 27.038 130.417 27.038C130.591 27.0293 130.721 27.025 130.807 27.025H133.81V28H128.038ZM135.617 28V27.155C136.475 26.5223 137.19 25.9677 137.762 25.491C138.343 25.0143 138.807 24.581 139.153 24.191C139.5 23.801 139.747 23.4327 139.894 23.086C140.042 22.7307 140.115 22.3623 140.115 21.981C140.115 21.4697 139.951 21.058 139.621 20.746C139.301 20.4253 138.859 20.265 138.295 20.265C137.706 20.265 137.234 20.46 136.878 20.85C136.523 21.2313 136.315 21.7427 136.254 22.384L135.344 21.838C135.422 21.3353 135.583 20.8933 135.825 20.512C136.077 20.1307 136.41 19.8317 136.826 19.615C137.251 19.3983 137.754 19.29 138.334 19.29C138.776 19.29 139.171 19.355 139.517 19.485C139.873 19.615 140.176 19.8013 140.427 20.044C140.679 20.278 140.869 20.5597 140.999 20.889C141.138 21.2183 141.207 21.5823 141.207 21.981C141.207 22.5183 141.077 23.047 140.817 23.567C140.557 24.0783 140.128 24.6157 139.53 25.179C138.932 25.7423 138.122 26.3663 137.099 27.051V27.064C137.195 27.0553 137.325 27.051 137.489 27.051C137.663 27.0423 137.832 27.038 137.996 27.038C138.17 27.0293 138.3 27.025 138.386 27.025H141.389V28H135.617Z" fill="#AEAEAE"/>
<defs>
<clipPath id="clip0_821_1745">
<rect width="28" height="28" fill="white" transform="translate(0 2)"/>
</clipPath>
</defs>
</svg>
