<svg width="138" height="29" viewBox="0 0 138 29" fill="none" xmlns="http://www.w3.org/2000/svg">
<g clip-path="url(#clip0_821_1745)">
<path d="M19.25 11C19.25 12.3924 18.6969 13.7277 17.7123 14.7123C16.7277 15.6969 15.3924 16.25 14 16.25C12.6076 16.25 11.2723 15.6969 10.2877 14.7123C9.30312 13.7277 8.75 12.3924 8.75 11C8.75 9.60761 9.30312 8.27226 10.2877 7.28769C11.2723 6.30312 12.6076 5.75 14 5.75C15.3924 5.75 16.7277 6.30312 17.7123 7.28769C18.6969 8.27226 19.25 9.60761 19.25 11V11Z" fill="#AEAEAE"/>
<path fill-rule="evenodd" clip-rule="evenodd" d="M0 14.5C0 10.787 1.475 7.22601 4.10051 4.60051C6.72601 1.975 10.287 0.5 14 0.5C17.713 0.5 21.274 1.975 23.8995 4.60051C26.525 7.22601 28 10.787 28 14.5C28 18.213 26.525 21.774 23.8995 24.3995C21.274 27.025 17.713 28.5 14 28.5C10.287 28.5 6.72601 27.025 4.10051 24.3995C1.475 21.774 0 18.213 0 14.5V14.5ZM14 2.25C11.6931 2.25012 9.43314 2.90163 7.4802 4.12955C5.52727 5.35746 3.96074 7.11187 2.96094 9.19084C1.96113 11.2698 1.56868 13.5888 1.82875 15.881C2.08882 18.1732 2.99084 20.3454 4.431 22.1475C5.6735 20.1455 8.40875 18 14 18C19.5912 18 22.3248 20.1437 23.569 22.1475C25.0092 20.3454 25.9112 18.1732 26.1713 15.881C26.4313 13.5888 26.0389 11.2698 25.0391 9.19084C24.0393 7.11187 22.4727 5.35746 20.5198 4.12955C18.5669 2.90163 16.3069 2.25012 14 2.25V2.25Z" fill="#AEAEAE"/>
</g>
<path d="M44.398 12H42.929L42.11 9.751H38.509L37.69 12H36.26L39.497 3.42H41.161L44.398 12ZM38.899 8.62H41.72L40.316 4.616L38.899 8.62ZM48.0809 12.13C47.5435 12.13 47.0539 11.9957 46.6119 11.727C46.1785 11.4583 45.8362 11.0727 45.5849 10.57C45.3335 10.0673 45.2079 9.465 45.2079 8.763C45.2079 8.035 45.3422 7.41967 45.6109 6.917C45.8795 6.41433 46.2392 6.033 46.6899 5.773C47.1405 5.50433 47.6345 5.37 48.1719 5.37C48.7265 5.37 49.1945 5.52167 49.5759 5.825C49.9572 6.12833 50.2129 6.52267 50.3429 7.008L50.1869 7.151V2.575H51.5779V12H50.3429L50.2389 10.232L50.4209 10.245C50.3602 10.635 50.2172 10.973 49.9919 11.259C49.7665 11.5363 49.4849 11.753 49.1469 11.909C48.8175 12.0563 48.4622 12.13 48.0809 12.13ZM48.3799 11.012C48.7525 11.012 49.0732 10.9167 49.3419 10.726C49.6105 10.5353 49.8185 10.2667 49.9659 9.92C50.1132 9.57333 50.1869 9.15733 50.1869 8.672C50.1869 8.22133 50.1132 7.83567 49.9659 7.515C49.8185 7.18567 49.6105 6.93433 49.3419 6.761C49.0819 6.58767 48.7785 6.501 48.4319 6.501C47.8512 6.501 47.4005 6.70033 47.0799 7.099C46.7592 7.49767 46.5989 8.048 46.5989 8.75C46.5989 9.452 46.7549 10.0067 47.0669 10.414C47.3789 10.8127 47.8165 11.012 48.3799 11.012ZM53.7353 12V5.5H54.9703L55.0353 6.592C55.2606 6.176 55.5596 5.86833 55.9323 5.669C56.3136 5.46967 56.7166 5.37 57.1413 5.37C57.6093 5.37 58.0383 5.47833 58.4283 5.695C58.8269 5.903 59.1259 6.21933 59.3253 6.644C59.4639 6.358 59.6546 6.11967 59.8973 5.929C60.1399 5.73833 60.4086 5.59967 60.7033 5.513C60.9979 5.41767 61.2883 5.37 61.5743 5.37C61.9903 5.37 62.3803 5.45667 62.7443 5.63C63.1083 5.80333 63.4029 6.06767 63.6283 6.423C63.8536 6.77833 63.9663 7.23333 63.9663 7.788V12H62.5753V8.009C62.5753 7.48033 62.4496 7.099 62.1983 6.865C61.9469 6.631 61.6263 6.514 61.2363 6.514C60.9329 6.514 60.6513 6.58767 60.3913 6.735C60.1399 6.88233 59.9363 7.10333 59.7803 7.398C59.6243 7.684 59.5463 8.03933 59.5463 8.464V12H58.1553V8.009C58.1553 7.48033 58.0296 7.099 57.7783 6.865C57.5269 6.631 57.2063 6.514 56.8163 6.514C56.5563 6.514 56.2963 6.58333 56.0363 6.722C55.7763 6.86067 55.5596 7.07733 55.3863 7.372C55.2129 7.66667 55.1263 8.05667 55.1263 8.542V12H53.7353ZM66.7771 4.408C66.4738 4.408 66.2398 4.33433 66.0751 4.187C65.9191 4.031 65.8411 3.81433 65.8411 3.537C65.8411 3.25967 65.9191 3.04733 66.0751 2.9C66.2398 2.75267 66.4738 2.679 66.7771 2.679C67.0718 2.679 67.2971 2.75267 67.4531 2.9C67.6178 3.04733 67.7001 3.25967 67.7001 3.537C67.7001 3.81433 67.6178 4.031 67.4531 4.187C67.2971 4.33433 67.0718 4.408 66.7771 4.408ZM67.4661 5.5V12H66.0751V5.5H67.4661ZM69.6425 12V5.5H70.8775L70.9685 7.19L70.7865 7.008C70.9078 6.63533 71.0811 6.32767 71.3065 6.085C71.5405 5.83367 71.8135 5.65167 72.1255 5.539C72.4461 5.42633 72.7841 5.37 73.1395 5.37C73.5988 5.37 74.0105 5.461 74.3745 5.643C74.7471 5.81633 75.0418 6.08067 75.2585 6.436C75.4751 6.79133 75.5835 7.242 75.5835 7.788V12H74.1925V8.217C74.1925 7.57567 74.0581 7.13367 73.7895 6.891C73.5295 6.63967 73.2001 6.514 72.8015 6.514C72.5155 6.514 72.2381 6.58333 71.9695 6.722C71.7008 6.852 71.4755 7.06433 71.2935 7.359C71.1201 7.65367 71.0335 8.048 71.0335 8.542V12H69.6425Z" fill="#212121"/>
<path d="M38.288 26V20.676C38.288 20.5513 38.288 20.4193 38.288 20.28C38.2953 20.1333 38.3027 19.983 38.31 19.829C38.0607 20.071 37.771 20.2837 37.441 20.467C37.111 20.643 36.7737 20.7713 36.429 20.852L36.198 20.049C36.33 20.0343 36.495 19.9867 36.693 19.906C36.8983 19.818 37.111 19.7117 37.331 19.587C37.5583 19.455 37.7673 19.3157 37.958 19.169C38.1487 19.0223 38.2953 18.8793 38.398 18.74H39.168V26H38.288ZM43.8391 18.63C44.2278 18.63 44.5651 18.685 44.8511 18.795C45.1445 18.8977 45.3975 19.0627 45.6101 19.29C45.8228 19.51 46.0025 19.7997 46.1491 20.159L45.3351 20.544C45.2251 20.2067 45.0455 19.9427 44.7961 19.752C44.5541 19.554 44.2168 19.455 43.7841 19.455C43.4688 19.455 43.1901 19.5357 42.9481 19.697C42.7061 19.851 42.5008 20.0673 42.3321 20.346C42.1635 20.6247 42.0351 20.951 41.9471 21.325C41.8665 21.699 41.8261 22.1023 41.8261 22.535C41.8261 22.5497 41.8261 22.5717 41.8261 22.601C41.8261 22.6303 41.8261 22.6743 41.8261 22.733H41.8701C41.9508 22.4177 42.0975 22.1647 42.3101 21.974C42.5301 21.776 42.7758 21.633 43.0471 21.545C43.3258 21.4497 43.5971 21.402 43.8611 21.402C44.3525 21.402 44.7815 21.4973 45.1481 21.688C45.5148 21.8787 45.7971 22.15 45.9951 22.502C46.2005 22.854 46.3031 23.272 46.3031 23.756C46.3031 24.2327 46.2005 24.6507 45.9951 25.01C45.7898 25.362 45.5001 25.6333 45.1261 25.824C44.7595 26.0147 44.3195 26.11 43.8061 26.11C43.1975 26.11 42.6841 25.9487 42.2661 25.626C41.8481 25.3033 41.5328 24.8633 41.3201 24.306C41.1075 23.7413 41.0011 23.096 41.0011 22.37C41.0011 21.556 41.1258 20.874 41.3751 20.324C41.6245 19.7667 41.9618 19.345 42.3871 19.059C42.8198 18.773 43.3038 18.63 43.8391 18.63ZM43.7951 22.249C43.4798 22.249 43.2011 22.315 42.9591 22.447C42.7245 22.5717 42.5411 22.7477 42.4091 22.975C42.2771 23.195 42.2111 23.4517 42.2111 23.745C42.2111 24.0237 42.2808 24.2803 42.4201 24.515C42.5595 24.7423 42.7465 24.9257 42.9811 25.065C43.2231 25.197 43.4945 25.263 43.7951 25.263C44.2938 25.263 44.6825 25.131 44.9611 24.867C45.2398 24.5957 45.3791 24.2217 45.3791 23.745C45.3791 23.437 45.3168 23.173 45.1921 22.953C45.0675 22.7257 44.8878 22.5533 44.6531 22.436C44.4185 22.3113 44.1325 22.249 43.7951 22.249ZM54.2475 18.63C54.8855 18.63 55.4355 18.762 55.8975 19.026C56.3595 19.2827 56.7445 19.664 57.0525 20.17L56.3155 20.742C56.0442 20.2727 55.7362 19.9427 55.3915 19.752C55.0542 19.554 54.6435 19.455 54.1595 19.455C53.7709 19.455 53.4482 19.51 53.1915 19.62C52.9422 19.73 52.7589 19.8767 52.6415 20.06C52.5242 20.236 52.4655 20.4377 52.4655 20.665C52.4655 20.9217 52.5462 21.149 52.7075 21.347C52.8689 21.5377 53.1915 21.688 53.6755 21.798L55.2485 22.15C55.9452 22.304 56.4292 22.5387 56.7005 22.854C56.9792 23.162 57.1185 23.547 57.1185 24.009C57.1185 24.4197 57.0012 24.7863 56.7665 25.109C56.5392 25.4243 56.2165 25.67 55.7985 25.846C55.3805 26.022 54.8892 26.11 54.3245 26.11C53.7965 26.11 53.3309 26.0403 52.9275 25.901C52.5315 25.7543 52.1905 25.56 51.9045 25.318C51.6185 25.076 51.3839 24.8047 51.2005 24.504L51.9705 23.877C52.1099 24.1557 52.2895 24.4013 52.5095 24.614C52.7295 24.8267 52.9935 24.9917 53.3015 25.109C53.6169 25.2263 53.9762 25.285 54.3795 25.285C54.7535 25.285 55.0762 25.241 55.3475 25.153C55.6262 25.0577 55.8389 24.922 55.9855 24.746C56.1322 24.5627 56.2055 24.3427 56.2055 24.086C56.2055 23.8513 56.1285 23.6423 55.9745 23.459C55.8205 23.2683 55.5309 23.1253 55.1055 23.03L53.4005 22.645C52.9532 22.5423 52.5902 22.403 52.3115 22.227C52.0402 22.0437 51.8422 21.831 51.7175 21.589C51.6002 21.3397 51.5415 21.072 51.5415 20.786C51.5415 20.3973 51.6479 20.0417 51.8605 19.719C52.0805 19.389 52.3922 19.125 52.7955 18.927C53.2062 18.729 53.6902 18.63 54.2475 18.63ZM61.0964 26.11C60.5757 26.11 60.1101 25.9963 59.6994 25.769C59.2961 25.5417 58.9807 25.2153 58.7534 24.79C58.5261 24.3573 58.4124 23.844 58.4124 23.25C58.4124 22.656 58.5261 22.1463 58.7534 21.721C58.9807 21.2883 59.2924 20.9583 59.6884 20.731C60.0844 20.5037 60.5354 20.39 61.0414 20.39C61.5547 20.39 61.9911 20.5 62.3504 20.72C62.7171 20.94 62.9957 21.2407 63.1864 21.622C63.3771 21.996 63.4724 22.4177 63.4724 22.887C63.4724 23.0117 63.4687 23.1253 63.4614 23.228C63.4541 23.3307 63.4431 23.4223 63.4284 23.503H58.9844V22.722H63.0434L62.5924 22.81C62.5924 22.282 62.4457 21.875 62.1524 21.589C61.8664 21.303 61.4887 21.16 61.0194 21.16C60.6601 21.16 60.3484 21.2443 60.0844 21.413C59.8277 21.5743 59.6261 21.8127 59.4794 22.128C59.3401 22.436 59.2704 22.81 59.2704 23.25C59.2704 23.6827 59.3437 24.0567 59.4904 24.372C59.6371 24.6873 59.8424 24.9293 60.1064 25.098C60.3777 25.2593 60.7004 25.34 61.0744 25.34C61.4777 25.34 61.8041 25.263 62.0534 25.109C62.3101 24.955 62.5154 24.746 62.6694 24.482L63.3624 24.889C63.2231 25.1383 63.0434 25.3547 62.8234 25.538C62.6107 25.7213 62.3577 25.8643 62.0644 25.967C61.7784 26.0623 61.4557 26.11 61.0964 26.11ZM65.146 28.31V20.5H65.916L65.993 21.842L65.872 21.688C65.9674 21.4313 66.1104 21.2077 66.301 21.017C66.4917 20.819 66.7227 20.665 66.994 20.555C67.2654 20.445 67.5587 20.39 67.874 20.39C68.3214 20.39 68.732 20.5037 69.106 20.731C69.4874 20.9583 69.7917 21.2847 70.019 21.71C70.2464 22.1353 70.36 22.6487 70.36 23.25C70.36 23.844 70.2427 24.3573 70.008 24.79C69.7807 25.2153 69.4764 25.5417 69.095 25.769C68.7137 25.9963 68.2957 26.11 67.841 26.11C67.3864 26.11 66.9867 26 66.642 25.78C66.3047 25.5527 66.0627 25.2667 65.916 24.922L66.026 24.757V28.31H65.146ZM67.753 25.34C68.2957 25.34 68.7174 25.1493 69.018 24.768C69.326 24.3867 69.48 23.8807 69.48 23.25C69.48 22.6193 69.3297 22.1133 69.029 21.732C68.7357 21.3507 68.3214 21.16 67.786 21.16C67.434 21.16 67.126 21.248 66.862 21.424C66.598 21.5927 66.3927 21.8347 66.246 22.15C66.0994 22.458 66.026 22.8247 66.026 23.25C66.026 23.668 66.0957 24.0347 66.235 24.35C66.3817 24.6653 66.5834 24.911 66.84 25.087C67.104 25.2557 67.4084 25.34 67.753 25.34ZM73.2439 18.938V24.482C73.2439 24.7533 73.3209 24.955 73.4749 25.087C73.6289 25.219 73.8269 25.285 74.0689 25.285C74.2815 25.285 74.4649 25.2483 74.6189 25.175C74.7729 25.1017 74.9122 25.0027 75.0369 24.878L75.3449 25.615C75.1762 25.769 74.9745 25.89 74.7399 25.978C74.5125 26.066 74.2485 26.11 73.9479 26.11C73.6692 26.11 73.4089 26.0623 73.1669 25.967C72.9249 25.8643 72.7305 25.7067 72.5839 25.494C72.4445 25.274 72.3712 24.988 72.3639 24.636V19.18L73.2439 18.938ZM75.2459 20.5V21.259H71.2639V20.5H75.2459ZM78.8533 26.11C78.3326 26.11 77.8669 25.9963 77.4563 25.769C77.0529 25.5417 76.7376 25.2153 76.5103 24.79C76.2829 24.3573 76.1693 23.844 76.1693 23.25C76.1693 22.656 76.2829 22.1463 76.5103 21.721C76.7376 21.2883 77.0493 20.9583 77.4453 20.731C77.8413 20.5037 78.2923 20.39 78.7983 20.39C79.3116 20.39 79.7479 20.5 80.1073 20.72C80.4739 20.94 80.7526 21.2407 80.9433 21.622C81.1339 21.996 81.2293 22.4177 81.2293 22.887C81.2293 23.0117 81.2256 23.1253 81.2183 23.228C81.2109 23.3307 81.1999 23.4223 81.1852 23.503H76.7413V22.722H80.8003L80.3493 22.81C80.3493 22.282 80.2026 21.875 79.9093 21.589C79.6233 21.303 79.2456 21.16 78.7763 21.16C78.4169 21.16 78.1053 21.2443 77.8413 21.413C77.5846 21.5743 77.3829 21.8127 77.2363 22.128C77.0969 22.436 77.0273 22.81 77.0273 23.25C77.0273 23.6827 77.1006 24.0567 77.2473 24.372C77.3939 24.6873 77.5993 24.9293 77.8633 25.098C78.1346 25.2593 78.4573 25.34 78.8313 25.34C79.2346 25.34 79.5609 25.263 79.8103 25.109C80.0669 24.955 80.2723 24.746 80.4263 24.482L81.1193 24.889C80.9799 25.1383 80.8003 25.3547 80.5803 25.538C80.3676 25.7213 80.1146 25.8643 79.8213 25.967C79.5353 26.0623 79.2126 26.11 78.8533 26.11ZM82.9029 26V20.5H83.6729L83.7279 21.358C83.9259 21.0207 84.1825 20.775 84.4979 20.621C84.8205 20.467 85.1505 20.39 85.4879 20.39C85.8765 20.39 86.2432 20.478 86.5879 20.654C86.9325 20.83 87.1965 21.1013 87.3799 21.468C87.4972 21.2187 87.6622 21.017 87.8749 20.863C88.0875 20.7017 88.3185 20.5843 88.5679 20.511C88.8245 20.4303 89.0665 20.39 89.2939 20.39C89.6459 20.39 89.9796 20.4633 90.2949 20.61C90.6175 20.7567 90.8815 20.984 91.0869 21.292C91.2922 21.6 91.3949 21.996 91.3949 22.48V26H90.5149V22.568C90.5149 22.0693 90.3902 21.71 90.1409 21.49C89.8915 21.27 89.5835 21.16 89.2169 21.16C88.9309 21.16 88.6632 21.2297 88.4139 21.369C88.1645 21.5083 87.9629 21.7137 87.8089 21.985C87.6622 22.2563 87.5889 22.59 87.5889 22.986V26H86.7089V22.568C86.7089 22.0693 86.5842 21.71 86.3349 21.49C86.0855 21.27 85.7775 21.16 85.4109 21.16C85.1689 21.16 84.9195 21.226 84.6629 21.358C84.4135 21.4827 84.2045 21.6843 84.0359 21.963C83.8672 22.2417 83.7829 22.6083 83.7829 23.063V26H82.9029ZM96.0823 26.11C95.7743 26.11 95.4883 26.055 95.2243 25.945C94.9603 25.835 94.7329 25.681 94.5423 25.483C94.3516 25.285 94.2086 25.0613 94.1133 24.812L94.2343 24.658L94.1573 26H93.3873V17.97H94.2673V21.743L94.1573 21.578C94.3039 21.2333 94.5496 20.951 94.8943 20.731C95.2463 20.5037 95.6459 20.39 96.0933 20.39C96.5479 20.39 96.9659 20.5037 97.3473 20.731C97.7286 20.9583 98.0329 21.2847 98.2603 21.71C98.4876 22.1353 98.6013 22.6487 98.6013 23.25C98.6013 23.844 98.4839 24.3573 98.2493 24.79C98.0219 25.2153 97.7176 25.5417 97.3363 25.769C96.9549 25.9963 96.5369 26.11 96.0823 26.11ZM95.9943 25.34C96.5369 25.34 96.9586 25.1493 97.2593 24.768C97.5673 24.3867 97.7213 23.8807 97.7213 23.25C97.7213 22.6193 97.5709 22.1133 97.2703 21.732C96.9696 21.3507 96.5479 21.16 96.0053 21.16C95.6606 21.16 95.3563 21.248 95.0923 21.424C94.8356 21.6 94.6339 21.8457 94.4873 22.161C94.3406 22.4763 94.2673 22.8467 94.2673 23.272C94.2673 23.69 94.3369 24.0567 94.4763 24.372C94.6229 24.68 94.8246 24.9183 95.0813 25.087C95.3453 25.2557 95.6496 25.34 95.9943 25.34ZM102.583 26.11C102.062 26.11 101.596 25.9963 101.186 25.769C100.782 25.5417 100.467 25.2153 100.24 24.79C100.012 24.3573 99.8987 23.844 99.8987 23.25C99.8987 22.656 100.012 22.1463 100.24 21.721C100.467 21.2883 100.779 20.9583 101.175 20.731C101.571 20.5037 102.022 20.39 102.528 20.39C103.041 20.39 103.477 20.5 103.837 20.72C104.203 20.94 104.482 21.2407 104.673 21.622C104.863 21.996 104.959 22.4177 104.959 22.887C104.959 23.0117 104.955 23.1253 104.948 23.228C104.94 23.3307 104.929 23.4223 104.915 23.503H100.471V22.722H104.53L104.079 22.81C104.079 22.282 103.932 21.875 103.639 21.589C103.353 21.303 102.975 21.16 102.506 21.16C102.146 21.16 101.835 21.2443 101.571 21.413C101.314 21.5743 101.112 21.8127 100.966 22.128C100.826 22.436 100.757 22.81 100.757 23.25C100.757 23.6827 100.83 24.0567 100.977 24.372C101.123 24.6873 101.329 24.9293 101.593 25.098C101.864 25.2593 102.187 25.34 102.561 25.34C102.964 25.34 103.29 25.263 103.54 25.109C103.796 24.955 104.002 24.746 104.156 24.482L104.849 24.889C104.709 25.1383 104.53 25.3547 104.31 25.538C104.097 25.7213 103.844 25.8643 103.551 25.967C103.265 26.0623 102.942 26.11 102.583 26.11ZM106.632 26V20.5H107.347L107.468 21.402C107.622 21.0647 107.846 20.8117 108.139 20.643C108.44 20.4743 108.803 20.39 109.228 20.39C109.324 20.39 109.426 20.3973 109.536 20.412C109.654 20.4267 109.753 20.456 109.833 20.5L109.679 21.303C109.599 21.2737 109.511 21.2517 109.415 21.237C109.32 21.2223 109.184 21.215 109.008 21.215C108.781 21.215 108.55 21.281 108.315 21.413C108.088 21.545 107.897 21.7467 107.743 22.018C107.589 22.282 107.512 22.6193 107.512 23.03V26H106.632ZM114.405 26V25.285C115.131 24.7497 115.736 24.2803 116.22 23.877C116.711 23.4737 117.103 23.107 117.397 22.777C117.69 22.447 117.899 22.1353 118.024 21.842C118.148 21.5413 118.211 21.2297 118.211 20.907C118.211 20.4743 118.071 20.126 117.793 19.862C117.521 19.5907 117.147 19.455 116.671 19.455C116.172 19.455 115.772 19.62 115.472 19.95C115.171 20.2727 114.995 20.7053 114.944 21.248L114.174 20.786C114.24 20.3607 114.375 19.9867 114.581 19.664C114.793 19.3413 115.076 19.0883 115.428 18.905C115.787 18.7217 116.212 18.63 116.704 18.63C117.078 18.63 117.411 18.685 117.705 18.795C118.005 18.905 118.262 19.0627 118.475 19.268C118.687 19.466 118.849 19.7043 118.959 19.983C119.076 20.2617 119.135 20.5697 119.135 20.907C119.135 21.3617 119.025 21.809 118.805 22.249C118.585 22.6817 118.222 23.1363 117.716 23.613C117.21 24.0897 116.524 24.6177 115.659 25.197V25.208C115.739 25.2007 115.849 25.197 115.989 25.197C116.135 25.1897 116.278 25.186 116.418 25.186C116.564 25.1787 116.674 25.175 116.748 25.175H119.289V26H114.405ZM123.425 26.11C122.604 26.11 121.947 25.791 121.456 25.153C120.965 24.515 120.719 23.5873 120.719 22.37C120.719 21.1527 120.965 20.225 121.456 19.587C121.947 18.949 122.604 18.63 123.425 18.63C124.254 18.63 124.91 18.949 125.394 19.587C125.885 20.225 126.131 21.1527 126.131 22.37C126.131 23.5873 125.885 24.515 125.394 25.153C124.91 25.791 124.254 26.11 123.425 26.11ZM123.425 25.318C123.814 25.318 124.14 25.208 124.404 24.988C124.675 24.7607 124.877 24.427 125.009 23.987C125.148 23.547 125.218 23.008 125.218 22.37C125.218 21.732 125.148 21.193 125.009 20.753C124.877 20.313 124.675 19.983 124.404 19.763C124.14 19.5357 123.814 19.422 123.425 19.422C123.036 19.422 122.706 19.5357 122.435 19.763C122.171 19.983 121.969 20.313 121.83 20.753C121.698 21.193 121.632 21.732 121.632 22.37C121.632 23.008 121.698 23.547 121.83 23.987C121.969 24.427 122.171 24.7607 122.435 24.988C122.706 25.208 123.036 25.318 123.425 25.318ZM127.661 26V25.285C128.387 24.7497 128.992 24.2803 129.476 23.877C129.967 23.4737 130.359 23.107 130.653 22.777C130.946 22.447 131.155 22.1353 131.28 21.842C131.404 21.5413 131.467 21.2297 131.467 20.907C131.467 20.4743 131.327 20.126 131.049 19.862C130.777 19.5907 130.403 19.455 129.927 19.455C129.428 19.455 129.028 19.62 128.728 19.95C128.427 20.2727 128.251 20.7053 128.2 21.248L127.43 20.786C127.496 20.3607 127.631 19.9867 127.837 19.664C128.049 19.3413 128.332 19.0883 128.684 18.905C129.043 18.7217 129.468 18.63 129.96 18.63C130.334 18.63 130.667 18.685 130.961 18.795C131.261 18.905 131.518 19.0627 131.731 19.268C131.943 19.466 132.105 19.7043 132.215 19.983C132.332 20.2617 132.391 20.5697 132.391 20.907C132.391 21.3617 132.281 21.809 132.061 22.249C131.841 22.6817 131.478 23.1363 130.972 23.613C130.466 24.0897 129.78 24.6177 128.915 25.197V25.208C128.995 25.2007 129.105 25.197 129.245 25.197C129.391 25.1897 129.534 25.186 129.674 25.186C129.82 25.1787 129.93 25.175 130.004 25.175H132.545V26H127.661ZM135.548 26V20.676C135.548 20.5513 135.548 20.4193 135.548 20.28C135.555 20.1333 135.562 19.983 135.57 19.829C135.32 20.071 135.031 20.2837 134.701 20.467C134.371 20.643 134.033 20.7713 133.689 20.852L133.458 20.049C133.59 20.0343 133.755 19.9867 133.953 19.906C134.158 19.818 134.371 19.7117 134.591 19.587C134.818 19.455 135.027 19.3157 135.218 19.169C135.408 19.0223 135.555 18.8793 135.658 18.74H136.428V26H135.548Z" fill="#AEAEAE"/>
<defs>
<clipPath id="clip0_821_1745">
<rect width="28" height="28" fill="white" transform="translate(0 0.5)"/>
</clipPath>
</defs>
</svg>
