<svg width="113" height="32" viewBox="0 0 113 32" fill="none" xmlns="http://www.w3.org/2000/svg">
<g clip-path="url(#clip0_821_1745)">
<path d="M19.25 12.5C19.25 13.8924 18.6969 15.2277 17.7123 16.2123C16.7277 17.1969 15.3924 17.75 14 17.75C12.6076 17.75 11.2723 17.1969 10.2877 16.2123C9.30312 15.2277 8.75 13.8924 8.75 12.5C8.75 11.1076 9.30312 9.77226 10.2877 8.78769C11.2723 7.80312 12.6076 7.25 14 7.25C15.3924 7.25 16.7277 7.80312 17.7123 8.78769C18.6969 9.77226 19.25 11.1076 19.25 12.5V12.5Z" fill="#AEAEAE"/>
<path fill-rule="evenodd" clip-rule="evenodd" d="M0 16C0 12.287 1.475 8.72601 4.10051 6.10051C6.72601 3.475 10.287 2 14 2C17.713 2 21.274 3.475 23.8995 6.10051C26.525 8.72601 28 12.287 28 16C28 19.713 26.525 23.274 23.8995 25.8995C21.274 28.525 17.713 30 14 30C10.287 30 6.72601 28.525 4.10051 25.8995C1.475 23.274 0 19.713 0 16V16ZM14 3.75C11.6931 3.75012 9.43314 4.40163 7.4802 5.62955C5.52727 6.85746 3.96074 8.61187 2.96094 10.6908C1.96113 12.7698 1.56868 15.0888 1.82875 17.381C2.08882 19.6732 2.99084 21.8454 4.431 23.6475C5.6735 21.6455 8.40875 19.5 14 19.5C19.5912 19.5 22.3248 21.6437 23.569 23.6475C25.0092 21.8454 25.9112 19.6732 26.1713 17.381C26.4313 15.0888 26.0389 12.7698 25.0391 10.6908C24.0393 8.61187 22.4727 6.85746 20.5198 5.62955C18.5669 4.40163 16.3069 3.75012 14 3.75V3.75Z" fill="#AEAEAE"/>
</g>
<path d="M44.398 12H42.929L42.11 9.751H38.509L37.69 12H36.26L39.497 3.42H41.161L44.398 12ZM38.899 8.62H41.72L40.316 4.616L38.899 8.62ZM48.0809 12.13C47.5435 12.13 47.0539 11.9957 46.6119 11.727C46.1785 11.4583 45.8362 11.0727 45.5849 10.57C45.3335 10.0673 45.2079 9.465 45.2079 8.763C45.2079 8.035 45.3422 7.41967 45.6109 6.917C45.8795 6.41433 46.2392 6.033 46.6899 5.773C47.1405 5.50433 47.6345 5.37 48.1719 5.37C48.7265 5.37 49.1945 5.52167 49.5759 5.825C49.9572 6.12833 50.2129 6.52267 50.3429 7.008L50.1869 7.151V2.575H51.5779V12H50.3429L50.2389 10.232L50.4209 10.245C50.3602 10.635 50.2172 10.973 49.9919 11.259C49.7665 11.5363 49.4849 11.753 49.1469 11.909C48.8175 12.0563 48.4622 12.13 48.0809 12.13ZM48.3799 11.012C48.7525 11.012 49.0732 10.9167 49.3419 10.726C49.6105 10.5353 49.8185 10.2667 49.9659 9.92C50.1132 9.57333 50.1869 9.15733 50.1869 8.672C50.1869 8.22133 50.1132 7.83567 49.9659 7.515C49.8185 7.18567 49.6105 6.93433 49.3419 6.761C49.0819 6.58767 48.7785 6.501 48.4319 6.501C47.8512 6.501 47.4005 6.70033 47.0799 7.099C46.7592 7.49767 46.5989 8.048 46.5989 8.75C46.5989 9.452 46.7549 10.0067 47.0669 10.414C47.3789 10.8127 47.8165 11.012 48.3799 11.012ZM53.7353 12V5.5H54.9703L55.0353 6.592C55.2606 6.176 55.5596 5.86833 55.9323 5.669C56.3136 5.46967 56.7166 5.37 57.1413 5.37C57.6093 5.37 58.0383 5.47833 58.4283 5.695C58.8269 5.903 59.1259 6.21933 59.3253 6.644C59.4639 6.358 59.6546 6.11967 59.8973 5.929C60.1399 5.73833 60.4086 5.59967 60.7033 5.513C60.9979 5.41767 61.2883 5.37 61.5743 5.37C61.9903 5.37 62.3803 5.45667 62.7443 5.63C63.1083 5.80333 63.4029 6.06767 63.6283 6.423C63.8536 6.77833 63.9663 7.23333 63.9663 7.788V12H62.5753V8.009C62.5753 7.48033 62.4496 7.099 62.1983 6.865C61.9469 6.631 61.6263 6.514 61.2363 6.514C60.9329 6.514 60.6513 6.58767 60.3913 6.735C60.1399 6.88233 59.9363 7.10333 59.7803 7.398C59.6243 7.684 59.5463 8.03933 59.5463 8.464V12H58.1553V8.009C58.1553 7.48033 58.0296 7.099 57.7783 6.865C57.5269 6.631 57.2063 6.514 56.8163 6.514C56.5563 6.514 56.2963 6.58333 56.0363 6.722C55.7763 6.86067 55.5596 7.07733 55.3863 7.372C55.2129 7.66667 55.1263 8.05667 55.1263 8.542V12H53.7353ZM66.7771 4.408C66.4738 4.408 66.2398 4.33433 66.0751 4.187C65.9191 4.031 65.8411 3.81433 65.8411 3.537C65.8411 3.25967 65.9191 3.04733 66.0751 2.9C66.2398 2.75267 66.4738 2.679 66.7771 2.679C67.0718 2.679 67.2971 2.75267 67.4531 2.9C67.6178 3.04733 67.7001 3.25967 67.7001 3.537C67.7001 3.81433 67.6178 4.031 67.4531 4.187C67.2971 4.33433 67.0718 4.408 66.7771 4.408ZM67.4661 5.5V12H66.0751V5.5H67.4661ZM69.6425 12V5.5H70.8775L70.9685 7.19L70.7865 7.008C70.9078 6.63533 71.0811 6.32767 71.3065 6.085C71.5405 5.83367 71.8135 5.65167 72.1255 5.539C72.4461 5.42633 72.7841 5.37 73.1395 5.37C73.5988 5.37 74.0105 5.461 74.3745 5.643C74.7471 5.81633 75.0418 6.08067 75.2585 6.436C75.4751 6.79133 75.5835 7.242 75.5835 7.788V12H74.1925V8.217C74.1925 7.57567 74.0581 7.13367 73.7895 6.891C73.5295 6.63967 73.2001 6.514 72.8015 6.514C72.5155 6.514 72.2381 6.58333 71.9695 6.722C71.7008 6.852 71.4755 7.06433 71.2935 7.359C71.1201 7.65367 71.0335 8.048 71.0335 8.542V12H69.6425Z" fill="#212121"/>
<path d="M36.962 28V27.155C37.82 26.5223 38.535 25.9677 39.107 25.491C39.6877 25.0143 40.1513 24.581 40.498 24.191C40.8447 23.801 41.0917 23.4327 41.239 23.086C41.3863 22.7307 41.46 22.3623 41.46 21.981C41.46 21.4697 41.2953 21.058 40.966 20.746C40.6453 20.4253 40.2033 20.265 39.64 20.265C39.0507 20.265 38.5783 20.46 38.223 20.85C37.8677 21.2313 37.6597 21.7427 37.599 22.384L36.689 21.838C36.767 21.3353 36.9273 20.8933 37.17 20.512C37.4213 20.1307 37.755 19.8317 38.171 19.615C38.5957 19.3983 39.0983 19.29 39.679 19.29C40.121 19.29 40.5153 19.355 40.862 19.485C41.2173 19.615 41.5207 19.8013 41.772 20.044C42.0233 20.278 42.214 20.5597 42.344 20.889C42.4827 21.2183 42.552 21.5823 42.552 21.981C42.552 22.5183 42.422 23.047 42.162 23.567C41.902 24.0783 41.473 24.6157 40.875 25.179C40.277 25.7423 39.4667 26.3663 38.444 27.051V27.064C38.5393 27.0553 38.6693 27.051 38.834 27.051C39.0073 27.0423 39.1763 27.038 39.341 27.038C39.5143 27.0293 39.6443 27.025 39.731 27.025H42.734V28H36.962ZM44.5411 28V27.155C45.3991 26.5223 46.1141 25.9677 46.6861 25.491C47.2668 25.0143 47.7304 24.581 48.0771 24.191C48.4238 23.801 48.6708 23.4327 48.8181 23.086C48.9654 22.7307 49.0391 22.3623 49.0391 21.981C49.0391 21.4697 48.8744 21.058 48.5451 20.746C48.2244 20.4253 47.7824 20.265 47.2191 20.265C46.6298 20.265 46.1574 20.46 45.8021 20.85C45.4468 21.2313 45.2388 21.7427 45.1781 22.384L44.2681 21.838C44.3461 21.3353 44.5064 20.8933 44.7491 20.512C45.0004 20.1307 45.3341 19.8317 45.7501 19.615C46.1748 19.3983 46.6774 19.29 47.2581 19.29C47.7001 19.29 48.0944 19.355 48.4411 19.485C48.7964 19.615 49.0998 19.8013 49.3511 20.044C49.6024 20.278 49.7931 20.5597 49.9231 20.889C50.0618 21.2183 50.1311 21.5823 50.1311 21.981C50.1311 22.5183 50.0011 23.047 49.7411 23.567C49.4811 24.0783 49.0521 24.6157 48.4541 25.179C47.8561 25.7423 47.0458 26.3663 46.0231 27.051V27.064C46.1184 27.0553 46.2484 27.051 46.4131 27.051C46.5864 27.0423 46.7554 27.038 46.9201 27.038C47.0934 27.0293 47.2234 27.025 47.3101 27.025H50.3131V28H44.5411ZM65.2869 19.42V28H64.2989V22.605L64.4159 20.343H64.4029L61.5819 28H60.6979L57.8769 20.343H57.8639L57.9809 22.605V28H56.9929V19.42H58.5919L60.4769 24.633L61.1269 26.778H61.1529L61.8159 24.646L63.6879 19.42H65.2869ZM70.509 28.13C69.8937 28.13 69.3433 27.9957 68.858 27.727C68.3813 27.4583 68.0087 27.0727 67.74 26.57C67.4713 26.0587 67.337 25.452 67.337 24.75C67.337 24.048 67.4713 23.4457 67.74 22.943C68.0087 22.4317 68.377 22.0417 68.845 21.773C69.313 21.5043 69.846 21.37 70.444 21.37C71.0507 21.37 71.5663 21.5 71.991 21.76C72.4243 22.02 72.7537 22.3753 72.979 22.826C73.2043 23.268 73.317 23.7663 73.317 24.321C73.317 24.4683 73.3127 24.6027 73.304 24.724C73.2953 24.8453 73.2823 24.9537 73.265 25.049H68.013V24.126H72.81L72.277 24.23C72.277 23.606 72.1037 23.125 71.757 22.787C71.419 22.449 70.9727 22.28 70.418 22.28C69.9933 22.28 69.625 22.3797 69.313 22.579C69.0097 22.7697 68.7713 23.0513 68.598 23.424C68.4333 23.788 68.351 24.23 68.351 24.75C68.351 25.2613 68.4377 25.7033 68.611 26.076C68.7843 26.4487 69.027 26.7347 69.339 26.934C69.6597 27.1247 70.041 27.22 70.483 27.22C70.9597 27.22 71.3453 27.129 71.64 26.947C71.9433 26.765 72.186 26.518 72.368 26.206L73.187 26.687C73.0223 26.9817 72.81 27.2373 72.55 27.454C72.2987 27.6707 71.9997 27.8397 71.653 27.961C71.315 28.0737 70.9337 28.13 70.509 28.13ZM75.8149 20.252C75.5809 20.252 75.3903 20.1827 75.2429 20.044C75.1043 19.8967 75.0349 19.706 75.0349 19.472C75.0349 19.238 75.1043 19.0517 75.2429 18.913C75.3903 18.7657 75.5809 18.692 75.8149 18.692C76.0489 18.692 76.2353 18.7657 76.3739 18.913C76.5213 19.0517 76.5949 19.238 76.5949 19.472C76.5949 19.706 76.5213 19.8967 76.3739 20.044C76.2353 20.1827 76.0489 20.252 75.8149 20.252ZM76.3349 21.5V28H75.2949V21.5H76.3349ZM82.9317 28V27.155C83.7897 26.5223 84.5047 25.9677 85.0767 25.491C85.6574 25.0143 86.1211 24.581 86.4677 24.191C86.8144 23.801 87.0614 23.4327 87.2087 23.086C87.3561 22.7307 87.4297 22.3623 87.4297 21.981C87.4297 21.4697 87.2651 21.058 86.9357 20.746C86.6151 20.4253 86.1731 20.265 85.6097 20.265C85.0204 20.265 84.5481 20.46 84.1927 20.85C83.8374 21.2313 83.6294 21.7427 83.5687 22.384L82.6587 21.838C82.7367 21.3353 82.8971 20.8933 83.1397 20.512C83.3911 20.1307 83.7247 19.8317 84.1407 19.615C84.5654 19.3983 85.0681 19.29 85.6487 19.29C86.0907 19.29 86.4851 19.355 86.8317 19.485C87.1871 19.615 87.4904 19.8013 87.7417 20.044C87.9931 20.278 88.1837 20.5597 88.3137 20.889C88.4524 21.2183 88.5217 21.5823 88.5217 21.981C88.5217 22.5183 88.3917 23.047 88.1317 23.567C87.8717 24.0783 87.4427 24.6157 86.8447 25.179C86.2467 25.7423 85.4364 26.3663 84.4137 27.051V27.064C84.5091 27.0553 84.6391 27.051 84.8037 27.051C84.9771 27.0423 85.1461 27.038 85.3107 27.038C85.4841 27.0293 85.6141 27.025 85.7007 27.025H88.7037V28H82.9317ZM93.5918 28.13C92.6212 28.13 91.8455 27.753 91.2648 26.999C90.6842 26.245 90.3938 25.1487 90.3938 23.71C90.3938 22.2713 90.6842 21.175 91.2648 20.421C91.8455 19.667 92.6212 19.29 93.5918 19.29C94.5712 19.29 95.3468 19.667 95.9188 20.421C96.4995 21.175 96.7898 22.2713 96.7898 23.71C96.7898 25.1487 96.4995 26.245 95.9188 26.999C95.3468 27.753 94.5712 28.13 93.5918 28.13ZM93.5918 27.194C94.0512 27.194 94.4368 27.064 94.7488 26.804C95.0695 26.5353 95.3078 26.141 95.4638 25.621C95.6285 25.101 95.7108 24.464 95.7108 23.71C95.7108 22.956 95.6285 22.319 95.4638 21.799C95.3078 21.279 95.0695 20.889 94.7488 20.629C94.4368 20.3603 94.0512 20.226 93.5918 20.226C93.1325 20.226 92.7425 20.3603 92.4218 20.629C92.1098 20.889 91.8715 21.279 91.7068 21.799C91.5508 22.319 91.4728 22.956 91.4728 23.71C91.4728 24.464 91.5508 25.101 91.7068 25.621C91.8715 26.141 92.1098 26.5353 92.4218 26.804C92.7425 27.064 93.1325 27.194 93.5918 27.194ZM98.5977 28V27.155C99.4557 26.5223 100.171 25.9677 100.743 25.491C101.323 25.0143 101.787 24.581 102.134 24.191C102.48 23.801 102.727 23.4327 102.875 23.086C103.022 22.7307 103.096 22.3623 103.096 21.981C103.096 21.4697 102.931 21.058 102.602 20.746C102.281 20.4253 101.839 20.265 101.276 20.265C100.686 20.265 100.214 20.46 99.8587 20.85C99.5034 21.2313 99.2954 21.7427 99.2347 22.384L98.3247 21.838C98.4027 21.3353 98.5631 20.8933 98.8057 20.512C99.0571 20.1307 99.3907 19.8317 99.8067 19.615C100.231 19.3983 100.734 19.29 101.315 19.29C101.757 19.29 102.151 19.355 102.498 19.485C102.853 19.615 103.156 19.8013 103.408 20.044C103.659 20.278 103.85 20.5597 103.98 20.889C104.118 21.2183 104.188 21.5823 104.188 21.981C104.188 22.5183 104.058 23.047 103.798 23.567C103.538 24.0783 103.109 24.6157 102.511 25.179C101.913 25.7423 101.102 26.3663 100.08 27.051V27.064C100.175 27.0553 100.305 27.051 100.47 27.051C100.643 27.0423 100.812 27.038 100.977 27.038C101.15 27.0293 101.28 27.025 101.367 27.025H104.37V28H98.5977ZM106.177 28V27.155C107.035 26.5223 107.75 25.9677 108.322 25.491C108.903 25.0143 109.366 24.581 109.713 24.191C110.06 23.801 110.307 23.4327 110.454 23.086C110.601 22.7307 110.675 22.3623 110.675 21.981C110.675 21.4697 110.51 21.058 110.181 20.746C109.86 20.4253 109.418 20.265 108.855 20.265C108.266 20.265 107.793 20.46 107.438 20.85C107.083 21.2313 106.875 21.7427 106.814 22.384L105.904 21.838C105.982 21.3353 106.142 20.8933 106.385 20.512C106.636 20.1307 106.97 19.8317 107.386 19.615C107.811 19.3983 108.313 19.29 108.894 19.29C109.336 19.29 109.73 19.355 110.077 19.485C110.432 19.615 110.736 19.8013 110.987 20.044C111.238 20.278 111.429 20.5597 111.559 20.889C111.698 21.2183 111.767 21.5823 111.767 21.981C111.767 22.5183 111.637 23.047 111.377 23.567C111.117 24.0783 110.688 24.6157 110.09 25.179C109.492 25.7423 108.682 26.3663 107.659 27.051V27.064C107.754 27.0553 107.884 27.051 108.049 27.051C108.222 27.0423 108.391 27.038 108.556 27.038C108.729 27.0293 108.859 27.025 108.946 27.025H111.949V28H106.177Z" fill="#AEAEAE"/>
<defs>
<clipPath id="clip0_821_1745">
<rect width="28" height="28" fill="white" transform="translate(0 2)"/>
</clipPath>
</defs>
</svg>
