<svg width="123" height="29" viewBox="0 0 123 29" fill="none" xmlns="http://www.w3.org/2000/svg">
<g clip-path="url(#clip0_821_1745)">
<path d="M19.25 11C19.25 12.3924 18.6969 13.7277 17.7123 14.7123C16.7277 15.6969 15.3924 16.25 14 16.25C12.6076 16.25 11.2723 15.6969 10.2877 14.7123C9.30312 13.7277 8.75 12.3924 8.75 11C8.75 9.60761 9.30312 8.27226 10.2877 7.28769C11.2723 6.30312 12.6076 5.75 14 5.75C15.3924 5.75 16.7277 6.30312 17.7123 7.28769C18.6969 8.27226 19.25 9.60761 19.25 11Z" fill="#AEAEAE"/>
<path fill-rule="evenodd" clip-rule="evenodd" d="M0 14.5C0 10.787 1.475 7.22601 4.10051 4.60051C6.72601 1.975 10.287 0.5 14 0.5C17.713 0.5 21.274 1.975 23.8995 4.60051C26.525 7.22601 28 10.787 28 14.5C28 18.213 26.525 21.774 23.8995 24.3995C21.274 27.025 17.713 28.5 14 28.5C10.287 28.5 6.72601 27.025 4.10051 24.3995C1.475 21.774 0 18.213 0 14.5ZM14 2.25C11.6931 2.25012 9.43314 2.90163 7.4802 4.12955C5.52727 5.35746 3.96074 7.11187 2.96094 9.19084C1.96113 11.2698 1.56868 13.5888 1.82875 15.881C2.08882 18.1732 2.99084 20.3454 4.431 22.1475C5.6735 20.1455 8.40875 18 14 18C19.5912 18 22.3248 20.1437 23.569 22.1475C25.0092 20.3454 25.9112 18.1732 26.1713 15.881C26.4313 13.5888 26.0389 11.2698 25.0391 9.19084C24.0393 7.11187 22.4727 5.35746 20.5198 4.12955C18.5669 2.90163 16.3069 2.25012 14 2.25Z" fill="#AEAEAE"/>
</g>
<path d="M44.398 12H42.929L42.11 9.751H38.509L37.69 12H36.26L39.497 3.42H41.161L44.398 12ZM38.899 8.62H41.72L40.316 4.616L38.899 8.62ZM48.0809 12.13C47.5435 12.13 47.0539 11.9957 46.6119 11.727C46.1785 11.4583 45.8362 11.0727 45.5849 10.57C45.3335 10.0673 45.2079 9.465 45.2079 8.763C45.2079 8.035 45.3422 7.41967 45.6109 6.917C45.8795 6.41433 46.2392 6.033 46.6899 5.773C47.1405 5.50433 47.6345 5.37 48.1719 5.37C48.7265 5.37 49.1945 5.52167 49.5759 5.825C49.9572 6.12833 50.2129 6.52267 50.3429 7.008L50.1869 7.151V2.575H51.5779V12H50.3429L50.2389 10.232L50.4209 10.245C50.3602 10.635 50.2172 10.973 49.9919 11.259C49.7665 11.5363 49.4849 11.753 49.1469 11.909C48.8175 12.0563 48.4622 12.13 48.0809 12.13ZM48.3799 11.012C48.7525 11.012 49.0732 10.9167 49.3419 10.726C49.6105 10.5353 49.8185 10.2667 49.9659 9.92C50.1132 9.57333 50.1869 9.15733 50.1869 8.672C50.1869 8.22133 50.1132 7.83567 49.9659 7.515C49.8185 7.18567 49.6105 6.93433 49.3419 6.761C49.0819 6.58767 48.7785 6.501 48.4319 6.501C47.8512 6.501 47.4005 6.70033 47.0799 7.099C46.7592 7.49767 46.5989 8.048 46.5989 8.75C46.5989 9.452 46.7549 10.0067 47.0669 10.414C47.3789 10.8127 47.8165 11.012 48.3799 11.012ZM53.7353 12V5.5H54.9703L55.0353 6.592C55.2606 6.176 55.5596 5.86833 55.9323 5.669C56.3136 5.46967 56.7166 5.37 57.1413 5.37C57.6093 5.37 58.0383 5.47833 58.4283 5.695C58.8269 5.903 59.1259 6.21933 59.3253 6.644C59.4639 6.358 59.6546 6.11967 59.8973 5.929C60.1399 5.73833 60.4086 5.59967 60.7033 5.513C60.9979 5.41767 61.2883 5.37 61.5743 5.37C61.9903 5.37 62.3803 5.45667 62.7443 5.63C63.1083 5.80333 63.4029 6.06767 63.6283 6.423C63.8536 6.77833 63.9663 7.23333 63.9663 7.788V12H62.5753V8.009C62.5753 7.48033 62.4496 7.099 62.1983 6.865C61.9469 6.631 61.6263 6.514 61.2363 6.514C60.9329 6.514 60.6513 6.58767 60.3913 6.735C60.1399 6.88233 59.9363 7.10333 59.7803 7.398C59.6243 7.684 59.5463 8.03933 59.5463 8.464V12H58.1553V8.009C58.1553 7.48033 58.0296 7.099 57.7783 6.865C57.5269 6.631 57.2063 6.514 56.8163 6.514C56.5563 6.514 56.2963 6.58333 56.0363 6.722C55.7763 6.86067 55.5596 7.07733 55.3863 7.372C55.2129 7.66667 55.1263 8.05667 55.1263 8.542V12H53.7353ZM66.7771 4.408C66.4738 4.408 66.2398 4.33433 66.0751 4.187C65.9191 4.031 65.8411 3.81433 65.8411 3.537C65.8411 3.25967 65.9191 3.04733 66.0751 2.9C66.2398 2.75267 66.4738 2.679 66.7771 2.679C67.0718 2.679 67.2971 2.75267 67.4531 2.9C67.6178 3.04733 67.7001 3.25967 67.7001 3.537C67.7001 3.81433 67.6178 4.031 67.4531 4.187C67.2971 4.33433 67.0718 4.408 66.7771 4.408ZM67.4661 5.5V12H66.0751V5.5H67.4661ZM69.6425 12V5.5H70.8775L70.9685 7.19L70.7865 7.008C70.9078 6.63533 71.0811 6.32767 71.3065 6.085C71.5405 5.83367 71.8135 5.65167 72.1255 5.539C72.4461 5.42633 72.7841 5.37 73.1395 5.37C73.5988 5.37 74.0105 5.461 74.3745 5.643C74.7471 5.81633 75.0418 6.08067 75.2585 6.436C75.4751 6.79133 75.5835 7.242 75.5835 7.788V12H74.1925V8.217C74.1925 7.57567 74.0581 7.13367 73.7895 6.891C73.5295 6.63967 73.2001 6.514 72.8015 6.514C72.5155 6.514 72.2381 6.58333 71.9695 6.722C71.7008 6.852 71.4755 7.06433 71.2935 7.359C71.1201 7.65367 71.0335 8.048 71.0335 8.542V12H69.6425Z" fill="#212121"/>
<path d="M38.288 26V20.676C38.288 20.5513 38.288 20.4193 38.288 20.28C38.2953 20.1333 38.3027 19.983 38.31 19.829C38.0607 20.071 37.771 20.2837 37.441 20.467C37.111 20.643 36.7737 20.7713 36.429 20.852L36.198 20.049C36.33 20.0343 36.495 19.9867 36.693 19.906C36.8983 19.818 37.111 19.7117 37.331 19.587C37.5583 19.455 37.7673 19.3157 37.958 19.169C38.1487 19.0223 38.2953 18.8793 38.398 18.74H39.168V26H38.288ZM40.7261 18.74H46.0721V19.565C45.4635 20.2103 44.9648 20.874 44.5761 21.556C44.1948 22.2307 43.9161 22.9347 43.7401 23.668C43.5641 24.4013 43.4761 25.1787 43.4761 26H42.5741C42.5741 25.186 42.6731 24.3903 42.8711 23.613C43.0765 22.8283 43.3845 22.0767 43.7951 21.358C44.2058 20.6393 44.7155 19.9683 45.3241 19.345L45.4671 19.565H40.7261V18.74ZM56.4017 26H55.4667L54.6967 23.987H51.4077L50.6377 26H49.7137L52.5407 18.74H53.5857L56.4017 26ZM51.7267 23.162H54.3777L53.0467 19.587L51.7267 23.162ZM62.3435 19.488L62.5415 20.269C62.5341 20.269 62.5231 20.269 62.5085 20.269C62.4938 20.269 62.4791 20.269 62.4645 20.269C62.1051 20.269 61.8265 20.3423 61.6285 20.489C61.4378 20.6283 61.3425 20.8557 61.3425 21.171L60.8035 20.896C60.8035 20.61 60.8695 20.3607 61.0015 20.148C61.1335 19.9353 61.3131 19.774 61.5405 19.664C61.7678 19.5467 62.0171 19.488 62.2885 19.488C62.2958 19.488 62.3031 19.488 62.3105 19.488C62.3251 19.488 62.3361 19.488 62.3435 19.488ZM60.6715 25.296C61.1921 25.296 61.5991 25.417 61.8925 25.659C62.1858 25.8937 62.3325 26.209 62.3325 26.605C62.3325 26.9643 62.2115 27.276 61.9695 27.54C61.7348 27.804 61.4158 28.0057 61.0125 28.145C60.6165 28.2917 60.1691 28.365 59.6705 28.365C58.8051 28.365 58.1561 28.2183 57.7235 27.925C57.2981 27.6317 57.0855 27.2797 57.0855 26.869C57.0855 26.5757 57.1808 26.3117 57.3715 26.077C57.5695 25.8497 57.8995 25.7213 58.3615 25.692L58.2845 25.857C58.0351 25.791 57.8225 25.681 57.6465 25.527C57.4778 25.3657 57.3935 25.1347 57.3935 24.834C57.3935 24.5333 57.5035 24.2767 57.7235 24.064C57.9508 23.844 58.2845 23.7083 58.7245 23.657L59.3075 23.954H59.1975C58.8381 23.9907 58.5815 24.0823 58.4275 24.229C58.2808 24.3683 58.2075 24.5223 58.2075 24.691C58.2075 24.8963 58.2808 25.0503 58.4275 25.153C58.5815 25.2483 58.7941 25.296 59.0655 25.296H60.6715ZM59.6595 27.628C60.0848 27.628 60.4331 27.584 60.7045 27.496C60.9831 27.408 61.1885 27.2943 61.3205 27.155C61.4525 27.0157 61.5185 26.8653 61.5185 26.704C61.5185 26.506 61.4378 26.3483 61.2765 26.231C61.1225 26.1137 60.8401 26.055 60.4295 26.055H58.7355C58.5008 26.055 58.3028 26.1137 58.1415 26.231C57.9801 26.3557 57.8995 26.5243 57.8995 26.737C57.8995 27.0083 58.0535 27.2247 58.3615 27.386C58.6768 27.5473 59.1095 27.628 59.6595 27.628ZM59.5825 20.39C60.0225 20.39 60.4111 20.4707 60.7485 20.632C61.0931 20.786 61.3608 21.0023 61.5515 21.281C61.7421 21.5597 61.8375 21.8823 61.8375 22.249C61.8375 22.6083 61.7421 22.931 61.5515 23.217C61.3608 23.4957 61.0931 23.7157 60.7485 23.877C60.4111 24.031 60.0225 24.108 59.5825 24.108C58.8565 24.108 58.2991 23.9357 57.9105 23.591C57.5218 23.239 57.3275 22.7917 57.3275 22.249C57.3275 21.8823 57.4228 21.5597 57.6135 21.281C57.8115 21.0023 58.0791 20.786 58.4165 20.632C58.7538 20.4707 59.1425 20.39 59.5825 20.39ZM59.5825 21.105C59.2011 21.105 58.8821 21.2113 58.6255 21.424C58.3688 21.6293 58.2405 21.9043 58.2405 22.249C58.2405 22.5863 58.3688 22.8613 58.6255 23.074C58.8821 23.2867 59.2011 23.393 59.5825 23.393C59.9638 23.393 60.2828 23.2867 60.5395 23.074C60.7961 22.8613 60.9245 22.5863 60.9245 22.249C60.9245 21.9043 60.7961 21.6293 60.5395 21.424C60.2828 21.2113 59.9638 21.105 59.5825 21.105ZM65.5579 26.11C65.2059 26.11 64.8723 26.044 64.5569 25.912C64.2489 25.78 63.9959 25.5673 63.7979 25.274C63.6073 24.9733 63.5119 24.5847 63.5119 24.108V20.5H64.3919V23.877C64.3919 24.4343 64.5129 24.8193 64.7549 25.032C64.9969 25.2373 65.3379 25.34 65.7779 25.34C65.9833 25.34 66.1849 25.307 66.3829 25.241C66.5809 25.1677 66.7569 25.0577 66.9109 24.911C67.0723 24.757 67.1969 24.5627 67.2849 24.328C67.3803 24.0933 67.4279 23.8147 67.4279 23.492V20.5H68.3079V26H67.5379L67.4829 25.164C67.2923 25.494 67.0319 25.736 66.7019 25.89C66.3793 26.0367 65.9979 26.11 65.5579 26.11ZM72.336 26.11C71.8007 26.11 71.3057 25.9963 70.851 25.769C70.4037 25.5417 70.059 25.219 69.817 24.801L70.565 24.262C70.7263 24.5993 70.961 24.8633 71.269 25.054C71.5843 25.2447 71.962 25.34 72.402 25.34C72.7907 25.34 73.095 25.2667 73.315 25.12C73.535 24.966 73.645 24.768 73.645 24.526C73.645 24.372 73.5937 24.2327 73.491 24.108C73.3957 23.976 73.2087 23.8807 72.93 23.822L71.61 23.547C71.0747 23.437 70.6897 23.2537 70.455 22.997C70.2277 22.7403 70.114 22.4213 70.114 22.04C70.114 21.7393 70.1983 21.4643 70.367 21.215C70.543 20.9657 70.7887 20.7677 71.104 20.621C71.4267 20.467 71.8043 20.39 72.237 20.39C72.7797 20.39 73.238 20.4963 73.612 20.709C73.986 20.9217 74.2647 21.2223 74.448 21.611L73.711 22.095C73.5863 21.7723 73.3847 21.5377 73.106 21.391C72.8273 21.237 72.5377 21.16 72.237 21.16C71.973 21.16 71.7457 21.1967 71.555 21.27C71.3717 21.3433 71.2287 21.446 71.126 21.578C71.0307 21.7027 70.983 21.8457 70.983 22.007C70.983 22.1683 71.038 22.3187 71.148 22.458C71.258 22.59 71.4633 22.6853 71.764 22.744L73.139 23.03C73.6523 23.1327 74.0117 23.3013 74.217 23.536C74.4223 23.7707 74.525 24.0567 74.525 24.394C74.525 24.7387 74.4333 25.043 74.25 25.307C74.0667 25.5637 73.81 25.7617 73.48 25.901C73.15 26.0403 72.7687 26.11 72.336 26.11ZM77.4548 18.938V24.482C77.4548 24.7533 77.5318 24.955 77.6858 25.087C77.8398 25.219 78.0378 25.285 78.2798 25.285C78.4925 25.285 78.6758 25.2483 78.8298 25.175C78.9838 25.1017 79.1231 25.0027 79.2478 24.878L79.5558 25.615C79.3871 25.769 79.1855 25.89 78.9508 25.978C78.7235 26.066 78.4595 26.11 78.1588 26.11C77.8801 26.11 77.6198 26.0623 77.3778 25.967C77.1358 25.8643 76.9415 25.7067 76.7948 25.494C76.6555 25.274 76.5821 24.988 76.5748 24.636V19.18L77.4548 18.938ZM79.4568 20.5V21.259H75.4748V20.5H79.4568ZM82.7562 26.11C82.4042 26.11 82.0705 26.044 81.7552 25.912C81.4472 25.78 81.1942 25.5673 80.9962 25.274C80.8055 24.9733 80.7102 24.5847 80.7102 24.108V20.5H81.5902V23.877C81.5902 24.4343 81.7112 24.8193 81.9532 25.032C82.1952 25.2373 82.5362 25.34 82.9762 25.34C83.1815 25.34 83.3832 25.307 83.5812 25.241C83.7792 25.1677 83.9552 25.0577 84.1092 24.911C84.2705 24.757 84.3952 24.5627 84.4832 24.328C84.5785 24.0933 84.6262 23.8147 84.6262 23.492V20.5H85.5062V26H84.7362L84.6812 25.164C84.4905 25.494 84.2302 25.736 83.9002 25.89C83.5775 26.0367 83.1962 26.11 82.7562 26.11ZM89.5343 26.11C88.9989 26.11 88.5039 25.9963 88.0493 25.769C87.6019 25.5417 87.2573 25.219 87.0153 24.801L87.7633 24.262C87.9246 24.5993 88.1593 24.8633 88.4673 25.054C88.7826 25.2447 89.1603 25.34 89.6003 25.34C89.9889 25.34 90.2933 25.2667 90.5133 25.12C90.7333 24.966 90.8433 24.768 90.8433 24.526C90.8433 24.372 90.7919 24.2327 90.6893 24.108C90.5939 23.976 90.4069 23.8807 90.1283 23.822L88.8083 23.547C88.2729 23.437 87.8879 23.2537 87.6533 22.997C87.4259 22.7403 87.3123 22.4213 87.3123 22.04C87.3123 21.7393 87.3966 21.4643 87.5653 21.215C87.7413 20.9657 87.9869 20.7677 88.3023 20.621C88.6249 20.467 89.0026 20.39 89.4352 20.39C89.9779 20.39 90.4363 20.4963 90.8103 20.709C91.1843 20.9217 91.4629 21.2223 91.6463 21.611L90.9093 22.095C90.7846 21.7723 90.5829 21.5377 90.3043 21.391C90.0256 21.237 89.7359 21.16 89.4352 21.16C89.1713 21.16 88.9439 21.1967 88.7533 21.27C88.5699 21.3433 88.4269 21.446 88.3243 21.578C88.2289 21.7027 88.1813 21.8457 88.1813 22.007C88.1813 22.1683 88.2363 22.3187 88.3463 22.458C88.4563 22.59 88.6616 22.6853 88.9623 22.744L90.3373 23.03C90.8506 23.1327 91.2099 23.3013 91.4153 23.536C91.6206 23.7707 91.7233 24.0567 91.7233 24.394C91.7233 24.7387 91.6316 25.043 91.4483 25.307C91.2649 25.5637 91.0083 25.7617 90.6783 25.901C90.3483 26.0403 89.9669 26.11 89.5343 26.11ZM96.8951 26V25.285C97.6211 24.7497 98.2261 24.2803 98.7101 23.877C99.2014 23.4737 99.5937 23.107 99.8871 22.777C100.18 22.447 100.389 22.1353 100.514 21.842C100.639 21.5413 100.701 21.2297 100.701 20.907C100.701 20.4743 100.562 20.126 100.283 19.862C100.012 19.5907 99.6377 19.455 99.1611 19.455C98.6624 19.455 98.2627 19.62 97.9621 19.95C97.6614 20.2727 97.4854 20.7053 97.4341 21.248L96.6641 20.786C96.7301 20.3607 96.8657 19.9867 97.0711 19.664C97.2837 19.3413 97.5661 19.0883 97.9181 18.905C98.2774 18.7217 98.7027 18.63 99.1941 18.63C99.5681 18.63 99.9017 18.685 100.195 18.795C100.496 18.905 100.752 19.0627 100.965 19.268C101.178 19.466 101.339 19.7043 101.449 19.983C101.566 20.2617 101.625 20.5697 101.625 20.907C101.625 21.3617 101.515 21.809 101.295 22.249C101.075 22.6817 100.712 23.1363 100.206 23.613C99.7001 24.0897 99.0144 24.6177 98.1491 25.197V25.208C98.2297 25.2007 98.3397 25.197 98.4791 25.197C98.6257 25.1897 98.7687 25.186 98.9081 25.186C99.0547 25.1787 99.1647 25.175 99.2381 25.175H101.779V26H96.8951ZM105.915 26.11C105.094 26.11 104.437 25.791 103.946 25.153C103.455 24.515 103.209 23.5873 103.209 22.37C103.209 21.1527 103.455 20.225 103.946 19.587C104.437 18.949 105.094 18.63 105.915 18.63C106.744 18.63 107.4 18.949 107.884 19.587C108.375 20.225 108.621 21.1527 108.621 22.37C108.621 23.5873 108.375 24.515 107.884 25.153C107.4 25.791 106.744 26.11 105.915 26.11ZM105.915 25.318C106.304 25.318 106.63 25.208 106.894 24.988C107.165 24.7607 107.367 24.427 107.499 23.987C107.638 23.547 107.708 23.008 107.708 22.37C107.708 21.732 107.638 21.193 107.499 20.753C107.367 20.313 107.165 19.983 106.894 19.763C106.63 19.5357 106.304 19.422 105.915 19.422C105.526 19.422 105.196 19.5357 104.925 19.763C104.661 19.983 104.459 20.313 104.32 20.753C104.188 21.193 104.122 21.732 104.122 22.37C104.122 23.008 104.188 23.547 104.32 23.987C104.459 24.427 104.661 24.7607 104.925 24.988C105.196 25.208 105.526 25.318 105.915 25.318ZM110.151 26V25.285C110.877 24.7497 111.482 24.2803 111.966 23.877C112.457 23.4737 112.85 23.107 113.143 22.777C113.436 22.447 113.645 22.1353 113.77 21.842C113.895 21.5413 113.957 21.2297 113.957 20.907C113.957 20.4743 113.818 20.126 113.539 19.862C113.268 19.5907 112.894 19.455 112.417 19.455C111.918 19.455 111.519 19.62 111.218 19.95C110.917 20.2727 110.741 20.7053 110.69 21.248L109.92 20.786C109.986 20.3607 110.122 19.9867 110.327 19.664C110.54 19.3413 110.822 19.0883 111.174 18.905C111.533 18.7217 111.959 18.63 112.45 18.63C112.824 18.63 113.158 18.685 113.451 18.795C113.752 18.905 114.008 19.0627 114.221 19.268C114.434 19.466 114.595 19.7043 114.705 19.983C114.822 20.2617 114.881 20.5697 114.881 20.907C114.881 21.3617 114.771 21.809 114.551 22.249C114.331 22.6817 113.968 23.1363 113.462 23.613C112.956 24.0897 112.27 24.6177 111.405 25.197V25.208C111.486 25.2007 111.596 25.197 111.735 25.197C111.882 25.1897 112.025 25.186 112.164 25.186C112.311 25.1787 112.421 25.175 112.494 25.175H115.035V26H110.151ZM116.564 26V25.285C117.29 24.7497 117.895 24.2803 118.379 23.877C118.87 23.4737 119.263 23.107 119.556 22.777C119.849 22.447 120.058 22.1353 120.183 21.842C120.308 21.5413 120.37 21.2297 120.37 20.907C120.37 20.4743 120.231 20.126 119.952 19.862C119.681 19.5907 119.307 19.455 118.83 19.455C118.331 19.455 117.932 19.62 117.631 19.95C117.33 20.2727 117.154 20.7053 117.103 21.248L116.333 20.786C116.399 20.3607 116.535 19.9867 116.74 19.664C116.953 19.3413 117.235 19.0883 117.587 18.905C117.946 18.7217 118.372 18.63 118.863 18.63C119.237 18.63 119.571 18.685 119.864 18.795C120.165 18.905 120.421 19.0627 120.634 19.268C120.847 19.466 121.008 19.7043 121.118 19.983C121.235 20.2617 121.294 20.5697 121.294 20.907C121.294 21.3617 121.184 21.809 120.964 22.249C120.744 22.6817 120.381 23.1363 119.875 23.613C119.369 24.0897 118.683 24.6177 117.818 25.197V25.208C117.899 25.2007 118.009 25.197 118.148 25.197C118.295 25.1897 118.438 25.186 118.577 25.186C118.724 25.1787 118.834 25.175 118.907 25.175H121.448V26H116.564Z" fill="#AEAEAE"/>
<defs>
<clipPath id="clip0_821_1745">
<rect width="28" height="28" fill="white" transform="translate(0 0.5)"/>
</clipPath>
</defs>
</svg>
