<svg width="159" height="32" viewBox="0 0 159 32" fill="none" xmlns="http://www.w3.org/2000/svg">
<g clip-path="url(#clip0_821_1745)">
<path d="M19.25 12.5C19.25 13.8924 18.6969 15.2277 17.7123 16.2123C16.7277 17.1969 15.3924 17.75 14 17.75C12.6076 17.75 11.2723 17.1969 10.2877 16.2123C9.30312 15.2277 8.75 13.8924 8.75 12.5C8.75 11.1076 9.30312 9.77226 10.2877 8.78769C11.2723 7.80312 12.6076 7.25 14 7.25C15.3924 7.25 16.7277 7.80312 17.7123 8.78769C18.6969 9.77226 19.25 11.1076 19.25 12.5V12.5Z" fill="#AEAEAE"/>
<path fill-rule="evenodd" clip-rule="evenodd" d="M0 16C0 12.287 1.475 8.72601 4.10051 6.10051C6.72601 3.475 10.287 2 14 2C17.713 2 21.274 3.475 23.8995 6.10051C26.525 8.72601 28 12.287 28 16C28 19.713 26.525 23.274 23.8995 25.8995C21.274 28.525 17.713 30 14 30C10.287 30 6.72601 28.525 4.10051 25.8995C1.475 23.274 0 19.713 0 16V16ZM14 3.75C11.6931 3.75012 9.43314 4.40163 7.4802 5.62955C5.52727 6.85746 3.96074 8.61187 2.96094 10.6908C1.96113 12.7698 1.56868 15.0888 1.82875 17.381C2.08882 19.6732 2.99084 21.8454 4.431 23.6475C5.6735 21.6455 8.40875 19.5 14 19.5C19.5912 19.5 22.3248 21.6437 23.569 23.6475C25.0092 21.8454 25.9112 19.6732 26.1713 17.381C26.4313 15.0888 26.0389 12.7698 25.0391 10.6908C24.0393 8.61187 22.4727 6.85746 20.5198 5.62955C18.5669 4.40163 16.3069 3.75012 14 3.75V3.75Z" fill="#AEAEAE"/>
</g>
<path d="M44.398 12H42.929L42.11 9.751H38.509L37.69 12H36.26L39.497 3.42H41.161L44.398 12ZM38.899 8.62H41.72L40.316 4.616L38.899 8.62ZM48.0809 12.13C47.5435 12.13 47.0539 11.9957 46.6119 11.727C46.1785 11.4583 45.8362 11.0727 45.5849 10.57C45.3335 10.0673 45.2079 9.465 45.2079 8.763C45.2079 8.035 45.3422 7.41967 45.6109 6.917C45.8795 6.41433 46.2392 6.033 46.6899 5.773C47.1405 5.50433 47.6345 5.37 48.1719 5.37C48.7265 5.37 49.1945 5.52167 49.5759 5.825C49.9572 6.12833 50.2129 6.52267 50.3429 7.008L50.1869 7.151V2.575H51.5779V12H50.3429L50.2389 10.232L50.4209 10.245C50.3602 10.635 50.2172 10.973 49.9919 11.259C49.7665 11.5363 49.4849 11.753 49.1469 11.909C48.8175 12.0563 48.4622 12.13 48.0809 12.13ZM48.3799 11.012C48.7525 11.012 49.0732 10.9167 49.3419 10.726C49.6105 10.5353 49.8185 10.2667 49.9659 9.92C50.1132 9.57333 50.1869 9.15733 50.1869 8.672C50.1869 8.22133 50.1132 7.83567 49.9659 7.515C49.8185 7.18567 49.6105 6.93433 49.3419 6.761C49.0819 6.58767 48.7785 6.501 48.4319 6.501C47.8512 6.501 47.4005 6.70033 47.0799 7.099C46.7592 7.49767 46.5989 8.048 46.5989 8.75C46.5989 9.452 46.7549 10.0067 47.0669 10.414C47.3789 10.8127 47.8165 11.012 48.3799 11.012ZM53.7353 12V5.5H54.9703L55.0353 6.592C55.2606 6.176 55.5596 5.86833 55.9323 5.669C56.3136 5.46967 56.7166 5.37 57.1413 5.37C57.6093 5.37 58.0383 5.47833 58.4283 5.695C58.8269 5.903 59.1259 6.21933 59.3253 6.644C59.4639 6.358 59.6546 6.11967 59.8973 5.929C60.1399 5.73833 60.4086 5.59967 60.7033 5.513C60.9979 5.41767 61.2883 5.37 61.5743 5.37C61.9903 5.37 62.3803 5.45667 62.7443 5.63C63.1083 5.80333 63.4029 6.06767 63.6283 6.423C63.8536 6.77833 63.9663 7.23333 63.9663 7.788V12H62.5753V8.009C62.5753 7.48033 62.4496 7.099 62.1983 6.865C61.9469 6.631 61.6263 6.514 61.2363 6.514C60.9329 6.514 60.6513 6.58767 60.3913 6.735C60.1399 6.88233 59.9363 7.10333 59.7803 7.398C59.6243 7.684 59.5463 8.03933 59.5463 8.464V12H58.1553V8.009C58.1553 7.48033 58.0296 7.099 57.7783 6.865C57.5269 6.631 57.2063 6.514 56.8163 6.514C56.5563 6.514 56.2963 6.58333 56.0363 6.722C55.7763 6.86067 55.5596 7.07733 55.3863 7.372C55.2129 7.66667 55.1263 8.05667 55.1263 8.542V12H53.7353ZM66.7771 4.408C66.4738 4.408 66.2398 4.33433 66.0751 4.187C65.9191 4.031 65.8411 3.81433 65.8411 3.537C65.8411 3.25967 65.9191 3.04733 66.0751 2.9C66.2398 2.75267 66.4738 2.679 66.7771 2.679C67.0718 2.679 67.2971 2.75267 67.4531 2.9C67.6178 3.04733 67.7001 3.25967 67.7001 3.537C67.7001 3.81433 67.6178 4.031 67.4531 4.187C67.2971 4.33433 67.0718 4.408 66.7771 4.408ZM67.4661 5.5V12H66.0751V5.5H67.4661ZM69.6425 12V5.5H70.8775L70.9685 7.19L70.7865 7.008C70.9078 6.63533 71.0811 6.32767 71.3065 6.085C71.5405 5.83367 71.8135 5.65167 72.1255 5.539C72.4461 5.42633 72.7841 5.37 73.1395 5.37C73.5988 5.37 74.0105 5.461 74.3745 5.643C74.7471 5.81633 75.0418 6.08067 75.2585 6.436C75.4751 6.79133 75.5835 7.242 75.5835 7.788V12H74.1925V8.217C74.1925 7.57567 74.0581 7.13367 73.7895 6.891C73.5295 6.63967 73.2001 6.514 72.8015 6.514C72.5155 6.514 72.2381 6.58333 71.9695 6.722C71.7008 6.852 71.4755 7.06433 71.2935 7.359C71.1201 7.65367 71.0335 8.048 71.0335 8.542V12H69.6425Z" fill="#212121"/>
<path d="M40.043 28.13C39.0723 28.13 38.2967 27.753 37.716 26.999C37.1353 26.245 36.845 25.1487 36.845 23.71C36.845 22.2713 37.1353 21.175 37.716 20.421C38.2967 19.667 39.0723 19.29 40.043 19.29C41.0223 19.29 41.798 19.667 42.37 20.421C42.9507 21.175 43.241 22.2713 43.241 23.71C43.241 25.1487 42.9507 26.245 42.37 26.999C41.798 27.753 41.0223 28.13 40.043 28.13ZM40.043 27.194C40.5023 27.194 40.888 27.064 41.2 26.804C41.5207 26.5353 41.759 26.141 41.915 25.621C42.0797 25.101 42.162 24.464 42.162 23.71C42.162 22.956 42.0797 22.319 41.915 21.799C41.759 21.279 41.5207 20.889 41.2 20.629C40.888 20.3603 40.5023 20.226 40.043 20.226C39.5837 20.226 39.1937 20.3603 38.873 20.629C38.561 20.889 38.3227 21.279 38.158 21.799C38.002 22.319 37.924 22.956 37.924 23.71C37.924 24.464 38.002 25.101 38.158 25.621C38.3227 26.141 38.561 26.5353 38.873 26.804C39.1937 27.064 39.5837 27.194 40.043 27.194ZM47.603 28.13C46.8403 28.13 46.1643 27.9523 45.575 27.597C44.9943 27.233 44.6 26.7347 44.392 26.102L45.432 25.569C45.536 25.8897 45.679 26.1713 45.861 26.414C46.043 26.648 46.2813 26.83 46.576 26.96C46.8793 27.09 47.2563 27.155 47.707 27.155C48.0883 27.155 48.409 27.0857 48.669 26.947C48.929 26.8083 49.1283 26.622 49.267 26.388C49.4057 26.1453 49.475 25.868 49.475 25.556C49.475 25.244 49.4143 24.984 49.293 24.776C49.1803 24.568 48.9983 24.4163 48.747 24.321C48.4957 24.217 48.1663 24.165 47.759 24.165C47.6637 24.165 47.5597 24.1693 47.447 24.178C47.3343 24.178 47.2173 24.1867 47.096 24.204V23.164C47.174 23.1727 47.2477 23.177 47.317 23.177C47.395 23.177 47.4643 23.177 47.525 23.177C48.1577 23.177 48.6083 23.0557 48.877 22.813C49.1457 22.5617 49.28 22.1717 49.28 21.643C49.28 21.1923 49.1413 20.85 48.864 20.616C48.5867 20.382 48.1923 20.265 47.681 20.265C47.135 20.265 46.719 20.3863 46.433 20.629C46.147 20.863 45.9217 21.1837 45.757 21.591L44.769 21.123C44.9077 20.759 45.1157 20.4383 45.393 20.161C45.6703 19.8837 46.004 19.667 46.394 19.511C46.7927 19.355 47.2303 19.277 47.707 19.277C48.305 19.277 48.799 19.381 49.189 19.589C49.579 19.7883 49.8693 20.057 50.06 20.395C50.2593 20.733 50.359 21.1057 50.359 21.513C50.359 21.825 50.3157 22.1067 50.229 22.358C50.1423 22.6007 50.021 22.813 49.865 22.995C49.7177 23.177 49.5487 23.3243 49.358 23.437C49.1673 23.541 48.9637 23.6103 48.747 23.645V23.671C49.033 23.6797 49.2843 23.736 49.501 23.84C49.7263 23.944 49.917 24.0827 50.073 24.256C50.229 24.4293 50.346 24.6287 50.424 24.854C50.5107 25.0707 50.554 25.3003 50.554 25.543C50.554 26.0457 50.4283 26.492 50.177 26.882C49.9343 27.272 49.592 27.5797 49.15 27.805C48.708 28.0217 48.1923 28.13 47.603 28.13ZM60.0028 19.29C60.7568 19.29 61.4068 19.446 61.9528 19.758C62.4988 20.0613 62.9538 20.512 63.3178 21.11L62.4468 21.786C62.1261 21.2313 61.7621 20.8413 61.3548 20.616C60.9561 20.382 60.4708 20.265 59.8988 20.265C59.4394 20.265 59.0581 20.33 58.7548 20.46C58.4601 20.59 58.2434 20.7633 58.1048 20.98C57.9661 21.188 57.8968 21.4263 57.8968 21.695C57.8968 21.9983 57.9921 22.267 58.1828 22.501C58.3734 22.7263 58.7548 22.904 59.3268 23.034L61.1858 23.45C62.0091 23.632 62.5811 23.9093 62.9018 24.282C63.2311 24.646 63.3958 25.101 63.3958 25.647C63.3958 26.1323 63.2571 26.5657 62.9798 26.947C62.7111 27.3197 62.3298 27.61 61.8358 27.818C61.3418 28.026 60.7611 28.13 60.0938 28.13C59.4698 28.13 58.9194 28.0477 58.4428 27.883C57.9748 27.7097 57.5718 27.48 57.2338 27.194C56.8958 26.908 56.6184 26.5873 56.4018 26.232L57.3118 25.491C57.4764 25.8203 57.6888 26.1107 57.9488 26.362C58.2088 26.6133 58.5208 26.8083 58.8848 26.947C59.2574 27.0857 59.6821 27.155 60.1588 27.155C60.6008 27.155 60.9821 27.103 61.3028 26.999C61.6321 26.8863 61.8834 26.726 62.0568 26.518C62.2301 26.3013 62.3168 26.0413 62.3168 25.738C62.3168 25.4607 62.2258 25.2137 62.0438 24.997C61.8618 24.7717 61.5194 24.6027 61.0168 24.49L59.0018 24.035C58.4731 23.9137 58.0441 23.749 57.7148 23.541C57.3941 23.3243 57.1601 23.073 57.0128 22.787C56.8741 22.4923 56.8048 22.176 56.8048 21.838C56.8048 21.3787 56.9304 20.9583 57.1818 20.577C57.4418 20.187 57.8101 19.875 58.2868 19.641C58.7721 19.407 59.3441 19.29 60.0028 19.29ZM68.0969 28.13C67.4816 28.13 66.9312 27.9957 66.4459 27.727C65.9692 27.4583 65.5966 27.0727 65.3279 26.57C65.0592 26.0587 64.9249 25.452 64.9249 24.75C64.9249 24.048 65.0592 23.4457 65.3279 22.943C65.5966 22.4317 65.9649 22.0417 66.4329 21.773C66.9009 21.5043 67.4339 21.37 68.0319 21.37C68.6386 21.37 69.1542 21.5 69.5789 21.76C70.0122 22.02 70.3416 22.3753 70.5669 22.826C70.7922 23.268 70.9049 23.7663 70.9049 24.321C70.9049 24.4683 70.9006 24.6027 70.8919 24.724C70.8832 24.8453 70.8702 24.9537 70.8529 25.049H65.6009V24.126H70.3979L69.8649 24.23C69.8649 23.606 69.6916 23.125 69.3449 22.787C69.0069 22.449 68.5606 22.28 68.0059 22.28C67.5812 22.28 67.2129 22.3797 66.9009 22.579C66.5976 22.7697 66.3592 23.0513 66.1859 23.424C66.0212 23.788 65.9389 24.23 65.9389 24.75C65.9389 25.2613 66.0256 25.7033 66.1989 26.076C66.3722 26.4487 66.6149 26.7347 66.9269 26.934C67.2476 27.1247 67.6289 27.22 68.0709 27.22C68.5476 27.22 68.9332 27.129 69.2279 26.947C69.5312 26.765 69.7739 26.518 69.9559 26.206L70.7749 26.687C70.6102 26.9817 70.3979 27.2373 70.1379 27.454C69.8866 27.6707 69.5876 27.8397 69.2409 27.961C68.9029 28.0737 68.5216 28.13 68.0969 28.13ZM72.8828 30.73V21.5H73.7928L73.8838 23.086L73.7408 22.904C73.8535 22.6007 74.0225 22.3363 74.2478 22.111C74.4732 21.877 74.7462 21.695 75.0668 21.565C75.3875 21.435 75.7342 21.37 76.1068 21.37C76.6355 21.37 77.1208 21.5043 77.5628 21.773C78.0135 22.0417 78.3732 22.4273 78.6418 22.93C78.9105 23.4327 79.0448 24.0393 79.0448 24.75C79.0448 25.452 78.9062 26.0587 78.6288 26.57C78.3602 27.0727 78.0005 27.4583 77.5498 27.727C77.0992 27.9957 76.6052 28.13 76.0678 28.13C75.5305 28.13 75.0582 28 74.6508 27.74C74.2522 27.4713 73.9662 27.1333 73.7928 26.726L73.9228 26.531V30.73H72.8828ZM75.9638 27.22C76.6052 27.22 77.1035 26.9947 77.4588 26.544C77.8228 26.0933 78.0048 25.4953 78.0048 24.75C78.0048 24.0047 77.8272 23.4067 77.4718 22.956C77.1252 22.5053 76.6355 22.28 76.0028 22.28C75.5868 22.28 75.2228 22.384 74.9108 22.592C74.5988 22.7913 74.3562 23.0773 74.1828 23.45C74.0095 23.814 73.9228 24.2473 73.9228 24.75C73.9228 25.244 74.0052 25.6773 74.1698 26.05C74.3432 26.4227 74.5815 26.713 74.8848 26.921C75.1968 27.1203 75.5565 27.22 75.9638 27.22ZM82.453 19.654V26.206C82.453 26.5267 82.544 26.765 82.726 26.921C82.908 27.077 83.142 27.155 83.428 27.155C83.6793 27.155 83.896 27.1117 84.078 27.025C84.26 26.9383 84.4246 26.8213 84.572 26.674L84.936 27.545C84.7366 27.727 84.4983 27.87 84.221 27.974C83.9523 28.078 83.6403 28.13 83.285 28.13C82.9556 28.13 82.648 28.0737 82.362 27.961C82.076 27.8397 81.8463 27.6533 81.673 27.402C81.5083 27.142 81.4216 26.804 81.413 26.388V19.94L82.453 19.654ZM84.819 21.5V22.397H80.113V21.5H84.819ZM89.0823 28.13C88.4669 28.13 87.9166 27.9957 87.4313 27.727C86.9546 27.4583 86.5819 27.0727 86.3133 26.57C86.0446 26.0587 85.9103 25.452 85.9103 24.75C85.9103 24.048 86.0446 23.4457 86.3133 22.943C86.5819 22.4317 86.9503 22.0417 87.4183 21.773C87.8863 21.5043 88.4193 21.37 89.0173 21.37C89.6239 21.37 90.1396 21.5 90.5643 21.76C90.9976 22.02 91.3269 22.3753 91.5523 22.826C91.7776 23.268 91.8903 23.7663 91.8903 24.321C91.8903 24.4683 91.8859 24.6027 91.8773 24.724C91.8686 24.8453 91.8556 24.9537 91.8382 25.049H86.5863V24.126H91.3833L90.8503 24.23C90.8503 23.606 90.6769 23.125 90.3303 22.787C89.9923 22.449 89.5459 22.28 88.9913 22.28C88.5666 22.28 88.1983 22.3797 87.8863 22.579C87.5829 22.7697 87.3446 23.0513 87.1713 23.424C87.0066 23.788 86.9243 24.23 86.9243 24.75C86.9243 25.2613 87.0109 25.7033 87.1843 26.076C87.3576 26.4487 87.6003 26.7347 87.9123 26.934C88.2329 27.1247 88.6143 27.22 89.0563 27.22C89.5329 27.22 89.9186 27.129 90.2133 26.947C90.5166 26.765 90.7593 26.518 90.9413 26.206L91.7603 26.687C91.5956 26.9817 91.3833 27.2373 91.1233 27.454C90.8719 27.6707 90.5729 27.8397 90.2263 27.961C89.8883 28.0737 89.5069 28.13 89.0823 28.13ZM93.8682 28V21.5H94.7782L94.8432 22.514C95.0772 22.1153 95.3805 21.825 95.7532 21.643C96.1345 21.461 96.5245 21.37 96.9232 21.37C97.3825 21.37 97.8158 21.474 98.2232 21.682C98.6305 21.89 98.9425 22.2107 99.1592 22.644C99.2978 22.3493 99.4928 22.111 99.7442 21.929C99.9955 21.7383 100.269 21.5997 100.563 21.513C100.867 21.4177 101.153 21.37 101.421 21.37C101.837 21.37 102.232 21.4567 102.604 21.63C102.986 21.8033 103.298 22.072 103.54 22.436C103.783 22.8 103.904 23.268 103.904 23.84V28H102.864V23.944C102.864 23.3547 102.717 22.93 102.422 22.67C102.128 22.41 101.764 22.28 101.33 22.28C100.992 22.28 100.676 22.3623 100.381 22.527C100.087 22.6917 99.8482 22.9343 99.6662 23.255C99.4928 23.5757 99.4062 23.97 99.4062 24.438V28H98.3662V23.944C98.3662 23.3547 98.2188 22.93 97.9242 22.67C97.6295 22.41 97.2655 22.28 96.8322 22.28C96.5462 22.28 96.2515 22.358 95.9482 22.514C95.6535 22.6613 95.4065 22.8997 95.2072 23.229C95.0078 23.5583 94.9082 23.9917 94.9082 24.529V28H93.8682ZM109.444 28.13C109.08 28.13 108.742 28.065 108.43 27.935C108.118 27.805 107.849 27.623 107.624 27.389C107.398 27.155 107.229 26.8907 107.117 26.596L107.26 26.414L107.169 28H106.259V18.51H107.299V22.969L107.169 22.774C107.342 22.3667 107.632 22.033 108.04 21.773C108.456 21.5043 108.928 21.37 109.457 21.37C109.994 21.37 110.488 21.5043 110.939 21.773C111.389 22.0417 111.749 22.4273 112.018 22.93C112.286 23.4327 112.421 24.0393 112.421 24.75C112.421 25.452 112.282 26.0587 112.005 26.57C111.736 27.0727 111.376 27.4583 110.926 27.727C110.475 27.9957 109.981 28.13 109.444 28.13ZM109.34 27.22C109.981 27.22 110.479 26.9947 110.835 26.544C111.199 26.0933 111.381 25.4953 111.381 24.75C111.381 24.0047 111.203 23.4067 110.848 22.956C110.492 22.5053 109.994 22.28 109.353 22.28C108.945 22.28 108.586 22.384 108.274 22.592C107.97 22.8 107.732 23.0903 107.559 23.463C107.385 23.8357 107.299 24.2733 107.299 24.776C107.299 25.27 107.381 25.7033 107.546 26.076C107.719 26.44 107.957 26.7217 108.261 26.921C108.573 27.1203 108.932 27.22 109.34 27.22ZM117.126 28.13C116.511 28.13 115.961 27.9957 115.475 27.727C114.999 27.4583 114.626 27.0727 114.357 26.57C114.089 26.0587 113.954 25.452 113.954 24.75C113.954 24.048 114.089 23.4457 114.357 22.943C114.626 22.4317 114.994 22.0417 115.462 21.773C115.93 21.5043 116.463 21.37 117.061 21.37C117.668 21.37 118.184 21.5 118.608 21.76C119.042 22.02 119.371 22.3753 119.596 22.826C119.822 23.268 119.934 23.7663 119.934 24.321C119.934 24.4683 119.93 24.6027 119.921 24.724C119.913 24.8453 119.9 24.9537 119.882 25.049H114.63V24.126H119.427L118.894 24.23C118.894 23.606 118.721 23.125 118.374 22.787C118.036 22.449 117.59 22.28 117.035 22.28C116.611 22.28 116.242 22.3797 115.93 22.579C115.627 22.7697 115.389 23.0513 115.215 23.424C115.051 23.788 114.968 24.23 114.968 24.75C114.968 25.2613 115.055 25.7033 115.228 26.076C115.402 26.4487 115.644 26.7347 115.956 26.934C116.277 27.1247 116.658 27.22 117.1 27.22C117.577 27.22 117.963 27.129 118.257 26.947C118.561 26.765 118.803 26.518 118.985 26.206L119.804 26.687C119.64 26.9817 119.427 27.2373 119.167 27.454C118.916 27.6707 118.617 27.8397 118.27 27.961C117.932 28.0737 117.551 28.13 117.126 28.13ZM121.912 28V21.5H122.757L122.9 22.566C123.082 22.1673 123.346 21.8683 123.693 21.669C124.048 21.4697 124.477 21.37 124.98 21.37C125.093 21.37 125.214 21.3787 125.344 21.396C125.483 21.4133 125.6 21.448 125.695 21.5L125.513 22.449C125.418 22.4143 125.314 22.3883 125.201 22.371C125.088 22.3537 124.928 22.345 124.72 22.345C124.451 22.345 124.178 22.423 123.901 22.579C123.632 22.735 123.407 22.9733 123.225 23.294C123.043 23.606 122.952 24.0047 122.952 24.49V28H121.912ZM131.098 28V27.155C131.956 26.5223 132.671 25.9677 133.243 25.491C133.823 25.0143 134.287 24.581 134.634 24.191C134.98 23.801 135.227 23.4327 135.375 23.086C135.522 22.7307 135.596 22.3623 135.596 21.981C135.596 21.4697 135.431 21.058 135.102 20.746C134.781 20.4253 134.339 20.265 133.776 20.265C133.186 20.265 132.714 20.46 132.359 20.85C132.003 21.2313 131.795 21.7427 131.735 22.384L130.825 21.838C130.903 21.3353 131.063 20.8933 131.306 20.512C131.557 20.1307 131.891 19.8317 132.307 19.615C132.731 19.3983 133.234 19.29 133.815 19.29C134.257 19.29 134.651 19.355 134.998 19.485C135.353 19.615 135.656 19.8013 135.908 20.044C136.159 20.278 136.35 20.5597 136.48 20.889C136.618 21.2183 136.688 21.5823 136.688 21.981C136.688 22.5183 136.558 23.047 136.298 23.567C136.038 24.0783 135.609 24.6157 135.011 25.179C134.413 25.7423 133.602 26.3663 132.58 27.051V27.064C132.675 27.0553 132.805 27.051 132.97 27.051C133.143 27.0423 133.312 27.038 133.477 27.038C133.65 27.0293 133.78 27.025 133.867 27.025H136.87V28H131.098ZM141.758 28.13C140.787 28.13 140.012 27.753 139.431 26.999C138.85 26.245 138.56 25.1487 138.56 23.71C138.56 22.2713 138.85 21.175 139.431 20.421C140.012 19.667 140.787 19.29 141.758 19.29C142.737 19.29 143.513 19.667 144.085 20.421C144.666 21.175 144.956 22.2713 144.956 23.71C144.956 25.1487 144.666 26.245 144.085 26.999C143.513 27.753 142.737 28.13 141.758 28.13ZM141.758 27.194C142.217 27.194 142.603 27.064 142.915 26.804C143.236 26.5353 143.474 26.141 143.63 25.621C143.795 25.101 143.877 24.464 143.877 23.71C143.877 22.956 143.795 22.319 143.63 21.799C143.474 21.279 143.236 20.889 142.915 20.629C142.603 20.3603 142.217 20.226 141.758 20.226C141.299 20.226 140.909 20.3603 140.588 20.629C140.276 20.889 140.038 21.279 139.873 21.799C139.717 22.319 139.639 22.956 139.639 23.71C139.639 24.464 139.717 25.101 139.873 25.621C140.038 26.141 140.276 26.5353 140.588 26.804C140.909 27.064 141.299 27.194 141.758 27.194ZM146.764 28V27.155C147.622 26.5223 148.337 25.9677 148.909 25.491C149.489 25.0143 149.953 24.581 150.3 24.191C150.646 23.801 150.893 23.4327 151.041 23.086C151.188 22.7307 151.262 22.3623 151.262 21.981C151.262 21.4697 151.097 21.058 150.768 20.746C150.447 20.4253 150.005 20.265 149.442 20.265C148.852 20.265 148.38 20.46 148.025 20.85C147.669 21.2313 147.461 21.7427 147.401 22.384L146.491 21.838C146.569 21.3353 146.729 20.8933 146.972 20.512C147.223 20.1307 147.557 19.8317 147.973 19.615C148.397 19.3983 148.9 19.29 149.481 19.29C149.923 19.29 150.317 19.355 150.664 19.485C151.019 19.615 151.322 19.8013 151.574 20.044C151.825 20.278 152.016 20.5597 152.146 20.889C152.284 21.2183 152.354 21.5823 152.354 21.981C152.354 22.5183 152.224 23.047 151.964 23.567C151.704 24.0783 151.275 24.6157 150.677 25.179C150.079 25.7423 149.268 26.3663 148.246 27.051V27.064C148.341 27.0553 148.471 27.051 148.636 27.051C148.809 27.0423 148.978 27.038 149.143 27.038C149.316 27.0293 149.446 27.025 149.533 27.025H152.536V28H146.764ZM156.085 28V21.708C156.085 21.5607 156.085 21.4047 156.085 21.24C156.094 21.0667 156.102 20.889 156.111 20.707C155.816 20.993 155.474 21.2443 155.084 21.461C154.694 21.669 154.295 21.8207 153.888 21.916L153.615 20.967C153.771 20.9497 153.966 20.8933 154.2 20.798C154.443 20.694 154.694 20.5683 154.954 20.421C155.223 20.265 155.47 20.1003 155.695 19.927C155.92 19.7537 156.094 19.5847 156.215 19.42H157.125V28H156.085Z" fill="#AEAEAE"/>
<defs>
<clipPath id="clip0_821_1745">
<rect width="28" height="28" fill="white" transform="translate(0 2)"/>
</clipPath>
</defs>
</svg>
