<svg width="105" height="29" viewBox="0 0 105 29" fill="none" xmlns="http://www.w3.org/2000/svg">
<g clip-path="url(#clip0_821_1745)">
<path d="M19.25 11C19.25 12.3924 18.6969 13.7277 17.7123 14.7123C16.7277 15.6969 15.3924 16.25 14 16.25C12.6076 16.25 11.2723 15.6969 10.2877 14.7123C9.30312 13.7277 8.75 12.3924 8.75 11C8.75 9.60761 9.30312 8.27226 10.2877 7.28769C11.2723 6.30312 12.6076 5.75 14 5.75C15.3924 5.75 16.7277 6.30312 17.7123 7.28769C18.6969 8.27226 19.25 9.60761 19.25 11V11Z" fill="#AEAEAE"/>
<path fill-rule="evenodd" clip-rule="evenodd" d="M0 14.5C0 10.787 1.475 7.22601 4.10051 4.60051C6.72601 1.975 10.287 0.5 14 0.5C17.713 0.5 21.274 1.975 23.8995 4.60051C26.525 7.22601 28 10.787 28 14.5C28 18.213 26.525 21.774 23.8995 24.3995C21.274 27.025 17.713 28.5 14 28.5C10.287 28.5 6.72601 27.025 4.10051 24.3995C1.475 21.774 0 18.213 0 14.5V14.5ZM14 2.25C11.6931 2.25012 9.43314 2.90163 7.4802 4.12955C5.52727 5.35746 3.96074 7.11187 2.96094 9.19084C1.96113 11.2698 1.56868 13.5888 1.82875 15.881C2.08882 18.1732 2.99084 20.3454 4.431 22.1475C5.6735 20.1455 8.40875 18 14 18C19.5912 18 22.3248 20.1437 23.569 22.1475C25.0092 20.3454 25.9112 18.1732 26.1713 15.881C26.4313 13.5888 26.0389 11.2698 25.0391 9.19084C24.0393 7.11187 22.4727 5.35746 20.5198 4.12955C18.5669 2.90163 16.3069 2.25012 14 2.25V2.25Z" fill="#AEAEAE"/>
</g>
<path d="M44.398 12H42.929L42.11 9.751H38.509L37.69 12H36.26L39.497 3.42H41.161L44.398 12ZM38.899 8.62H41.72L40.316 4.616L38.899 8.62ZM48.0809 12.13C47.5435 12.13 47.0539 11.9957 46.6119 11.727C46.1785 11.4583 45.8362 11.0727 45.5849 10.57C45.3335 10.0673 45.2079 9.465 45.2079 8.763C45.2079 8.035 45.3422 7.41967 45.6109 6.917C45.8795 6.41433 46.2392 6.033 46.6899 5.773C47.1405 5.50433 47.6345 5.37 48.1719 5.37C48.7265 5.37 49.1945 5.52167 49.5759 5.825C49.9572 6.12833 50.2129 6.52267 50.3429 7.008L50.1869 7.151V2.575H51.5779V12H50.3429L50.2389 10.232L50.4209 10.245C50.3602 10.635 50.2172 10.973 49.9919 11.259C49.7665 11.5363 49.4849 11.753 49.1469 11.909C48.8175 12.0563 48.4622 12.13 48.0809 12.13ZM48.3799 11.012C48.7525 11.012 49.0732 10.9167 49.3419 10.726C49.6105 10.5353 49.8185 10.2667 49.9659 9.92C50.1132 9.57333 50.1869 9.15733 50.1869 8.672C50.1869 8.22133 50.1132 7.83567 49.9659 7.515C49.8185 7.18567 49.6105 6.93433 49.3419 6.761C49.0819 6.58767 48.7785 6.501 48.4319 6.501C47.8512 6.501 47.4005 6.70033 47.0799 7.099C46.7592 7.49767 46.5989 8.048 46.5989 8.75C46.5989 9.452 46.7549 10.0067 47.0669 10.414C47.3789 10.8127 47.8165 11.012 48.3799 11.012ZM53.7353 12V5.5H54.9703L55.0353 6.592C55.2606 6.176 55.5596 5.86833 55.9323 5.669C56.3136 5.46967 56.7166 5.37 57.1413 5.37C57.6093 5.37 58.0383 5.47833 58.4283 5.695C58.8269 5.903 59.1259 6.21933 59.3253 6.644C59.4639 6.358 59.6546 6.11967 59.8973 5.929C60.1399 5.73833 60.4086 5.59967 60.7033 5.513C60.9979 5.41767 61.2883 5.37 61.5743 5.37C61.9903 5.37 62.3803 5.45667 62.7443 5.63C63.1083 5.80333 63.4029 6.06767 63.6283 6.423C63.8536 6.77833 63.9663 7.23333 63.9663 7.788V12H62.5753V8.009C62.5753 7.48033 62.4496 7.099 62.1983 6.865C61.9469 6.631 61.6263 6.514 61.2363 6.514C60.9329 6.514 60.6513 6.58767 60.3913 6.735C60.1399 6.88233 59.9363 7.10333 59.7803 7.398C59.6243 7.684 59.5463 8.03933 59.5463 8.464V12H58.1553V8.009C58.1553 7.48033 58.0296 7.099 57.7783 6.865C57.5269 6.631 57.2063 6.514 56.8163 6.514C56.5563 6.514 56.2963 6.58333 56.0363 6.722C55.7763 6.86067 55.5596 7.07733 55.3863 7.372C55.2129 7.66667 55.1263 8.05667 55.1263 8.542V12H53.7353ZM66.7771 4.408C66.4738 4.408 66.2398 4.33433 66.0751 4.187C65.9191 4.031 65.8411 3.81433 65.8411 3.537C65.8411 3.25967 65.9191 3.04733 66.0751 2.9C66.2398 2.75267 66.4738 2.679 66.7771 2.679C67.0718 2.679 67.2971 2.75267 67.4531 2.9C67.6178 3.04733 67.7001 3.25967 67.7001 3.537C67.7001 3.81433 67.6178 4.031 67.4531 4.187C67.2971 4.33433 67.0718 4.408 66.7771 4.408ZM67.4661 5.5V12H66.0751V5.5H67.4661ZM69.6425 12V5.5H70.8775L70.9685 7.19L70.7865 7.008C70.9078 6.63533 71.0811 6.32767 71.3065 6.085C71.5405 5.83367 71.8135 5.65167 72.1255 5.539C72.4461 5.42633 72.7841 5.37 73.1395 5.37C73.5988 5.37 74.0105 5.461 74.3745 5.643C74.7471 5.81633 75.0418 6.08067 75.2585 6.436C75.4751 6.79133 75.5835 7.242 75.5835 7.788V12H74.1925V8.217C74.1925 7.57567 74.0581 7.13367 73.7895 6.891C73.5295 6.63967 73.2001 6.514 72.8015 6.514C72.5155 6.514 72.2381 6.58333 71.9695 6.722C71.7008 6.852 71.4755 7.06433 71.2935 7.359C71.1201 7.65367 71.0335 8.048 71.0335 8.542V12H69.6425Z" fill="#212121"/>
<path d="M39.421 26.11C38.5997 26.11 37.9433 25.791 37.452 25.153C36.9607 24.515 36.715 23.5873 36.715 22.37C36.715 21.1527 36.9607 20.225 37.452 19.587C37.9433 18.949 38.5997 18.63 39.421 18.63C40.2497 18.63 40.906 18.949 41.39 19.587C41.8813 20.225 42.127 21.1527 42.127 22.37C42.127 23.5873 41.8813 24.515 41.39 25.153C40.906 25.791 40.2497 26.11 39.421 26.11ZM39.421 25.318C39.8097 25.318 40.136 25.208 40.4 24.988C40.6713 24.7607 40.873 24.427 41.005 23.987C41.1443 23.547 41.214 23.008 41.214 22.37C41.214 21.732 41.1443 21.193 41.005 20.753C40.873 20.313 40.6713 19.983 40.4 19.763C40.136 19.5357 39.8097 19.422 39.421 19.422C39.0323 19.422 38.7023 19.5357 38.431 19.763C38.167 19.983 37.9653 20.313 37.826 20.753C37.694 21.193 37.628 21.732 37.628 22.37C37.628 23.008 37.694 23.547 37.826 23.987C37.9653 24.427 38.167 24.7607 38.431 24.988C38.7023 25.208 39.0323 25.318 39.421 25.318ZM45.1308 26V20.676C45.1308 20.5513 45.1308 20.4193 45.1308 20.28C45.1381 20.1333 45.1454 19.983 45.1528 19.829C44.9034 20.071 44.6138 20.2837 44.2838 20.467C43.9538 20.643 43.6164 20.7713 43.2718 20.852L43.0408 20.049C43.1728 20.0343 43.3378 19.9867 43.5358 19.906C43.7411 19.818 43.9538 19.7117 44.1738 19.587C44.4011 19.455 44.6101 19.3157 44.8008 19.169C44.9914 19.0223 45.1381 18.8793 45.2408 18.74H46.0108V26H45.1308ZM57.4115 26H56.4765L55.7065 23.987H52.4175L51.6475 26H50.7235L53.5505 18.74H54.5955L57.4115 26ZM52.7365 23.162H55.3875L54.0565 19.587L52.7365 23.162ZM58.7222 28.31V20.5H59.4922L59.5692 21.842L59.4482 21.688C59.5436 21.4313 59.6866 21.2077 59.8772 21.017C60.0679 20.819 60.2989 20.665 60.5702 20.555C60.8416 20.445 61.1349 20.39 61.4502 20.39C61.8976 20.39 62.3082 20.5037 62.6822 20.731C63.0636 20.9583 63.3679 21.2847 63.5952 21.71C63.8226 22.1353 63.9362 22.6487 63.9362 23.25C63.9362 23.844 63.8189 24.3573 63.5842 24.79C63.3569 25.2153 63.0526 25.5417 62.6712 25.769C62.2899 25.9963 61.8719 26.11 61.4172 26.11C60.9626 26.11 60.5629 26 60.2182 25.78C59.8809 25.5527 59.6389 25.2667 59.4922 24.922L59.6022 24.757V28.31H58.7222ZM61.3292 25.34C61.8719 25.34 62.2936 25.1493 62.5942 24.768C62.9022 24.3867 63.0562 23.8807 63.0562 23.25C63.0562 22.6193 62.9059 22.1133 62.6052 21.732C62.3119 21.3507 61.8976 21.16 61.3622 21.16C61.0102 21.16 60.7022 21.248 60.4382 21.424C60.1742 21.5927 59.9689 21.8347 59.8222 22.15C59.6756 22.458 59.6022 22.8247 59.6022 23.25C59.6022 23.668 59.6719 24.0347 59.8112 24.35C59.9579 24.6653 60.1596 24.911 60.4162 25.087C60.6802 25.2557 60.9846 25.34 61.3292 25.34ZM65.6187 26V20.5H66.3337L66.4547 21.402C66.6087 21.0647 66.8324 20.8117 67.1257 20.643C67.4264 20.4743 67.7894 20.39 68.2147 20.39C68.31 20.39 68.4127 20.3973 68.5227 20.412C68.64 20.4267 68.739 20.456 68.8197 20.5L68.6657 21.303C68.585 21.2737 68.497 21.2517 68.4017 21.237C68.3064 21.2223 68.1707 21.215 67.9947 21.215C67.7674 21.215 67.5364 21.281 67.3017 21.413C67.0744 21.545 66.8837 21.7467 66.7297 22.018C66.5757 22.282 66.4987 22.6193 66.4987 23.03V26H65.6187ZM70.5489 19.444C70.3509 19.444 70.1896 19.3853 70.0649 19.268C69.9476 19.1433 69.8889 18.982 69.8889 18.784C69.8889 18.586 69.9476 18.4283 70.0649 18.311C70.1896 18.1863 70.3509 18.124 70.5489 18.124C70.7469 18.124 70.9046 18.1863 71.0219 18.311C71.1466 18.4283 71.2089 18.586 71.2089 18.784C71.2089 18.982 71.1466 19.1433 71.0219 19.268C70.9046 19.3853 70.7469 19.444 70.5489 19.444ZM70.9889 20.5V26H70.1089V20.5H70.9889ZM73.8668 17.97V24.603C73.8668 24.8817 73.9181 25.076 74.0208 25.186C74.1235 25.2887 74.2885 25.34 74.5158 25.34C74.6625 25.34 74.7835 25.329 74.8788 25.307C74.9741 25.285 75.1025 25.2447 75.2638 25.186L75.1208 25.956C75.0035 26.0073 74.8751 26.044 74.7358 26.066C74.5965 26.0953 74.4535 26.11 74.3068 26.11C73.8595 26.11 73.5258 25.989 73.3058 25.747C73.0931 25.505 72.9868 25.1347 72.9868 24.636V17.97H73.8668ZM79.5464 26V25.285C80.2724 24.7497 80.8774 24.2803 81.3614 23.877C81.8528 23.4737 82.2451 23.107 82.5384 22.777C82.8318 22.447 83.0408 22.1353 83.1654 21.842C83.2901 21.5413 83.3524 21.2297 83.3524 20.907C83.3524 20.4743 83.2131 20.126 82.9344 19.862C82.6631 19.5907 82.2891 19.455 81.8124 19.455C81.3138 19.455 80.9141 19.62 80.6134 19.95C80.3128 20.2727 80.1368 20.7053 80.0854 21.248L79.3154 20.786C79.3814 20.3607 79.5171 19.9867 79.7224 19.664C79.9351 19.3413 80.2174 19.0883 80.5694 18.905C80.9288 18.7217 81.3541 18.63 81.8454 18.63C82.2194 18.63 82.5531 18.685 82.8464 18.795C83.1471 18.905 83.4038 19.0627 83.6164 19.268C83.8291 19.466 83.9904 19.7043 84.1004 19.983C84.2178 20.2617 84.2764 20.5697 84.2764 20.907C84.2764 21.3617 84.1664 21.809 83.9464 22.249C83.7264 22.6817 83.3634 23.1363 82.8574 23.613C82.3514 24.0897 81.6658 24.6177 80.8004 25.197V25.208C80.8811 25.2007 80.9911 25.197 81.1304 25.197C81.2771 25.1897 81.4201 25.186 81.5594 25.186C81.7061 25.1787 81.8161 25.175 81.8894 25.175H84.4304V26H79.5464ZM88.5665 26.11C87.7452 26.11 87.0888 25.791 86.5975 25.153C86.1062 24.515 85.8605 23.5873 85.8605 22.37C85.8605 21.1527 86.1062 20.225 86.5975 19.587C87.0888 18.949 87.7452 18.63 88.5665 18.63C89.3952 18.63 90.0515 18.949 90.5355 19.587C91.0268 20.225 91.2725 21.1527 91.2725 22.37C91.2725 23.5873 91.0268 24.515 90.5355 25.153C90.0515 25.791 89.3952 26.11 88.5665 26.11ZM88.5665 25.318C88.9552 25.318 89.2815 25.208 89.5455 24.988C89.8168 24.7607 90.0185 24.427 90.1505 23.987C90.2898 23.547 90.3595 23.008 90.3595 22.37C90.3595 21.732 90.2898 21.193 90.1505 20.753C90.0185 20.313 89.8168 19.983 89.5455 19.763C89.2815 19.5357 88.9552 19.422 88.5665 19.422C88.1778 19.422 87.8478 19.5357 87.5765 19.763C87.3125 19.983 87.1108 20.313 86.9715 20.753C86.8395 21.193 86.7735 21.732 86.7735 22.37C86.7735 23.008 86.8395 23.547 86.9715 23.987C87.1108 24.427 87.3125 24.7607 87.5765 24.988C87.8478 25.208 88.1778 25.318 88.5665 25.318ZM92.8023 26V25.285C93.5283 24.7497 94.1333 24.2803 94.6173 23.877C95.1086 23.4737 95.5009 23.107 95.7943 22.777C96.0876 22.447 96.2966 22.1353 96.4213 21.842C96.5459 21.5413 96.6083 21.2297 96.6083 20.907C96.6083 20.4743 96.4689 20.126 96.1903 19.862C95.9189 19.5907 95.5449 19.455 95.0683 19.455C94.5696 19.455 94.1699 19.62 93.8693 19.95C93.5686 20.2727 93.3926 20.7053 93.3413 21.248L92.5713 20.786C92.6373 20.3607 92.7729 19.9867 92.9783 19.664C93.1909 19.3413 93.4733 19.0883 93.8253 18.905C94.1846 18.7217 94.6099 18.63 95.1013 18.63C95.4753 18.63 95.8089 18.685 96.1023 18.795C96.4029 18.905 96.6596 19.0627 96.8723 19.268C97.0849 19.466 97.2463 19.7043 97.3563 19.983C97.4736 20.2617 97.5323 20.5697 97.5323 20.907C97.5323 21.3617 97.4223 21.809 97.2023 22.249C96.9823 22.6817 96.6193 23.1363 96.1133 23.613C95.6073 24.0897 94.9216 24.6177 94.0563 25.197V25.208C94.1369 25.2007 94.2469 25.197 94.3863 25.197C94.5329 25.1897 94.6759 25.186 94.8153 25.186C94.9619 25.1787 95.0719 25.175 95.1453 25.175H97.6863V26H92.8023ZM99.2154 26V25.285C99.9414 24.7497 100.546 24.2803 101.03 23.877C101.522 23.4737 101.914 23.107 102.207 22.777C102.501 22.447 102.71 22.1353 102.834 21.842C102.959 21.5413 103.021 21.2297 103.021 20.907C103.021 20.4743 102.882 20.126 102.603 19.862C102.332 19.5907 101.958 19.455 101.481 19.455C100.983 19.455 100.583 19.62 100.282 19.95C99.9817 20.2727 99.8057 20.7053 99.7544 21.248L98.9844 20.786C99.0504 20.3607 99.186 19.9867 99.3914 19.664C99.604 19.3413 99.8864 19.0883 100.238 18.905C100.598 18.7217 101.023 18.63 101.514 18.63C101.888 18.63 102.222 18.685 102.515 18.795C102.816 18.905 103.073 19.0627 103.285 19.268C103.498 19.466 103.659 19.7043 103.769 19.983C103.887 20.2617 103.945 20.5697 103.945 20.907C103.945 21.3617 103.835 21.809 103.615 22.249C103.395 22.6817 103.032 23.1363 102.526 23.613C102.02 24.0897 101.335 24.6177 100.469 25.197V25.208C100.55 25.2007 100.66 25.197 100.799 25.197C100.946 25.1897 101.089 25.186 101.228 25.186C101.375 25.1787 101.485 25.175 101.558 25.175H104.099V26H99.2154Z" fill="#AEAEAE"/>
<defs>
<clipPath id="clip0_821_1745">
<rect width="28" height="28" fill="white" transform="translate(0 0.5)"/>
</clipPath>
</defs>
</svg>
