<svg width="46" height="47" viewBox="0 0 46 47" fill="none" xmlns="http://www.w3.org/2000/svg">
<circle cx="23" cy="23.6821" r="23" fill="#FAFAFA"/>
<path d="M32.3275 17.4849C33.3733 16.8597 34.1559 15.8752 34.529 14.7153C33.5463 15.2984 32.471 15.7092 31.3498 15.9298C30.5936 15.1299 29.5953 14.6009 28.5088 14.4243C27.4223 14.2478 26.3078 14.4335 25.3373 14.9529C24.3667 15.4722 23.594 16.2964 23.1381 17.2984C22.6822 18.3003 22.5685 19.4244 22.8145 20.4973C20.824 20.3974 18.8768 19.88 17.0992 18.9787C15.3217 18.0775 13.7535 16.8125 12.4965 15.2659C11.8572 16.3686 11.6616 17.6732 11.9494 18.9148C12.2371 20.1564 12.9867 21.2419 14.0458 21.9509C13.251 21.9254 12.4738 21.7102 11.779 21.3233V21.3863C11.7792 22.5424 12.1793 23.6629 12.9114 24.5577C13.6435 25.4525 14.6626 26.0665 15.7958 26.2956C15.0586 26.4962 14.2852 26.5257 13.5348 26.3819C13.8553 27.3763 14.4783 28.2458 15.3168 28.8691C16.1553 29.4924 17.1674 29.8383 18.212 29.8586C16.4385 31.2506 14.2482 32.0055 11.9937 32.0018C11.5935 32.0018 11.1945 31.9784 10.7978 31.9329C13.0873 33.4041 15.7519 34.185 18.4733 34.1823C20.3477 34.1952 22.2059 33.8354 23.9401 33.1241C25.6743 32.4127 27.2498 31.3638 28.5752 30.0383C29.9005 28.7128 30.9493 27.1372 31.6605 25.403C32.3718 23.6688 32.7313 21.8105 32.7183 19.9361C32.7183 19.7191 32.7137 19.5033 32.7032 19.2886C33.6837 18.58 34.53 17.7021 35.2022 16.6963C34.2887 17.1012 33.3197 17.367 32.3275 17.4849Z" fill="#005640"/>
</svg>
