<svg width="46" height="47" viewBox="0 0 46 47" fill="none" xmlns="http://www.w3.org/2000/svg">
<circle cx="23" cy="23.6821" r="23" fill="#FAFAFA"/>
<path d="M34.1918 18.0858C34.0589 17.5928 33.7992 17.1431 33.4386 16.7817C33.0779 16.4202 32.6289 16.1595 32.1362 16.0255C30.3092 15.5238 23 15.5156 23 15.5156C23 15.5156 15.692 15.5075 13.8638 15.987C13.3714 16.1271 12.9233 16.3915 12.5625 16.7548C12.2017 17.118 11.9403 17.5679 11.8035 18.0613C11.3217 19.8883 11.317 23.6776 11.317 23.6776C11.317 23.6776 11.3123 27.4856 11.7907 29.294C12.059 30.2938 12.8465 31.0836 13.8475 31.3531C15.6932 31.8548 22.9825 31.863 22.9825 31.863C22.9825 31.863 30.2917 31.8711 32.1187 31.3928C32.6116 31.259 33.061 30.9989 33.4226 30.6382C33.7841 30.2774 34.0453 29.8286 34.1802 29.336C34.6632 27.5101 34.6667 23.722 34.6667 23.722C34.6667 23.722 34.69 19.9128 34.1918 18.0858ZM20.662 27.1881L20.6678 20.1881L26.7427 23.694L20.662 27.1881Z" fill="#005640"/>
</svg>
